M48
; DRILL file {KiCad 7.0.7} date Thu Feb  8 13:52:20 2024
; FORMAT={-:-/ absolute / inch / decimal}
; #@! TF.CreationDate,2024-02-08T13:52:20-05:00
; #@! TF.GenerationSoftware,Kicad,Pcbnew,7.0.7
; #@! TF.FileFunction,Plated,1,2,PTH
FMAT,2
INCH
; #@! TA.AperFunction,Plated,PTH,ViaDrill
T1C0.0157
; #@! TA.AperFunction,Plated,PTH,ComponentDrill
T2C0.0201
; #@! TA.AperFunction,Plated,PTH,ComponentDrill
T3C0.0236
; #@! TA.AperFunction,Plated,PTH,ComponentDrill
T4C0.0394
; #@! TA.AperFunction,Plated,PTH,ComponentDrill
T5C0.0433
; #@! TA.AperFunction,Plated,PTH,ComponentDrill
T6C0.0512
; #@! TA.AperFunction,Plated,PTH,ComponentDrill
T7C0.0591
%
G90
G05
T1
X4.3031Y-2.7756
X4.5827Y-3.248
X4.5896Y-2.3061
X4.5906Y-2.4685
X4.8819Y-2.7362
X4.8937Y-3.248
X4.9567Y-3.2441
X4.9645Y-3.0236
X5.0039Y-2.6457
X5.0787Y-2.9724
X5.0787Y-3.2913
X5.126Y-2.689
X5.1654Y-2.6417
X5.1693Y-2.5276
X5.2244Y-2.3268
X5.253Y-2.8219
X5.2874Y-2.2323
X5.3071Y-2.689
X5.3543Y-2.4488
X5.3583Y-2.2835
X5.3937Y-2.6417
X5.4488Y-2.1654
X5.4961Y-2.3858
X5.5315Y-2.3307
X5.563Y-2.7992
X5.6063Y-2.8228
X5.7283Y-3.0984
X5.7874Y-3.2913
X5.8386Y-2.811
X5.8661Y-2.9729
X5.8661Y-3.2913
X5.9213Y-3.0512
X5.9213Y-3.0906
X5.9252Y-2.6197
X5.9252Y-2.6693
X6.0394Y-2.563
X6.1457Y-2.811
T2
X5.6181Y-2.5417
X5.6181Y-2.5917
X5.6181Y-2.6417
X5.7181Y-2.5417
X5.7181Y-2.5917
X5.7181Y-2.6417
T4
X4.5866Y-2.7854
X4.5866Y-3.3563
X4.685Y-3.3563
X4.7835Y-2.7854
X4.7835Y-3.3563
X5.0787Y-2.252
X5.0787Y-2.352
X5.0787Y-2.452
X5.0787Y-2.552
X5.9488Y-2.2037
X5.9488Y-2.3037
X5.9488Y-2.4037
T5
X5.3051Y-2.9823
X5.3051Y-3.1594
X5.561Y-2.9823
X5.561Y-3.1594
X6.0925Y-2.9823
X6.0925Y-3.1594
X6.3484Y-2.9823
X6.3484Y-3.1594
T6
X5.1874Y-2.9724
X5.1874Y-3.1693
X5.6795Y-2.9724
X5.6795Y-3.1693
X5.9748Y-2.9724
X5.9748Y-3.1693
X6.4669Y-2.9724
X6.4669Y-3.1693
T3
G00X4.3173Y-2.2039
M15
G01X4.3488Y-2.2039
M16
G05
G00X4.3173Y-2.5441
M15
G01X4.3488Y-2.5441
M16
G05
G00X4.4756Y-2.2039
M15
G01X4.5189Y-2.2039
M16
G05
G00X4.4756Y-2.5441
M15
G01X4.5189Y-2.5441
M16
G05
G00X6.1173Y-2.4224
M15
G01X6.0937Y-2.4224
M16
G05
G00X6.1606Y-2.2413
M15
G01X6.137Y-2.2413
M16
G05
G00X6.3181Y-2.2413
M15
G01X6.2945Y-2.2413
M16
G05
G00X6.4362Y-2.2413
M15
G01X6.4126Y-2.2413
M16
G05
T7
G00X4.4646Y-3.0866
M15
G01X4.4646Y-3.0354
M16
G05
G00X4.9055Y-3.0866
M15
G01X4.9055Y-3.0354
M16
G05
T0
M30
