%TF.GenerationSoftware,KiCad,Pcbnew,7.0.7*%
%TF.CreationDate,2024-03-20T09:31:47-04:00*%
%TF.ProjectId,metronome,6d657472-6f6e-46f6-9d65-2e6b69636164,rev?*%
%TF.SameCoordinates,Original*%
%TF.FileFunction,Paste,Top*%
%TF.FilePolarity,Positive*%
%FSLAX46Y46*%
G04 Gerber Fmt 4.6, Leading zero omitted, Abs format (unit mm)*
G04 Created by KiCad (PCBNEW 7.0.7) date 2024-03-20 09:31:47*
%MOMM*%
%LPD*%
G01*
G04 APERTURE LIST*
G04 Aperture macros list*
%AMRoundRect*
0 Rectangle with rounded corners*
0 $1 Rounding radius*
0 $2 $3 $4 $5 $6 $7 $8 $9 X,Y pos of 4 corners*
0 Add a 4 corners polygon primitive as box body*
4,1,4,$2,$3,$4,$5,$6,$7,$8,$9,$2,$3,0*
0 Add four circle primitives for the rounded corners*
1,1,$1+$1,$2,$3*
1,1,$1+$1,$4,$5*
1,1,$1+$1,$6,$7*
1,1,$1+$1,$8,$9*
0 Add four rect primitives between the rounded corners*
20,1,$1+$1,$2,$3,$4,$5,0*
20,1,$1+$1,$4,$5,$6,$7,0*
20,1,$1+$1,$6,$7,$8,$9,0*
20,1,$1+$1,$8,$9,$2,$3,0*%
%AMFreePoly0*
4,1,9,3.862500,-0.866500,0.737500,-0.866500,0.737500,-0.450000,-0.737500,-0.450000,-0.737500,0.450000,0.737500,0.450000,0.737500,0.866500,3.862500,0.866500,3.862500,-0.866500,3.862500,-0.866500,$1*%
G04 Aperture macros list end*
%ADD10RoundRect,0.237500X-0.237500X0.250000X-0.237500X-0.250000X0.237500X-0.250000X0.237500X0.250000X0*%
%ADD11RoundRect,0.237500X0.237500X-0.250000X0.237500X0.250000X-0.237500X0.250000X-0.237500X-0.250000X0*%
%ADD12RoundRect,0.150000X-0.825000X-0.150000X0.825000X-0.150000X0.825000X0.150000X-0.825000X0.150000X0*%
%ADD13RoundRect,0.237500X-0.250000X-0.237500X0.250000X-0.237500X0.250000X0.237500X-0.250000X0.237500X0*%
%ADD14RoundRect,0.237500X-0.300000X-0.237500X0.300000X-0.237500X0.300000X0.237500X-0.300000X0.237500X0*%
%ADD15R,1.160000X0.600000*%
%ADD16R,1.160000X0.300000*%
%ADD17R,2.600000X0.800000*%
%ADD18RoundRect,0.250000X0.475000X-0.337500X0.475000X0.337500X-0.475000X0.337500X-0.475000X-0.337500X0*%
%ADD19RoundRect,0.250000X-0.337500X-0.475000X0.337500X-0.475000X0.337500X0.475000X-0.337500X0.475000X0*%
%ADD20RoundRect,0.250000X-0.475000X0.337500X-0.475000X-0.337500X0.475000X-0.337500X0.475000X0.337500X0*%
%ADD21RoundRect,0.237500X0.237500X-0.300000X0.237500X0.300000X-0.237500X0.300000X-0.237500X-0.300000X0*%
%ADD22RoundRect,0.237500X0.300000X0.237500X-0.300000X0.237500X-0.300000X-0.237500X0.300000X-0.237500X0*%
%ADD23RoundRect,0.237500X0.250000X0.237500X-0.250000X0.237500X-0.250000X-0.237500X0.250000X-0.237500X0*%
%ADD24RoundRect,0.237500X-0.237500X0.300000X-0.237500X-0.300000X0.237500X-0.300000X0.237500X0.300000X0*%
%ADD25RoundRect,0.237500X-0.237500X0.287500X-0.237500X-0.287500X0.237500X-0.287500X0.237500X0.287500X0*%
%ADD26R,1.300000X0.900000*%
%ADD27FreePoly0,0.000000*%
%ADD28RoundRect,0.250000X0.550000X-1.500000X0.550000X1.500000X-0.550000X1.500000X-0.550000X-1.500000X0*%
G04 APERTURE END LIST*
D10*
%TO.C,R22*%
X119000000Y-62675000D03*
X119000000Y-64500000D03*
%TD*%
D11*
%TO.C,R7*%
X129000000Y-78550000D03*
X129000000Y-76725000D03*
%TD*%
%TO.C,R17*%
X110500000Y-82425000D03*
X110500000Y-80600000D03*
%TD*%
D12*
%TO.C,U3*%
X145353000Y-65151000D03*
X145353000Y-66421000D03*
X145353000Y-67691000D03*
X145353000Y-68961000D03*
X150303000Y-68961000D03*
X150303000Y-67691000D03*
X150303000Y-66421000D03*
X150303000Y-65151000D03*
%TD*%
D13*
%TO.C,R30*%
X140161000Y-63500000D03*
X141986000Y-63500000D03*
%TD*%
%TO.C,R19*%
X131600000Y-68300000D03*
X133425000Y-68300000D03*
%TD*%
%TO.C,R11*%
X140208000Y-70612000D03*
X142033000Y-70612000D03*
%TD*%
D14*
%TO.C,C6*%
X139675000Y-55000000D03*
X141400000Y-55000000D03*
%TD*%
D13*
%TO.C,R21*%
X149098000Y-85090000D03*
X150923000Y-85090000D03*
%TD*%
%TO.C,R32*%
X144780000Y-70612000D03*
X146605000Y-70612000D03*
%TD*%
D14*
%TO.C,C3*%
X127100000Y-68300000D03*
X128825000Y-68300000D03*
%TD*%
D13*
%TO.C,R1*%
X123200000Y-66500000D03*
X125025000Y-66500000D03*
%TD*%
D15*
%TO.C,J1*%
X115449800Y-57201200D03*
X115449800Y-58001200D03*
D16*
X115449800Y-59151200D03*
X115449800Y-60151200D03*
X115449800Y-60651200D03*
X115449800Y-61651200D03*
D15*
X115449800Y-62801200D03*
X115449800Y-63601200D03*
X115449800Y-63601200D03*
X115449800Y-62801200D03*
D16*
X115449800Y-62151200D03*
X115449800Y-61151200D03*
X115449800Y-59651200D03*
X115449800Y-58651200D03*
D15*
X115449800Y-58001200D03*
X115449800Y-57201200D03*
%TD*%
D11*
%TO.C,R23*%
X121000000Y-64500000D03*
X121000000Y-62675000D03*
%TD*%
D17*
%TO.C,Y1*%
X147000000Y-56700000D03*
X147000000Y-58200000D03*
X147000000Y-59700000D03*
%TD*%
D10*
%TO.C,R25*%
X132700000Y-60375000D03*
X132700000Y-62200000D03*
%TD*%
D11*
%TO.C,R15*%
X149000000Y-82425000D03*
X149000000Y-80600000D03*
%TD*%
D10*
%TO.C,R20*%
X149000000Y-72700000D03*
X149000000Y-74525000D03*
%TD*%
D13*
%TO.C,R10*%
X131600000Y-70400000D03*
X133425000Y-70400000D03*
%TD*%
D18*
%TO.C,C7*%
X118000000Y-58575000D03*
X118000000Y-56500000D03*
%TD*%
D19*
%TO.C,C12*%
X135636000Y-65532000D03*
X137711000Y-65532000D03*
%TD*%
D20*
%TO.C,C8*%
X123500000Y-62500000D03*
X123500000Y-64575000D03*
%TD*%
D12*
%TO.C,U1*%
X137668000Y-56730000D03*
X137668000Y-58000000D03*
X137668000Y-59270000D03*
X137668000Y-60540000D03*
X142618000Y-60540000D03*
X142618000Y-59270000D03*
X142618000Y-58000000D03*
X142618000Y-56730000D03*
%TD*%
D21*
%TO.C,C9*%
X120500000Y-58225000D03*
X120500000Y-56500000D03*
%TD*%
D22*
%TO.C,C15*%
X146505000Y-61722000D03*
X144780000Y-61722000D03*
%TD*%
D11*
%TO.C,R14*%
X147000000Y-82425000D03*
X147000000Y-80600000D03*
%TD*%
D23*
%TO.C,R3*%
X120700000Y-68300000D03*
X118875000Y-68300000D03*
%TD*%
D10*
%TO.C,R5*%
X127000000Y-72700000D03*
X127000000Y-74525000D03*
%TD*%
D19*
%TO.C,C14*%
X135636000Y-68580000D03*
X137711000Y-68580000D03*
%TD*%
D10*
%TO.C,R6*%
X129000000Y-80600000D03*
X129000000Y-82425000D03*
%TD*%
%TO.C,R24*%
X134900000Y-60375000D03*
X134900000Y-62200000D03*
%TD*%
D13*
%TO.C,R2*%
X123175000Y-68300000D03*
X125000000Y-68300000D03*
%TD*%
D23*
%TO.C,R29*%
X120700000Y-66500000D03*
X118875000Y-66500000D03*
%TD*%
D13*
%TO.C,R28*%
X144780000Y-63500000D03*
X146605000Y-63500000D03*
%TD*%
D24*
%TO.C,C1*%
X110500000Y-76775000D03*
X110500000Y-78500000D03*
%TD*%
%TO.C,C2*%
X127100000Y-76775000D03*
X127100000Y-78500000D03*
%TD*%
D23*
%TO.C,R27*%
X141986000Y-65278000D03*
X140161000Y-65278000D03*
%TD*%
D25*
%TO.C,D1*%
X109300000Y-67300000D03*
X109300000Y-69050000D03*
%TD*%
D22*
%TO.C,C5*%
X146812000Y-85090000D03*
X145087000Y-85090000D03*
%TD*%
D26*
%TO.C,U2*%
X122550000Y-56500000D03*
D27*
X122637500Y-58000000D03*
D26*
X122550000Y-59500000D03*
%TD*%
D11*
%TO.C,R4*%
X110500000Y-74525000D03*
X110500000Y-72700000D03*
%TD*%
D13*
%TO.C,R26*%
X140161000Y-67056000D03*
X141986000Y-67056000D03*
%TD*%
D11*
%TO.C,R18*%
X127100000Y-82425000D03*
X127100000Y-80600000D03*
%TD*%
%TO.C,R16*%
X149000000Y-78550000D03*
X149000000Y-76725000D03*
%TD*%
D10*
%TO.C,R13*%
X147000000Y-76725000D03*
X147000000Y-78550000D03*
%TD*%
D28*
%TO.C,C11*%
X163068000Y-69662000D03*
X163068000Y-64262000D03*
%TD*%
D14*
%TO.C,C4*%
X135890000Y-70612000D03*
X137615000Y-70612000D03*
%TD*%
D22*
%TO.C,C10*%
X141986000Y-68834000D03*
X140261000Y-68834000D03*
%TD*%
D23*
%TO.C,R9*%
X128912500Y-70400000D03*
X127087500Y-70400000D03*
%TD*%
D10*
%TO.C,R8*%
X129000000Y-72700000D03*
X129000000Y-74525000D03*
%TD*%
D13*
%TO.C,R31*%
X149201500Y-70612000D03*
X151026500Y-70612000D03*
%TD*%
D11*
%TO.C,R12*%
X147000000Y-74525000D03*
X147000000Y-72700000D03*
%TD*%
D28*
%TO.C,C13*%
X155702000Y-69662000D03*
X155702000Y-64262000D03*
%TD*%
M02*
