M48
; DRILL file {KiCad 7.0.7} date Mon Apr 15 22:15:02 2024
; FORMAT={-:-/ absolute / metric / decimal}
; #@! TF.CreationDate,2024-04-15T22:15:02-04:00
; #@! TF.GenerationSoftware,Kicad,Pcbnew,7.0.7
; #@! TF.FileFunction,Plated,1,2,PTH
FMAT,2
METRIC
; #@! TA.AperFunction,Plated,PTH,ViaDrill
T1C0.400
; #@! TA.AperFunction,Plated,PTH,ComponentDrill
T2C0.600
; #@! TA.AperFunction,Plated,PTH,ComponentDrill
T3C1.000
; #@! TA.AperFunction,Plated,PTH,ComponentDrill
T4C1.100
; #@! TA.AperFunction,Plated,PTH,ComponentDrill
T5C1.300
; #@! TA.AperFunction,Plated,PTH,ComponentDrill
T6C1.500
%
G90
G05
T1
X109.3Y-70.5
X116.4Y-82.5
X116.942Y-57.506
X116.942Y-62.789
X124.0Y-69.5
X124.3Y-82.5
X125.9Y-82.4
X126.1Y-76.8
X127.1Y-67.2
X129.0Y-75.5
X129.0Y-83.6
X130.2Y-68.3
X131.2Y-67.1
X133.425Y-71.675
X133.9Y-60.4
X134.3Y-56.7
X134.62Y-69.342
X135.636Y-64.008
X136.1Y-58.0
X138.4Y-55.0
X138.938Y-68.58
X138.938Y-69.85
X139.192Y-59.182
X139.192Y-65.278
X139.6Y-60.6
X140.716Y-59.182
X142.4Y-71.7
X142.748Y-61.976
X143.51Y-70.612
X145.034Y-83.312
X145.288Y-72.39
X145.5Y-78.7
X147.0Y-83.6
X147.32Y-65.278
X147.32Y-69.342
X148.082Y-67.564
X148.082Y-70.612
X148.082Y-75.438
X148.336Y-66.548
X149.0Y-83.6
X150.4Y-77.5
X150.4Y-78.5
X150.876Y-72.39
X152.146Y-85.09
X153.162Y-64.262
X155.702Y-72.39
X161.036Y-69.596
T3
X116.5Y-70.75
X116.5Y-85.25
X119.0Y-85.25
X121.5Y-70.75
X121.5Y-85.25
X129.0Y-57.2
X129.0Y-59.74
X129.0Y-62.28
X129.0Y-64.82
X150.114Y-54.864
X150.114Y-59.944
X150.368Y-57.404
X150.368Y-62.484
T4
X134.724Y-75.764
X134.724Y-80.264
X141.224Y-75.764
X141.224Y-80.264
X154.76Y-75.75
X154.76Y-80.25
X161.26Y-75.75
X161.26Y-80.25
T5
X131.721Y-75.489
X131.721Y-80.489
X144.221Y-75.489
X144.221Y-80.489
X151.74Y-75.489
X151.74Y-80.489
X164.24Y-75.489
X164.24Y-80.489
T2
G00X110.3Y-56.081
M15
G01X111.1Y-56.081
M16
G05
G00X110.3Y-64.721
M15
G01X111.1Y-64.721
M16
G05
G00X114.32Y-56.081
M15
G01X115.42Y-56.081
M16
G05
G00X114.32Y-64.721
M15
G01X115.42Y-64.721
M16
G05
G00X155.156Y-55.09
M15
G01X154.556Y-55.09
M16
G05
G00X156.256Y-59.69
M15
G01X155.656Y-59.69
M16
G05
G00X160.256Y-59.69
M15
G01X159.656Y-59.69
M16
G05
G00X163.256Y-59.69
M15
G01X162.656Y-59.69
M16
G05
T6
G00X113.4Y-78.4
M15
G01X113.4Y-77.1
M16
G05
G00X124.6Y-78.4
M15
G01X124.6Y-77.1
M16
G05
T0
M30
