%TF.GenerationSoftware,KiCad,Pcbnew,7.0.7*%
%TF.CreationDate,2024-04-15T22:15:06-04:00*%
%TF.ProjectId,metronome,6d657472-6f6e-46f6-9d65-2e6b69636164,rev?*%
%TF.SameCoordinates,Original*%
%TF.FileFunction,Soldermask,Bot*%
%TF.FilePolarity,Negative*%
%FSLAX46Y46*%
G04 Gerber Fmt 4.6, Leading zero omitted, Abs format (unit mm)*
G04 Created by KiCad (PCBNEW 7.0.7) date 2024-04-15 22:15:06*
%MOMM*%
%LPD*%
G01*
G04 APERTURE LIST*
%ADD10C,1.000000*%
%ADD11O,2.000000X1.400000*%
%ADD12R,2.000000X1.400000*%
%ADD13R,1.700000X1.700000*%
%ADD14O,1.700000X1.700000*%
%ADD15C,2.000000*%
%ADD16O,3.048000X1.850000*%
%ADD17C,0.600000*%
%ADD18O,2.000000X0.900000*%
%ADD19O,1.700000X0.900000*%
%ADD20C,2.200000*%
%ADD21R,2.000000X2.000000*%
%ADD22R,2.000000X3.200000*%
G04 APERTURE END LIST*
D10*
%TO.C,J4*%
X164656000Y-57390000D03*
X157656000Y-57390000D03*
D11*
X154856000Y-55090000D03*
X159956000Y-59690000D03*
X162956000Y-59690000D03*
D12*
X155956000Y-59690000D03*
%TD*%
D13*
%TO.C,J3*%
X129000000Y-57200000D03*
D14*
X129000000Y-59740000D03*
X129000000Y-62280000D03*
X129000000Y-64820000D03*
%TD*%
D15*
%TO.C,SW2*%
X134724000Y-75764000D03*
X141224000Y-75764000D03*
X134724000Y-80264000D03*
X141224000Y-80264000D03*
%TD*%
D16*
%TO.C,SW5*%
X131721200Y-75488800D03*
X144221200Y-75488800D03*
X131721200Y-80488800D03*
X144221200Y-80488800D03*
%TD*%
D17*
%TO.C,J1*%
X114389800Y-57511200D03*
X114389800Y-63291200D03*
D18*
X114869800Y-56081200D03*
D19*
X110699800Y-56081200D03*
D18*
X114869800Y-64721200D03*
D19*
X110699800Y-64721200D03*
%TD*%
D20*
%TO.C,H2*%
X113000000Y-68500000D03*
%TD*%
D16*
%TO.C,SW4*%
X151739600Y-75488800D03*
X164239600Y-75488800D03*
X151739600Y-80488800D03*
X164239600Y-80488800D03*
%TD*%
D15*
%TO.C,SW3*%
X154760000Y-75750000D03*
X161260000Y-75750000D03*
X154760000Y-80250000D03*
X161260000Y-80250000D03*
%TD*%
D21*
%TO.C,SW1*%
X116500000Y-85250000D03*
D15*
X121500000Y-85250000D03*
X119000000Y-85250000D03*
D22*
X113400000Y-77750000D03*
X124600000Y-77750000D03*
D15*
X121500000Y-70750000D03*
X116500000Y-70750000D03*
%TD*%
D13*
%TO.C,J2*%
X150114000Y-54864000D03*
D14*
X150368000Y-57404000D03*
X150114000Y-59944000D03*
X150368000Y-62484000D03*
%TD*%
M02*
