%TF.GenerationSoftware,KiCad,Pcbnew,7.0.7*%
%TF.CreationDate,2024-03-19T14:26:38-04:00*%
%TF.ProjectId,metronome,6d657472-6f6e-46f6-9d65-2e6b69636164,rev?*%
%TF.SameCoordinates,Original*%
%TF.FileFunction,Copper,L1,Top*%
%TF.FilePolarity,Positive*%
%FSLAX46Y46*%
G04 Gerber Fmt 4.6, Leading zero omitted, Abs format (unit mm)*
G04 Created by KiCad (PCBNEW 7.0.7) date 2024-03-19 14:26:38*
%MOMM*%
%LPD*%
G01*
G04 APERTURE LIST*
G04 Aperture macros list*
%AMRoundRect*
0 Rectangle with rounded corners*
0 $1 Rounding radius*
0 $2 $3 $4 $5 $6 $7 $8 $9 X,Y pos of 4 corners*
0 Add a 4 corners polygon primitive as box body*
4,1,4,$2,$3,$4,$5,$6,$7,$8,$9,$2,$3,0*
0 Add four circle primitives for the rounded corners*
1,1,$1+$1,$2,$3*
1,1,$1+$1,$4,$5*
1,1,$1+$1,$6,$7*
1,1,$1+$1,$8,$9*
0 Add four rect primitives between the rounded corners*
20,1,$1+$1,$2,$3,$4,$5,0*
20,1,$1+$1,$4,$5,$6,$7,0*
20,1,$1+$1,$6,$7,$8,$9,0*
20,1,$1+$1,$8,$9,$2,$3,0*%
%AMFreePoly0*
4,1,9,3.862500,-0.866500,0.737500,-0.866500,0.737500,-0.450000,-0.737500,-0.450000,-0.737500,0.450000,0.737500,0.450000,0.737500,0.866500,3.862500,0.866500,3.862500,-0.866500,3.862500,-0.866500,$1*%
G04 Aperture macros list end*
%TA.AperFunction,ComponentPad*%
%ADD10O,2.000000X1.400000*%
%TD*%
%TA.AperFunction,ComponentPad*%
%ADD11R,2.000000X1.400000*%
%TD*%
%TA.AperFunction,ComponentPad*%
%ADD12O,3.048000X1.850000*%
%TD*%
%TA.AperFunction,ComponentPad*%
%ADD13C,2.000000*%
%TD*%
%TA.AperFunction,SMDPad,CuDef*%
%ADD14R,2.600000X0.800000*%
%TD*%
%TA.AperFunction,SMDPad,CuDef*%
%ADD15RoundRect,0.150000X-0.825000X-0.150000X0.825000X-0.150000X0.825000X0.150000X-0.825000X0.150000X0*%
%TD*%
%TA.AperFunction,ComponentPad*%
%ADD16R,1.700000X1.700000*%
%TD*%
%TA.AperFunction,ComponentPad*%
%ADD17O,1.700000X1.700000*%
%TD*%
%TA.AperFunction,SMDPad,CuDef*%
%ADD18RoundRect,0.237500X-0.250000X-0.237500X0.250000X-0.237500X0.250000X0.237500X-0.250000X0.237500X0*%
%TD*%
%TA.AperFunction,SMDPad,CuDef*%
%ADD19RoundRect,0.237500X0.250000X0.237500X-0.250000X0.237500X-0.250000X-0.237500X0.250000X-0.237500X0*%
%TD*%
%TA.AperFunction,SMDPad,CuDef*%
%ADD20RoundRect,0.237500X0.300000X0.237500X-0.300000X0.237500X-0.300000X-0.237500X0.300000X-0.237500X0*%
%TD*%
%TA.AperFunction,SMDPad,CuDef*%
%ADD21RoundRect,0.250000X-0.337500X-0.475000X0.337500X-0.475000X0.337500X0.475000X-0.337500X0.475000X0*%
%TD*%
%TA.AperFunction,SMDPad,CuDef*%
%ADD22RoundRect,0.250000X0.550000X-1.500000X0.550000X1.500000X-0.550000X1.500000X-0.550000X-1.500000X0*%
%TD*%
%TA.AperFunction,SMDPad,CuDef*%
%ADD23RoundRect,0.237500X-0.237500X0.250000X-0.237500X-0.250000X0.237500X-0.250000X0.237500X0.250000X0*%
%TD*%
%TA.AperFunction,SMDPad,CuDef*%
%ADD24RoundRect,0.237500X0.237500X-0.250000X0.237500X0.250000X-0.237500X0.250000X-0.237500X-0.250000X0*%
%TD*%
%TA.AperFunction,SMDPad,CuDef*%
%ADD25RoundRect,0.237500X-0.300000X-0.237500X0.300000X-0.237500X0.300000X0.237500X-0.300000X0.237500X0*%
%TD*%
%TA.AperFunction,SMDPad,CuDef*%
%ADD26R,1.160000X0.600000*%
%TD*%
%TA.AperFunction,SMDPad,CuDef*%
%ADD27R,1.160000X0.300000*%
%TD*%
%TA.AperFunction,ComponentPad*%
%ADD28O,2.000000X0.900000*%
%TD*%
%TA.AperFunction,ComponentPad*%
%ADD29O,1.700000X0.900000*%
%TD*%
%TA.AperFunction,SMDPad,CuDef*%
%ADD30RoundRect,0.250000X0.475000X-0.337500X0.475000X0.337500X-0.475000X0.337500X-0.475000X-0.337500X0*%
%TD*%
%TA.AperFunction,SMDPad,CuDef*%
%ADD31RoundRect,0.250000X-0.475000X0.337500X-0.475000X-0.337500X0.475000X-0.337500X0.475000X0.337500X0*%
%TD*%
%TA.AperFunction,SMDPad,CuDef*%
%ADD32RoundRect,0.237500X0.237500X-0.300000X0.237500X0.300000X-0.237500X0.300000X-0.237500X-0.300000X0*%
%TD*%
%TA.AperFunction,ComponentPad*%
%ADD33R,2.000000X3.200000*%
%TD*%
%TA.AperFunction,ComponentPad*%
%ADD34R,2.000000X2.000000*%
%TD*%
%TA.AperFunction,SMDPad,CuDef*%
%ADD35RoundRect,0.237500X-0.237500X0.300000X-0.237500X-0.300000X0.237500X-0.300000X0.237500X0.300000X0*%
%TD*%
%TA.AperFunction,SMDPad,CuDef*%
%ADD36RoundRect,0.237500X-0.237500X0.287500X-0.237500X-0.287500X0.237500X-0.287500X0.237500X0.287500X0*%
%TD*%
%TA.AperFunction,SMDPad,CuDef*%
%ADD37R,1.300000X0.900000*%
%TD*%
%TA.AperFunction,SMDPad,CuDef*%
%ADD38FreePoly0,0.000000*%
%TD*%
%TA.AperFunction,ViaPad*%
%ADD39C,0.600000*%
%TD*%
%TA.AperFunction,Conductor*%
%ADD40C,0.600000*%
%TD*%
%TA.AperFunction,Conductor*%
%ADD41C,0.250000*%
%TD*%
G04 APERTURE END LIST*
D10*
%TO.P,J4,G*%
%TO.N,GND*%
X154856000Y-55090000D03*
%TO.P,J4,R*%
%TO.N,BC1*%
X159956000Y-59690000D03*
%TO.P,J4,S*%
%TO.N,unconnected-(J4-PadS)*%
X162956000Y-59690000D03*
D11*
%TO.P,J4,T*%
%TO.N,BC2*%
X155956000Y-59690000D03*
%TD*%
D12*
%TO.P,SW5,1,A*%
%TO.N,GND*%
X131721200Y-75488800D03*
X144221200Y-75488800D03*
%TO.P,SW5,2,B*%
%TO.N,Net-(SW2-B)*%
X131721200Y-80488800D03*
X144221200Y-80488800D03*
%TD*%
%TO.P,SW4,1,A*%
%TO.N,GND*%
X151739600Y-75488800D03*
X164239600Y-75488800D03*
%TO.P,SW4,2,B*%
%TO.N,Net-(SW3-B)*%
X151739600Y-80488800D03*
X164239600Y-80488800D03*
%TD*%
D13*
%TO.P,SW3,1,A*%
%TO.N,GND*%
X154760000Y-75750000D03*
X161260000Y-75750000D03*
%TO.P,SW3,2,B*%
%TO.N,Net-(SW3-B)*%
X154760000Y-80250000D03*
X161260000Y-80250000D03*
%TD*%
%TO.P,SW2,1,A*%
%TO.N,GND*%
X134724000Y-75764000D03*
X141224000Y-75764000D03*
%TO.P,SW2,2,B*%
%TO.N,Net-(SW2-B)*%
X134724000Y-80264000D03*
X141224000Y-80264000D03*
%TD*%
D14*
%TO.P,Y1,1,1*%
%TO.N,GND*%
X147000000Y-56700000D03*
%TO.P,Y1,2,2*%
%TO.N,PA3*%
X147000000Y-58200000D03*
%TO.P,Y1,3,3*%
%TO.N,GND*%
X147000000Y-59700000D03*
%TD*%
D15*
%TO.P,U3,1,VOUT1*%
%TO.N,VOUT1*%
X145353000Y-65151000D03*
%TO.P,U3,2,INAN*%
%TO.N,Net-(U3-INAN)*%
X145353000Y-66421000D03*
%TO.P,U3,3,INAP*%
%TO.N,Net-(U3-INAP)*%
X145353000Y-67691000D03*
%TO.P,U3,4,GND*%
%TO.N,GND*%
X145353000Y-68961000D03*
%TO.P,U3,5,INBP*%
%TO.N,Net-(U3-INAP)*%
X150303000Y-68961000D03*
%TO.P,U3,6,INBN*%
%TO.N,Net-(U3-INBN)*%
X150303000Y-67691000D03*
%TO.P,U3,7,VOUT2*%
%TO.N,VOUT2*%
X150303000Y-66421000D03*
%TO.P,U3,8,VDD*%
%TO.N,+3.3V*%
X150303000Y-65151000D03*
%TD*%
D16*
%TO.P,J2,1,Pin_1*%
%TO.N,+3.3V*%
X150114000Y-54864000D03*
D17*
%TO.P,J2,2,Pin_2*%
%TO.N,GND*%
X150368000Y-57404000D03*
%TO.P,J2,3,Pin_3*%
%TO.N,UPDI*%
X150114000Y-59944000D03*
%TO.P,J2,4,Pin_4*%
%TO.N,PA3*%
X150368000Y-62484000D03*
%TD*%
D18*
%TO.P,R32,1*%
%TO.N,Net-(C14-Pad2)*%
X144780000Y-70612000D03*
%TO.P,R32,2*%
%TO.N,Net-(U3-INBN)*%
X146605000Y-70612000D03*
%TD*%
%TO.P,R31,1*%
%TO.N,Net-(U3-INBN)*%
X149201500Y-70612000D03*
%TO.P,R31,2*%
%TO.N,VOUT2*%
X151026500Y-70612000D03*
%TD*%
%TO.P,R30,1*%
%TO.N,Net-(C12-Pad2)*%
X140161000Y-63500000D03*
%TO.P,R30,2*%
%TO.N,Net-(U3-INAN)*%
X141986000Y-63500000D03*
%TD*%
%TO.P,R28,1*%
%TO.N,Net-(U3-INAN)*%
X144780000Y-63500000D03*
%TO.P,R28,2*%
%TO.N,VOUT1*%
X146605000Y-63500000D03*
%TD*%
D19*
%TO.P,R27,1*%
%TO.N,Net-(U3-INAP)*%
X141986000Y-65278000D03*
%TO.P,R27,2*%
%TO.N,GND*%
X140161000Y-65278000D03*
%TD*%
D18*
%TO.P,R26,2*%
%TO.N,Net-(U3-INAP)*%
X141986000Y-67056000D03*
%TO.P,R26,1*%
%TO.N,+3.3V*%
X140161000Y-67056000D03*
%TD*%
D20*
%TO.P,C15,1*%
%TO.N,+3.3V*%
X146505000Y-61722000D03*
%TO.P,C15,2*%
%TO.N,GND*%
X144780000Y-61722000D03*
%TD*%
D21*
%TO.P,C14,1*%
%TO.N,AUDIO_OUT*%
X135636000Y-68580000D03*
%TO.P,C14,2*%
%TO.N,Net-(C14-Pad2)*%
X137711000Y-68580000D03*
%TD*%
D22*
%TO.P,C13,1*%
%TO.N,VOUT2*%
X155702000Y-69662000D03*
%TO.P,C13,2*%
%TO.N,BC2*%
X155702000Y-64262000D03*
%TD*%
D21*
%TO.P,C12,1*%
%TO.N,AUDIO_OUT*%
X135636000Y-65532000D03*
%TO.P,C12,2*%
%TO.N,Net-(C12-Pad2)*%
X137711000Y-65532000D03*
%TD*%
D22*
%TO.P,C11,2*%
%TO.N,BC1*%
X163068000Y-64262000D03*
%TO.P,C11,1*%
%TO.N,VOUT1*%
X163068000Y-69662000D03*
%TD*%
D20*
%TO.P,C10,1*%
%TO.N,Net-(U3-INAP)*%
X141986000Y-68834000D03*
%TO.P,C10,2*%
%TO.N,GND*%
X140261000Y-68834000D03*
%TD*%
D23*
%TO.P,R22,1*%
%TO.N,Net-(J1-CC2)*%
X119000000Y-62675000D03*
%TO.P,R22,2*%
%TO.N,GND*%
X119000000Y-64500000D03*
%TD*%
D24*
%TO.P,R7,1*%
%TO.N,Net-(R6-Pad1)*%
X129000000Y-78550000D03*
%TO.P,R7,2*%
%TO.N,Net-(C2-Pad1)*%
X129000000Y-76725000D03*
%TD*%
%TO.P,R17,1*%
%TO.N,Net-(C1-Pad1)*%
X110500000Y-82425000D03*
%TO.P,R17,2*%
%TO.N,+3.3V*%
X110500000Y-80600000D03*
%TD*%
D18*
%TO.P,R19,1*%
%TO.N,Net-(C3-Pad1)*%
X131600000Y-68300000D03*
%TO.P,R19,2*%
%TO.N,+3.3V*%
X133425000Y-68300000D03*
%TD*%
%TO.P,R11,1*%
%TO.N,Net-(R11-Pad1)*%
X140208000Y-70612000D03*
%TO.P,R11,2*%
%TO.N,Net-(R10-Pad2)*%
X142033000Y-70612000D03*
%TD*%
D25*
%TO.P,C6,1*%
%TO.N,+3.3V*%
X139675000Y-55000000D03*
%TO.P,C6,2*%
%TO.N,GND*%
X141400000Y-55000000D03*
%TD*%
D16*
%TO.P,J3,1,Pin_1*%
%TO.N,SCL*%
X129000000Y-57200000D03*
D17*
%TO.P,J3,2,Pin_2*%
%TO.N,SDA*%
X129000000Y-59740000D03*
%TO.P,J3,3,Pin_3*%
%TO.N,+3.3V*%
X129000000Y-62280000D03*
%TO.P,J3,4,Pin_4*%
%TO.N,GND*%
X129000000Y-64820000D03*
%TD*%
D18*
%TO.P,R21,1*%
%TO.N,Net-(SW3-B)*%
X149098000Y-85090000D03*
%TO.P,R21,2*%
%TO.N,+3.3V*%
X150923000Y-85090000D03*
%TD*%
D25*
%TO.P,C3,1*%
%TO.N,Net-(C3-Pad1)*%
X127100000Y-68300000D03*
%TO.P,C3,2*%
%TO.N,GND*%
X128825000Y-68300000D03*
%TD*%
D18*
%TO.P,R1,1*%
%TO.N,GND*%
X123200000Y-66500000D03*
%TO.P,R1,2*%
%TO.N,Net-(R1-Pad2)*%
X125025000Y-66500000D03*
%TD*%
D26*
%TO.P,J1,A1,GND*%
%TO.N,GND*%
X115449800Y-57201200D03*
%TO.P,J1,A4,VBUS*%
%TO.N,+5V*%
X115449800Y-58001200D03*
D27*
%TO.P,J1,A5,CC1*%
%TO.N,Net-(J1-CC1)*%
X115449800Y-59151200D03*
%TO.P,J1,A6,D+*%
%TO.N,unconnected-(J1-D+-PadA6)*%
X115449800Y-60151200D03*
%TO.P,J1,A7,D-*%
%TO.N,unconnected-(J1-D--PadA7)*%
X115449800Y-60651200D03*
%TO.P,J1,A8,SBU1*%
%TO.N,unconnected-(J1-SBU1-PadA8)*%
X115449800Y-61651200D03*
D26*
%TO.P,J1,A9,VBUS*%
%TO.N,+5V*%
X115449800Y-62801200D03*
%TO.P,J1,A12,GND*%
%TO.N,GND*%
X115449800Y-63601200D03*
%TO.P,J1,B1,GND*%
X115449800Y-63601200D03*
%TO.P,J1,B4,VBUS*%
%TO.N,+5V*%
X115449800Y-62801200D03*
D27*
%TO.P,J1,B5,CC2*%
%TO.N,Net-(J1-CC2)*%
X115449800Y-62151200D03*
%TO.P,J1,B6,D+*%
%TO.N,unconnected-(J1-D+-PadB6)*%
X115449800Y-61151200D03*
%TO.P,J1,B7,D-*%
%TO.N,unconnected-(J1-D--PadB7)*%
X115449800Y-59651200D03*
%TO.P,J1,B8,SBU2*%
%TO.N,unconnected-(J1-SBU2-PadB8)*%
X115449800Y-58651200D03*
D26*
%TO.P,J1,B9,VBUS*%
%TO.N,+5V*%
X115449800Y-58001200D03*
%TO.P,J1,B12,GND*%
%TO.N,GND*%
X115449800Y-57201200D03*
D28*
%TO.P,J1,S1,SHIELD*%
X114869800Y-56081200D03*
D29*
X110699800Y-56081200D03*
D28*
X114869800Y-64721200D03*
D29*
X110699800Y-64721200D03*
%TD*%
D24*
%TO.P,R23,1*%
%TO.N,GND*%
X121000000Y-64500000D03*
%TO.P,R23,2*%
%TO.N,Net-(J1-CC1)*%
X121000000Y-62675000D03*
%TD*%
D23*
%TO.P,R25,1*%
%TO.N,SDA*%
X132700000Y-60375000D03*
%TO.P,R25,2*%
%TO.N,+3.3V*%
X132700000Y-62200000D03*
%TD*%
D24*
%TO.P,R15,1*%
%TO.N,Net-(R15-Pad1)*%
X149000000Y-82425000D03*
%TO.P,R15,2*%
%TO.N,Net-(SW3-B)*%
X149000000Y-80600000D03*
%TD*%
D23*
%TO.P,R20,1*%
%TO.N,Net-(SW2-B)*%
X149000000Y-72700000D03*
%TO.P,R20,2*%
%TO.N,+3.3V*%
X149000000Y-74525000D03*
%TD*%
D18*
%TO.P,R10,1*%
%TO.N,Net-(R10-Pad1)*%
X131600000Y-70400000D03*
%TO.P,R10,2*%
%TO.N,Net-(R10-Pad2)*%
X133425000Y-70400000D03*
%TD*%
D30*
%TO.P,C7,1*%
%TO.N,+5V*%
X118000000Y-58575000D03*
%TO.P,C7,2*%
%TO.N,GND*%
X118000000Y-56500000D03*
%TD*%
D31*
%TO.P,C8,1*%
%TO.N,+3.3V*%
X123500000Y-62500000D03*
%TO.P,C8,2*%
%TO.N,GND*%
X123500000Y-64575000D03*
%TD*%
D15*
%TO.P,U1,1,VCC*%
%TO.N,+3.3V*%
X137668000Y-56730000D03*
%TO.P,U1,2,PA6*%
%TO.N,AUDIO_OUT*%
X137668000Y-58000000D03*
%TO.P,U1,3,PA7*%
%TO.N,INPUTS*%
X137668000Y-59270000D03*
%TO.P,U1,4,PA1*%
%TO.N,SDA*%
X137668000Y-60540000D03*
%TO.P,U1,5,PA2*%
%TO.N,SCL*%
X142618000Y-60540000D03*
%TO.P,U1,6,~{RESET}/PA0*%
%TO.N,UPDI*%
X142618000Y-59270000D03*
%TO.P,U1,7,PA3*%
%TO.N,PA3*%
X142618000Y-58000000D03*
%TO.P,U1,8,GND*%
%TO.N,GND*%
X142618000Y-56730000D03*
%TD*%
D32*
%TO.P,C9,1*%
%TO.N,+5V*%
X120500000Y-58225000D03*
%TO.P,C9,2*%
%TO.N,GND*%
X120500000Y-56500000D03*
%TD*%
D24*
%TO.P,R14,1*%
%TO.N,INPUTS*%
X147000000Y-82425000D03*
%TO.P,R14,2*%
%TO.N,Net-(R11-Pad1)*%
X147000000Y-80600000D03*
%TD*%
D19*
%TO.P,R3,1*%
%TO.N,Net-(R2-Pad1)*%
X120700000Y-68300000D03*
%TO.P,R3,2*%
%TO.N,Net-(R3-Pad2)*%
X118875000Y-68300000D03*
%TD*%
D13*
%TO.P,SW1,S2,S2*%
%TO.N,Net-(C3-Pad1)*%
X116500000Y-70750000D03*
%TO.P,SW1,S1,S1*%
%TO.N,GND*%
X121500000Y-70750000D03*
D33*
%TO.P,SW1,MP*%
%TO.N,N/C*%
X124600000Y-77750000D03*
X113400000Y-77750000D03*
D13*
%TO.P,SW1,C,C*%
%TO.N,GND*%
X119000000Y-85250000D03*
%TO.P,SW1,B,B*%
%TO.N,Net-(C2-Pad1)*%
X121500000Y-85250000D03*
D34*
%TO.P,SW1,A,A*%
%TO.N,Net-(C1-Pad1)*%
X116500000Y-85250000D03*
%TD*%
D23*
%TO.P,R5,1*%
%TO.N,Net-(R2-Pad1)*%
X127000000Y-72700000D03*
%TO.P,R5,2*%
%TO.N,Net-(R5-Pad2)*%
X127000000Y-74525000D03*
%TD*%
%TO.P,R6,1*%
%TO.N,Net-(R6-Pad1)*%
X129000000Y-80600000D03*
%TO.P,R6,2*%
%TO.N,Net-(R5-Pad2)*%
X129000000Y-82425000D03*
%TD*%
%TO.P,R24,1*%
%TO.N,SCL*%
X134900000Y-60375000D03*
%TO.P,R24,2*%
%TO.N,+3.3V*%
X134900000Y-62200000D03*
%TD*%
D18*
%TO.P,R2,1*%
%TO.N,Net-(R2-Pad1)*%
X123175000Y-68300000D03*
%TO.P,R2,2*%
%TO.N,Net-(R1-Pad2)*%
X125000000Y-68300000D03*
%TD*%
D19*
%TO.P,R29,1*%
%TO.N,GND*%
X120700000Y-66500000D03*
%TO.P,R29,2*%
%TO.N,Net-(D1-K)*%
X118875000Y-66500000D03*
%TD*%
D35*
%TO.P,C1,1*%
%TO.N,Net-(C1-Pad1)*%
X110500000Y-76775000D03*
%TO.P,C1,2*%
%TO.N,GND*%
X110500000Y-78500000D03*
%TD*%
%TO.P,C2,1*%
%TO.N,Net-(C2-Pad1)*%
X127100000Y-76775000D03*
%TO.P,C2,2*%
%TO.N,GND*%
X127100000Y-78500000D03*
%TD*%
D36*
%TO.P,D1,1,K*%
%TO.N,Net-(D1-K)*%
X109300000Y-67300000D03*
%TO.P,D1,2,A*%
%TO.N,+3.3V*%
X109300000Y-69050000D03*
%TD*%
D20*
%TO.P,C5,1*%
%TO.N,Net-(SW3-B)*%
X146812000Y-85090000D03*
%TO.P,C5,2*%
%TO.N,GND*%
X145087000Y-85090000D03*
%TD*%
D37*
%TO.P,U2,1,GND*%
%TO.N,GND*%
X122550000Y-56500000D03*
D38*
%TO.P,U2,2,VI*%
%TO.N,+5V*%
X122637500Y-58000000D03*
D37*
%TO.P,U2,3,VO*%
%TO.N,+3.3V*%
X122550000Y-59500000D03*
%TD*%
D24*
%TO.P,R4,1*%
%TO.N,Net-(C1-Pad1)*%
X110500000Y-74525000D03*
%TO.P,R4,2*%
%TO.N,Net-(R3-Pad2)*%
X110500000Y-72700000D03*
%TD*%
%TO.P,R18,1*%
%TO.N,Net-(C2-Pad1)*%
X127100000Y-82425000D03*
%TO.P,R18,2*%
%TO.N,+3.3V*%
X127100000Y-80600000D03*
%TD*%
%TO.P,R16,1*%
%TO.N,Net-(R15-Pad1)*%
X149000000Y-78550000D03*
%TO.P,R16,2*%
%TO.N,INPUTS*%
X149000000Y-76725000D03*
%TD*%
D23*
%TO.P,R13,1*%
%TO.N,Net-(R12-Pad1)*%
X147000000Y-76725000D03*
%TO.P,R13,2*%
%TO.N,Net-(R11-Pad1)*%
X147000000Y-78550000D03*
%TD*%
D25*
%TO.P,C4,1*%
%TO.N,Net-(SW2-B)*%
X135890000Y-70612000D03*
%TO.P,C4,2*%
%TO.N,GND*%
X137615000Y-70612000D03*
%TD*%
D19*
%TO.P,R9,1*%
%TO.N,Net-(R10-Pad1)*%
X128912500Y-70400000D03*
%TO.P,R9,2*%
%TO.N,Net-(C3-Pad1)*%
X127087500Y-70400000D03*
%TD*%
D23*
%TO.P,R8,1*%
%TO.N,Net-(R10-Pad2)*%
X129000000Y-72700000D03*
%TO.P,R8,2*%
%TO.N,Net-(R5-Pad2)*%
X129000000Y-74525000D03*
%TD*%
D24*
%TO.P,R12,1*%
%TO.N,Net-(R12-Pad1)*%
X147000000Y-74525000D03*
%TO.P,R12,2*%
%TO.N,Net-(SW2-B)*%
X147000000Y-72700000D03*
%TD*%
D39*
%TO.N,+5V*%
X116941600Y-57505600D03*
X116941600Y-62788800D03*
%TO.N,GND*%
X142748000Y-61976000D03*
%TO.N,AUDIO_OUT*%
X134620000Y-69342000D03*
%TO.N,+3.3V*%
X148082000Y-75438000D03*
X152146000Y-85090000D03*
%TO.N,GND*%
X145034000Y-83312000D03*
X138938000Y-69850000D03*
%TO.N,+3.3V*%
X153162000Y-64262000D03*
%TO.N,UPDI*%
X140716000Y-59182000D03*
%TO.N,INPUTS*%
X139192000Y-59182000D03*
%TO.N,GND*%
X139192000Y-65278000D03*
%TO.N,AUDIO_OUT*%
X135636000Y-64008000D03*
%TO.N,Net-(C14-Pad2)*%
X143510000Y-70612000D03*
X138938000Y-68580000D03*
%TO.N,Net-(R11-Pad1)*%
X145288000Y-72390000D03*
%TO.N,GND*%
X147320000Y-69342000D03*
%TO.N,Net-(U3-INBN)*%
X148082000Y-70612000D03*
X148082000Y-67564000D03*
%TO.N,VOUT2*%
X150876000Y-72390000D03*
X155702000Y-72390000D03*
X148336000Y-66548000D03*
%TO.N,VOUT1*%
X161036000Y-69596000D03*
X147320000Y-65278000D03*
%TO.N,GND*%
X130200000Y-68300000D03*
%TO.N,Net-(C2-Pad1)*%
X126099502Y-76800000D03*
X125900000Y-82400000D03*
%TO.N,Net-(C3-Pad1)*%
X124000000Y-69500000D03*
X131200000Y-67100000D03*
X127100000Y-67200000D03*
%TO.N,+3.3V*%
X116400000Y-82500000D03*
X134300000Y-56700000D03*
X109300000Y-70500000D03*
X124300000Y-82500000D03*
X138400000Y-55000000D03*
%TO.N,AUDIO_OUT*%
X136100000Y-58000000D03*
%TO.N,Net-(R5-Pad2)*%
X129000000Y-75500000D03*
X129000000Y-83600000D03*
%TO.N,Net-(R10-Pad2)*%
X142400000Y-71700000D03*
X133425000Y-71675000D03*
%TO.N,Net-(R11-Pad1)*%
X145500000Y-78700000D03*
%TO.N,INPUTS*%
X147000000Y-83600000D03*
X150400000Y-77500000D03*
%TO.N,Net-(R15-Pad1)*%
X150400000Y-78500000D03*
X149000000Y-83600000D03*
%TO.N,SDA*%
X132700000Y-59100000D03*
X139600000Y-60600000D03*
%TD*%
D40*
%TO.N,+5V*%
X118000000Y-58575000D02*
X117503000Y-58575000D01*
X116687600Y-57759600D02*
X116941600Y-57505600D01*
X117503000Y-58575000D02*
X116687600Y-57759600D01*
X116446000Y-58001200D02*
X116687600Y-57759600D01*
X115449800Y-58001200D02*
X116446000Y-58001200D01*
X116929200Y-62801200D02*
X116941600Y-62788800D01*
X115449800Y-62801200D02*
X116929200Y-62801200D01*
D41*
%TO.N,GND*%
X115392400Y-64143200D02*
X114812400Y-64723200D01*
X115392400Y-63603200D02*
X115392400Y-64143200D01*
%TO.N,Net-(J1-CC2)*%
X118478200Y-62153200D02*
X119000000Y-62675000D01*
X115392400Y-62153200D02*
X118478200Y-62153200D01*
%TO.N,Net-(J1-CC1)*%
X119500000Y-60100000D02*
X121000000Y-61600000D01*
X116738400Y-59791600D02*
X117046800Y-60100000D01*
X121000000Y-61600000D02*
X121000000Y-62675000D01*
X116557200Y-59153200D02*
X116738400Y-59334400D01*
X115392400Y-59153200D02*
X116557200Y-59153200D01*
X116738400Y-59334400D02*
X116738400Y-59791600D01*
X117046800Y-60100000D02*
X119500000Y-60100000D01*
D40*
%TO.N,+5V*%
X120150000Y-58575000D02*
X120500000Y-58225000D01*
X118000000Y-58575000D02*
X120150000Y-58575000D01*
D41*
%TO.N,GND*%
X143002000Y-61722000D02*
X142748000Y-61976000D01*
X144780000Y-61722000D02*
X143002000Y-61722000D01*
X145532000Y-59700000D02*
X147000000Y-59700000D01*
X144780000Y-61722000D02*
X144780000Y-60452000D01*
X144780000Y-60452000D02*
X145532000Y-59700000D01*
%TO.N,Net-(U3-INAN)*%
X144780000Y-63500000D02*
X143510000Y-63500000D01*
D40*
%TO.N,+3.3V*%
X153162000Y-73152000D02*
X153162000Y-66040000D01*
X153162000Y-66040000D02*
X152273000Y-65151000D01*
X150114000Y-73660000D02*
X152654000Y-73660000D01*
X152654000Y-73660000D02*
X153162000Y-73152000D01*
X149249000Y-74525000D02*
X150114000Y-73660000D01*
X149000000Y-74525000D02*
X149249000Y-74525000D01*
D41*
%TO.N,AUDIO_OUT*%
X135382000Y-68580000D02*
X134620000Y-69342000D01*
X135636000Y-68580000D02*
X135382000Y-68580000D01*
D40*
%TO.N,+3.3V*%
X148995000Y-74525000D02*
X148082000Y-75438000D01*
X149000000Y-74525000D02*
X148995000Y-74525000D01*
X150923000Y-85090000D02*
X152146000Y-85090000D01*
D41*
%TO.N,Net-(SW3-B)*%
X151760000Y-82428000D02*
X151760000Y-80500000D01*
X149098000Y-85090000D02*
X151760000Y-82428000D01*
X146812000Y-85090000D02*
X149098000Y-85090000D01*
%TO.N,Net-(R10-Pad2)*%
X142033000Y-70612000D02*
X142033000Y-71333000D01*
X142033000Y-71333000D02*
X142400000Y-71700000D01*
%TO.N,Net-(R11-Pad1)*%
X140462000Y-72390000D02*
X141478000Y-72390000D01*
X140208000Y-72136000D02*
X140462000Y-72390000D01*
X140208000Y-70612000D02*
X140208000Y-72136000D01*
%TO.N,Net-(C14-Pad2)*%
X143510000Y-70612000D02*
X143764000Y-70612000D01*
X143764000Y-70612000D02*
X144780000Y-70612000D01*
%TO.N,GND*%
X145087000Y-83365000D02*
X145034000Y-83312000D01*
X145087000Y-85090000D02*
X145087000Y-83365000D01*
X139954000Y-68834000D02*
X138938000Y-69850000D01*
X140261000Y-68834000D02*
X139954000Y-68834000D01*
X138938000Y-70358000D02*
X138938000Y-69850000D01*
X138684000Y-70612000D02*
X138938000Y-70358000D01*
X138430000Y-70612000D02*
X138684000Y-70612000D01*
D40*
%TO.N,VOUT1*%
X146605000Y-64944000D02*
X146812000Y-65151000D01*
X146812000Y-65151000D02*
X147193000Y-65151000D01*
X145353000Y-65151000D02*
X146812000Y-65151000D01*
X146605000Y-63500000D02*
X146605000Y-64944000D01*
%TO.N,+3.3V*%
X152273000Y-65151000D02*
X153162000Y-64262000D01*
X150303000Y-65151000D02*
X152273000Y-65151000D01*
X147828000Y-63754000D02*
X149225000Y-65151000D01*
X149225000Y-65151000D02*
X150303000Y-65151000D01*
X147828000Y-61976000D02*
X147828000Y-63754000D01*
X147574000Y-61722000D02*
X147828000Y-61976000D01*
X146505000Y-61722000D02*
X147574000Y-61722000D01*
D41*
%TO.N,SCL*%
X135559000Y-60375000D02*
X135890000Y-60706000D01*
X134900000Y-60375000D02*
X135559000Y-60375000D01*
X135890000Y-60706000D02*
X135890000Y-61214000D01*
X141660000Y-60540000D02*
X143000000Y-60540000D01*
X136376000Y-61700000D02*
X140500000Y-61700000D01*
X135890000Y-61214000D02*
X136376000Y-61700000D01*
X140500000Y-61700000D02*
X141660000Y-60540000D01*
%TO.N,UPDI*%
X140804000Y-59270000D02*
X140716000Y-59182000D01*
X142618000Y-59270000D02*
X140804000Y-59270000D01*
%TO.N,INPUTS*%
X139104000Y-59270000D02*
X139192000Y-59182000D01*
X137668000Y-59270000D02*
X139104000Y-59270000D01*
D40*
%TO.N,+3.3V*%
X134330000Y-56730000D02*
X134300000Y-56700000D01*
X137668000Y-56730000D02*
X134330000Y-56730000D01*
X137668000Y-56730000D02*
X139070000Y-56730000D01*
D41*
%TO.N,PA3*%
X148625000Y-58455000D02*
X148625000Y-62265000D01*
X148625000Y-62265000D02*
X148844000Y-62484000D01*
X148370000Y-58200000D02*
X148625000Y-58455000D01*
X147000000Y-58200000D02*
X148370000Y-58200000D01*
X148844000Y-62484000D02*
X150368000Y-62484000D01*
%TO.N,GND*%
X140161000Y-65278000D02*
X139192000Y-65278000D01*
%TO.N,AUDIO_OUT*%
X135636000Y-65532000D02*
X135636000Y-64008000D01*
%TO.N,GND*%
X138430000Y-70612000D02*
X137615000Y-70612000D01*
%TO.N,Net-(SW2-B)*%
X136652000Y-73152000D02*
X138938000Y-73152000D01*
X135890000Y-72390000D02*
X136652000Y-73152000D01*
X135890000Y-70612000D02*
X135890000Y-72390000D01*
%TO.N,Net-(C14-Pad2)*%
X137711000Y-68580000D02*
X138938000Y-68580000D01*
%TO.N,Net-(SW2-B)*%
X138900000Y-79700000D02*
X138900000Y-73190000D01*
X138900000Y-73190000D02*
X138938000Y-73152000D01*
X139450000Y-80250000D02*
X138900000Y-79700000D01*
X141250000Y-80250000D02*
X139450000Y-80250000D01*
X138938000Y-73152000D02*
X146548000Y-73152000D01*
X146548000Y-73152000D02*
X147000000Y-72700000D01*
D40*
%TO.N,+3.3V*%
X140161000Y-67056000D02*
X133425000Y-67056000D01*
X133425000Y-67056000D02*
X133425000Y-62925000D01*
X133425000Y-68300000D02*
X133425000Y-67056000D01*
X133425000Y-62925000D02*
X132700000Y-62200000D01*
D41*
%TO.N,Net-(C12-Pad2)*%
X138430000Y-63500000D02*
X137711000Y-64219000D01*
X140161000Y-63500000D02*
X138430000Y-63500000D01*
X137711000Y-64219000D02*
X137711000Y-65532000D01*
%TO.N,Net-(U3-INAN)*%
X144145000Y-66421000D02*
X143510000Y-65786000D01*
X141986000Y-63500000D02*
X143510000Y-63500000D01*
X143510000Y-65786000D02*
X143510000Y-63500000D01*
%TO.N,Net-(U3-INAP)*%
X142240000Y-67056000D02*
X141986000Y-67056000D01*
X142875000Y-67691000D02*
X142240000Y-67056000D01*
X141986000Y-68834000D02*
X141986000Y-67056000D01*
X141986000Y-65278000D02*
X141986000Y-67056000D01*
%TO.N,Net-(R11-Pad1)*%
X141478000Y-72390000D02*
X145288000Y-72390000D01*
%TO.N,Net-(U3-INAP)*%
X145353000Y-67691000D02*
X142875000Y-67691000D01*
%TO.N,Net-(U3-INAN)*%
X145353000Y-66421000D02*
X144145000Y-66421000D01*
%TO.N,GND*%
X146939000Y-68961000D02*
X147320000Y-69342000D01*
X145353000Y-68961000D02*
X146939000Y-68961000D01*
%TO.N,Net-(U3-INAP)*%
X147955000Y-68961000D02*
X150303000Y-68961000D01*
X146685000Y-67691000D02*
X147955000Y-68961000D01*
X145353000Y-67691000D02*
X146685000Y-67691000D01*
%TO.N,Net-(U3-INBN)*%
X148082000Y-70612000D02*
X149201500Y-70612000D01*
X146605000Y-70612000D02*
X148082000Y-70612000D01*
X148209000Y-67691000D02*
X148082000Y-67564000D01*
X150303000Y-67691000D02*
X148209000Y-67691000D01*
D40*
%TO.N,VOUT2*%
X151026500Y-72239500D02*
X150876000Y-72390000D01*
X151026500Y-70612000D02*
X151026500Y-72239500D01*
X155702000Y-72390000D02*
X155702000Y-69662000D01*
X148463000Y-66421000D02*
X148336000Y-66548000D01*
X150303000Y-66421000D02*
X148463000Y-66421000D01*
%TO.N,VOUT1*%
X163002000Y-69596000D02*
X163068000Y-69662000D01*
X161036000Y-69596000D02*
X163002000Y-69596000D01*
X147193000Y-65151000D02*
X147320000Y-65278000D01*
%TO.N,BC1*%
X159956000Y-61150000D02*
X163068000Y-64262000D01*
X159956000Y-59690000D02*
X159956000Y-61150000D01*
%TO.N,BC2*%
X155702000Y-59944000D02*
X155956000Y-59690000D01*
X155702000Y-64262000D02*
X155702000Y-59944000D01*
D41*
%TO.N,Net-(C1-Pad1)*%
X116500000Y-85250000D02*
X112150000Y-85250000D01*
X109625000Y-82425000D02*
X109100000Y-81900000D01*
X109325000Y-76775000D02*
X109100000Y-77000000D01*
X110500000Y-83600000D02*
X110500000Y-82425000D01*
X110500000Y-82425000D02*
X109625000Y-82425000D01*
X112150000Y-85250000D02*
X110500000Y-83600000D01*
X110500000Y-76775000D02*
X110500000Y-74525000D01*
X110500000Y-76775000D02*
X109325000Y-76775000D01*
X109100000Y-77000000D02*
X109100000Y-81400000D01*
X109100000Y-81900000D02*
X109100000Y-81400000D01*
%TO.N,GND*%
X121000000Y-64500000D02*
X123425000Y-64500000D01*
X128825000Y-68300000D02*
X129000000Y-68125000D01*
X151838000Y-75438000D02*
X154578000Y-75438000D01*
X120900000Y-64600000D02*
X121000000Y-64500000D01*
X119850000Y-80950000D02*
X118200000Y-82600000D01*
X121500000Y-80850000D02*
X121400000Y-80950000D01*
X120500000Y-56500000D02*
X122550000Y-56500000D01*
X125341116Y-79975000D02*
X124366116Y-80950000D01*
X119000000Y-83400000D02*
X119000000Y-85250000D01*
X154500000Y-75500000D02*
X154750000Y-75750000D01*
X127100000Y-78500000D02*
X125625000Y-79975000D01*
X144010000Y-75750000D02*
X144260000Y-75500000D01*
X120900000Y-66300000D02*
X120900000Y-64600000D01*
X118200000Y-82600000D02*
X119000000Y-83400000D01*
X123500000Y-64575000D02*
X123745000Y-64820000D01*
X121400000Y-80950000D02*
X119850000Y-80950000D01*
X118000000Y-56500000D02*
X120500000Y-56500000D01*
X120700000Y-66500000D02*
X120900000Y-66300000D01*
X119000000Y-64500000D02*
X121000000Y-64500000D01*
X129000000Y-68125000D02*
X129000000Y-64820000D01*
X119000000Y-64500000D02*
X118880000Y-64620000D01*
X134500000Y-75500000D02*
X134750000Y-75750000D01*
X164010000Y-75750000D02*
X164260000Y-75500000D01*
X124366116Y-80950000D02*
X121400000Y-80950000D01*
X113400000Y-81400000D02*
X117000000Y-81400000D01*
X141250000Y-75750000D02*
X144010000Y-75750000D01*
X123745000Y-64820000D02*
X129000000Y-64820000D01*
X161250000Y-75750000D02*
X164010000Y-75750000D01*
X131760000Y-75500000D02*
X134500000Y-75500000D01*
X130200000Y-68300000D02*
X128825000Y-68300000D01*
X125625000Y-79975000D02*
X125341116Y-79975000D01*
X123425000Y-64500000D02*
X123500000Y-64575000D01*
X120700000Y-66500000D02*
X123200000Y-66500000D01*
X121500000Y-70750000D02*
X121500000Y-80850000D01*
X117000000Y-81400000D02*
X118200000Y-82600000D01*
%TO.N,Net-(C2-Pad1)*%
X126099502Y-76800000D02*
X127075000Y-76800000D01*
X127100000Y-83700000D02*
X127100000Y-82900000D01*
X121500000Y-85250000D02*
X125550000Y-85250000D01*
X127100000Y-76775000D02*
X128950000Y-76775000D01*
X127100000Y-82425000D02*
X125925000Y-82425000D01*
X129000000Y-76725000D02*
X128950000Y-76775000D01*
X127075000Y-76800000D02*
X127100000Y-76775000D01*
X125925000Y-82425000D02*
X125900000Y-82400000D01*
X125550000Y-85250000D02*
X127100000Y-83700000D01*
%TO.N,Net-(C3-Pad1)*%
X127100000Y-68300000D02*
X127100000Y-69600000D01*
X127000000Y-69500000D02*
X127100000Y-69600000D01*
X124000000Y-69500000D02*
X127000000Y-69500000D01*
X131600000Y-67500000D02*
X131200000Y-67100000D01*
X127100000Y-69600000D02*
X127100000Y-70387500D01*
X127100000Y-67200000D02*
X127100000Y-68300000D01*
X131600000Y-68300000D02*
X131600000Y-67500000D01*
X127100000Y-70387500D02*
X127087500Y-70400000D01*
%TO.N,Net-(SW2-B)*%
X134750000Y-80250000D02*
X141250000Y-80250000D01*
X141250000Y-80250000D02*
X144010000Y-80250000D01*
X134500000Y-80500000D02*
X134750000Y-80250000D01*
X149000000Y-72700000D02*
X147000000Y-72700000D01*
X144010000Y-80250000D02*
X144260000Y-80500000D01*
X131760000Y-80500000D02*
X134500000Y-80500000D01*
%TO.N,Net-(SW3-B)*%
X154500000Y-80500000D02*
X154750000Y-80250000D01*
X164010000Y-80250000D02*
X164260000Y-80500000D01*
X149000000Y-80600000D02*
X149100000Y-80500000D01*
X154750000Y-80250000D02*
X161250000Y-80250000D01*
X149100000Y-80500000D02*
X151760000Y-80500000D01*
X151760000Y-80500000D02*
X154500000Y-80500000D01*
X161250000Y-80250000D02*
X164010000Y-80250000D01*
D40*
%TO.N,+3.3V*%
X132700000Y-62200000D02*
X129080000Y-62200000D01*
X122550000Y-59500000D02*
X122550000Y-61550000D01*
X111800000Y-81000000D02*
X111400000Y-80600000D01*
X127100000Y-80600000D02*
X125600000Y-80600000D01*
X111800000Y-82000000D02*
X111800000Y-81000000D01*
X111400000Y-80600000D02*
X110500000Y-80600000D01*
X116400000Y-82500000D02*
X112300000Y-82500000D01*
X125600000Y-80600000D02*
X124300000Y-81900000D01*
X129080000Y-62200000D02*
X129000000Y-62280000D01*
X138400000Y-55000000D02*
X139675000Y-55000000D01*
X109300000Y-70500000D02*
X109300000Y-69050000D01*
X123500000Y-62500000D02*
X128780000Y-62500000D01*
X122550000Y-61550000D02*
X123500000Y-62500000D01*
X132700000Y-62200000D02*
X134900000Y-62200000D01*
X124300000Y-81900000D02*
X124300000Y-82500000D01*
X139675000Y-56125000D02*
X139675000Y-55000000D01*
X112300000Y-82500000D02*
X111800000Y-82000000D01*
X128780000Y-62500000D02*
X129000000Y-62280000D01*
X139070000Y-56730000D02*
X139675000Y-56125000D01*
%TO.N,+5V*%
X122637500Y-58000000D02*
X120725000Y-58000000D01*
X120725000Y-58000000D02*
X120500000Y-58225000D01*
D41*
%TO.N,AUDIO_OUT*%
X138050000Y-58000000D02*
X136100000Y-58000000D01*
%TO.N,Net-(R1-Pad2)*%
X125000000Y-68300000D02*
X125000000Y-66525000D01*
X125000000Y-66525000D02*
X125025000Y-66500000D01*
%TO.N,Net-(R2-Pad1)*%
X123175000Y-70875000D02*
X123175000Y-68300000D01*
X127000000Y-72700000D02*
X125000000Y-72700000D01*
X125000000Y-72700000D02*
X123175000Y-70875000D01*
X120700000Y-68300000D02*
X123175000Y-68300000D01*
%TO.N,Net-(R3-Pad2)*%
X112300000Y-72700000D02*
X110500000Y-72700000D01*
X118875000Y-68300000D02*
X116700000Y-68300000D01*
X116700000Y-68300000D02*
X112300000Y-72700000D01*
%TO.N,Net-(R5-Pad2)*%
X129000000Y-82425000D02*
X129000000Y-83600000D01*
X127000000Y-74525000D02*
X129000000Y-74525000D01*
X129000000Y-75500000D02*
X129000000Y-74525000D01*
%TO.N,Net-(R6-Pad1)*%
X129000000Y-78550000D02*
X129000000Y-80600000D01*
%TO.N,Net-(R10-Pad2)*%
X132400000Y-72700000D02*
X133425000Y-71675000D01*
X133425000Y-71675000D02*
X133425000Y-70400000D01*
X129000000Y-72700000D02*
X132400000Y-72700000D01*
%TO.N,Net-(R10-Pad1)*%
X128912500Y-70400000D02*
X131600000Y-70400000D01*
%TO.N,Net-(R11-Pad1)*%
X147000000Y-80600000D02*
X147000000Y-78550000D01*
X146850000Y-78700000D02*
X147000000Y-78550000D01*
X145500000Y-78700000D02*
X146850000Y-78700000D01*
%TO.N,Net-(R12-Pad1)*%
X147000000Y-74525000D02*
X147000000Y-76725000D01*
%TO.N,INPUTS*%
X149775000Y-77500000D02*
X149000000Y-76725000D01*
X150400000Y-77500000D02*
X149775000Y-77500000D01*
X147000000Y-82425000D02*
X147000000Y-83600000D01*
%TO.N,Net-(R15-Pad1)*%
X150400000Y-78500000D02*
X149050000Y-78500000D01*
X149050000Y-78500000D02*
X149000000Y-78550000D01*
X149000000Y-82425000D02*
X149000000Y-83600000D01*
%TO.N,SCL*%
X134900000Y-59000000D02*
X134900000Y-60375000D01*
X133100000Y-57200000D02*
X134900000Y-59000000D01*
X129000000Y-57200000D02*
X133100000Y-57200000D01*
%TO.N,SDA*%
X138110000Y-60600000D02*
X138050000Y-60540000D01*
X132700000Y-60375000D02*
X132700000Y-59100000D01*
X129000000Y-59740000D02*
X132065000Y-59740000D01*
X132065000Y-59740000D02*
X132700000Y-60375000D01*
X139600000Y-60600000D02*
X138110000Y-60600000D01*
%TO.N,PA3*%
X144500000Y-58000000D02*
X144700000Y-58200000D01*
X143000000Y-58000000D02*
X144500000Y-58000000D01*
X144700000Y-58200000D02*
X147000000Y-58200000D01*
%TO.N,Net-(D1-K)*%
X118875000Y-66375000D02*
X118300000Y-65800000D01*
X118875000Y-66500000D02*
X118875000Y-66375000D01*
X109300000Y-66700000D02*
X109300000Y-67300000D01*
X110200000Y-65800000D02*
X109300000Y-66700000D01*
X118300000Y-65800000D02*
X110200000Y-65800000D01*
%TD*%
%TA.AperFunction,Conductor*%
%TO.N,GND*%
G36*
X119602470Y-85499363D02*
G01*
X119608949Y-85505396D01*
X120232625Y-86129073D01*
X120266111Y-86135244D01*
X120307122Y-86171949D01*
X120308683Y-86170735D01*
X120311830Y-86174778D01*
X120311834Y-86174782D01*
X120311836Y-86174785D01*
X120419296Y-86291518D01*
X120450218Y-86354171D01*
X120442358Y-86423598D01*
X120398211Y-86477753D01*
X120331793Y-86499444D01*
X120328066Y-86499500D01*
X119947309Y-86499500D01*
X119880270Y-86479815D01*
X119859628Y-86463181D01*
X119259116Y-85862669D01*
X119225631Y-85801346D01*
X119230615Y-85731654D01*
X119267641Y-85682193D01*
X119266398Y-85680759D01*
X119273100Y-85674952D01*
X119381761Y-85580798D01*
X119416952Y-85526038D01*
X119469755Y-85480283D01*
X119538914Y-85470339D01*
X119602470Y-85499363D01*
G37*
%TD.AperFunction*%
%TA.AperFunction,Conductor*%
G36*
X166467948Y-80603364D02*
G01*
X166497951Y-80666464D01*
X166499500Y-80686004D01*
X166499500Y-83998122D01*
X166499387Y-84001867D01*
X166481502Y-84297534D01*
X166480598Y-84304973D01*
X166427543Y-84594483D01*
X166425750Y-84601759D01*
X166338192Y-84882745D01*
X166335534Y-84889751D01*
X166214737Y-85158153D01*
X166211254Y-85164788D01*
X166058989Y-85416665D01*
X166054733Y-85422833D01*
X165873215Y-85654523D01*
X165868246Y-85660132D01*
X165660132Y-85868246D01*
X165654523Y-85873215D01*
X165422833Y-86054733D01*
X165416665Y-86058989D01*
X165164788Y-86211254D01*
X165158153Y-86214737D01*
X164889751Y-86335534D01*
X164882749Y-86338190D01*
X164831466Y-86354171D01*
X164601759Y-86425750D01*
X164594483Y-86427543D01*
X164304973Y-86480598D01*
X164297534Y-86481502D01*
X164001867Y-86499387D01*
X163998122Y-86499500D01*
X122671934Y-86499500D01*
X122604895Y-86479815D01*
X122559140Y-86427011D01*
X122549196Y-86357853D01*
X122578221Y-86294297D01*
X122580681Y-86291542D01*
X122688164Y-86174785D01*
X122824173Y-85966607D01*
X122824175Y-85966603D01*
X122831595Y-85949689D01*
X122876551Y-85896203D01*
X122943287Y-85875514D01*
X122945150Y-85875500D01*
X125467257Y-85875500D01*
X125482877Y-85877224D01*
X125482904Y-85876939D01*
X125490660Y-85877671D01*
X125490667Y-85877673D01*
X125559814Y-85875500D01*
X125589350Y-85875500D01*
X125596228Y-85874630D01*
X125602041Y-85874172D01*
X125648627Y-85872709D01*
X125667869Y-85867117D01*
X125686912Y-85863174D01*
X125706792Y-85860664D01*
X125750122Y-85843507D01*
X125755646Y-85841617D01*
X125759396Y-85840527D01*
X125800390Y-85828618D01*
X125817629Y-85818422D01*
X125835103Y-85809862D01*
X125853727Y-85802488D01*
X125853727Y-85802487D01*
X125853732Y-85802486D01*
X125891449Y-85775082D01*
X125896305Y-85771892D01*
X125936420Y-85748170D01*
X125950589Y-85733999D01*
X125965379Y-85721368D01*
X125981587Y-85709594D01*
X126011299Y-85673676D01*
X126015212Y-85669376D01*
X126344588Y-85340000D01*
X144049501Y-85340000D01*
X144049501Y-85376654D01*
X144059819Y-85477652D01*
X144114046Y-85641300D01*
X144114051Y-85641311D01*
X144204552Y-85788034D01*
X144204555Y-85788038D01*
X144326461Y-85909944D01*
X144326465Y-85909947D01*
X144473188Y-86000448D01*
X144473199Y-86000453D01*
X144636847Y-86054680D01*
X144737851Y-86064999D01*
X144837000Y-86064998D01*
X144837000Y-85340000D01*
X144049501Y-85340000D01*
X126344588Y-85340000D01*
X126844589Y-84840000D01*
X144049500Y-84840000D01*
X144837000Y-84840000D01*
X144837000Y-84114999D01*
X144737860Y-84115000D01*
X144737844Y-84115001D01*
X144636847Y-84125319D01*
X144473199Y-84179546D01*
X144473188Y-84179551D01*
X144326465Y-84270052D01*
X144326461Y-84270055D01*
X144204555Y-84391961D01*
X144204552Y-84391965D01*
X144114051Y-84538688D01*
X144114046Y-84538699D01*
X144059819Y-84702347D01*
X144049500Y-84803345D01*
X144049500Y-84840000D01*
X126844589Y-84840000D01*
X127483787Y-84200802D01*
X127496042Y-84190986D01*
X127495859Y-84190764D01*
X127501866Y-84185792D01*
X127501877Y-84185786D01*
X127532775Y-84152882D01*
X127549227Y-84135364D01*
X127559671Y-84124918D01*
X127570120Y-84114471D01*
X127574379Y-84108978D01*
X127578152Y-84104561D01*
X127610062Y-84070582D01*
X127619715Y-84053020D01*
X127630389Y-84036770D01*
X127642673Y-84020936D01*
X127661180Y-83978167D01*
X127663749Y-83972924D01*
X127676614Y-83949523D01*
X127686197Y-83932092D01*
X127691177Y-83912691D01*
X127697478Y-83894288D01*
X127705438Y-83875896D01*
X127712730Y-83829849D01*
X127713911Y-83824152D01*
X127718519Y-83806206D01*
X127725500Y-83779019D01*
X127725500Y-83758982D01*
X127727027Y-83739582D01*
X127728983Y-83727233D01*
X127730160Y-83719804D01*
X127725775Y-83673415D01*
X127725500Y-83667577D01*
X127725500Y-83371981D01*
X127745185Y-83304942D01*
X127784404Y-83266442D01*
X127785295Y-83265892D01*
X127798350Y-83257840D01*
X127920340Y-83135850D01*
X127944463Y-83096741D01*
X127996405Y-83050019D01*
X128065368Y-83038795D01*
X128129451Y-83066637D01*
X128155537Y-83096741D01*
X128179659Y-83135849D01*
X128224321Y-83180511D01*
X128257806Y-83241834D01*
X128253681Y-83309147D01*
X128214633Y-83420737D01*
X128214630Y-83420750D01*
X128194435Y-83599996D01*
X128194435Y-83600003D01*
X128214630Y-83779249D01*
X128214631Y-83779254D01*
X128274211Y-83949523D01*
X128350278Y-84070582D01*
X128370184Y-84102262D01*
X128497738Y-84229816D01*
X128561149Y-84269660D01*
X128649567Y-84325217D01*
X128650478Y-84325789D01*
X128782410Y-84371954D01*
X128820745Y-84385368D01*
X128820750Y-84385369D01*
X128999996Y-84405565D01*
X129000000Y-84405565D01*
X129000004Y-84405565D01*
X129179249Y-84385369D01*
X129179252Y-84385368D01*
X129179255Y-84385368D01*
X129349522Y-84325789D01*
X129502262Y-84229816D01*
X129629816Y-84102262D01*
X129725789Y-83949522D01*
X129785368Y-83779255D01*
X129787899Y-83756791D01*
X129805565Y-83600003D01*
X129805565Y-83599996D01*
X129785369Y-83420750D01*
X129785367Y-83420740D01*
X129757432Y-83340908D01*
X129746317Y-83309146D01*
X129742755Y-83239369D01*
X129775679Y-83180510D01*
X129820340Y-83135850D01*
X129910908Y-82989016D01*
X129965174Y-82825253D01*
X129975500Y-82724177D01*
X129975499Y-82125824D01*
X129974653Y-82117546D01*
X129965174Y-82024747D01*
X129950000Y-81978955D01*
X129910908Y-81860984D01*
X129820340Y-81714150D01*
X129706370Y-81600181D01*
X129672886Y-81538858D01*
X129677870Y-81469166D01*
X129706368Y-81424821D01*
X129794117Y-81337072D01*
X129855436Y-81303590D01*
X129925128Y-81308574D01*
X129974878Y-81342832D01*
X130132275Y-81521669D01*
X130132279Y-81521673D01*
X130321070Y-81674111D01*
X130532909Y-81792452D01*
X130532912Y-81792453D01*
X130761707Y-81873291D01*
X130761713Y-81873292D01*
X131000862Y-81914299D01*
X131000870Y-81914299D01*
X131000872Y-81914300D01*
X131000873Y-81914300D01*
X132380759Y-81914300D01*
X132561975Y-81898876D01*
X132561975Y-81898875D01*
X132561982Y-81898875D01*
X132796808Y-81837731D01*
X132796811Y-81837730D01*
X133017913Y-81737786D01*
X133017916Y-81737783D01*
X133017923Y-81737781D01*
X133218965Y-81601900D01*
X133394152Y-81433997D01*
X133468578Y-81333366D01*
X133524265Y-81291174D01*
X133593926Y-81285786D01*
X133655443Y-81318915D01*
X133659480Y-81323098D01*
X133704256Y-81371738D01*
X133900491Y-81524474D01*
X133948542Y-81550478D01*
X134102764Y-81633939D01*
X134119190Y-81642828D01*
X134354386Y-81723571D01*
X134599665Y-81764500D01*
X134848335Y-81764500D01*
X135093614Y-81723571D01*
X135328810Y-81642828D01*
X135547509Y-81524474D01*
X135743744Y-81371738D01*
X135912164Y-81188785D01*
X136048173Y-80980607D01*
X136061734Y-80949689D01*
X136106692Y-80896204D01*
X136173428Y-80875514D01*
X136175291Y-80875500D01*
X139370981Y-80875500D01*
X139391016Y-80875500D01*
X139410414Y-80877026D01*
X139430194Y-80880159D01*
X139430195Y-80880160D01*
X139430195Y-80880159D01*
X139430196Y-80880160D01*
X139476583Y-80875775D01*
X139482422Y-80875500D01*
X139772709Y-80875500D01*
X139839748Y-80895185D01*
X139885503Y-80947989D01*
X139886265Y-80949689D01*
X139899827Y-80980608D01*
X140035833Y-81188782D01*
X140035836Y-81188785D01*
X140204256Y-81371738D01*
X140400491Y-81524474D01*
X140448542Y-81550478D01*
X140602764Y-81633939D01*
X140619190Y-81642828D01*
X140854386Y-81723571D01*
X141099665Y-81764500D01*
X141348335Y-81764500D01*
X141593614Y-81723571D01*
X141828810Y-81642828D01*
X142047509Y-81524474D01*
X142243744Y-81371738D01*
X142281840Y-81330353D01*
X142341724Y-81294365D01*
X142411562Y-81296464D01*
X142469178Y-81335988D01*
X142471609Y-81339118D01*
X142632275Y-81521669D01*
X142632279Y-81521673D01*
X142821070Y-81674111D01*
X143032909Y-81792452D01*
X143032912Y-81792453D01*
X143261707Y-81873291D01*
X143261713Y-81873292D01*
X143500862Y-81914299D01*
X143500870Y-81914299D01*
X143500872Y-81914300D01*
X143500873Y-81914300D01*
X144880759Y-81914300D01*
X145061975Y-81898876D01*
X145061975Y-81898875D01*
X145061982Y-81898875D01*
X145296808Y-81837731D01*
X145296811Y-81837730D01*
X145517913Y-81737786D01*
X145517916Y-81737783D01*
X145517923Y-81737781D01*
X145718965Y-81601900D01*
X145894152Y-81433997D01*
X145982795Y-81314143D01*
X146038482Y-81271951D01*
X146108143Y-81266563D01*
X146169660Y-81299692D01*
X146179538Y-81310728D01*
X146293629Y-81424819D01*
X146327114Y-81486142D01*
X146322130Y-81555834D01*
X146293629Y-81600181D01*
X146179661Y-81714148D01*
X146089093Y-81860981D01*
X146089091Y-81860986D01*
X146078726Y-81892265D01*
X146034826Y-82024747D01*
X146034826Y-82024748D01*
X146034825Y-82024748D01*
X146024500Y-82125815D01*
X146024500Y-82724169D01*
X146024501Y-82724187D01*
X146034825Y-82825252D01*
X146051054Y-82874226D01*
X146088536Y-82987339D01*
X146089092Y-82989015D01*
X146089093Y-82989018D01*
X146102773Y-83011197D01*
X146179659Y-83135849D01*
X146179661Y-83135851D01*
X146224321Y-83180511D01*
X146257806Y-83241834D01*
X146253681Y-83309147D01*
X146214633Y-83420737D01*
X146214630Y-83420750D01*
X146194435Y-83599996D01*
X146194435Y-83600003D01*
X146214630Y-83779249D01*
X146214631Y-83779254D01*
X146274211Y-83949523D01*
X146296313Y-83984698D01*
X146315313Y-84051935D01*
X146294945Y-84118770D01*
X146241677Y-84163984D01*
X146230332Y-84168372D01*
X146197987Y-84179091D01*
X146197984Y-84179092D01*
X146197981Y-84179093D01*
X146051148Y-84269661D01*
X146036825Y-84283984D01*
X145975501Y-84317468D01*
X145905809Y-84312482D01*
X145861465Y-84283982D01*
X145847538Y-84270055D01*
X145847534Y-84270052D01*
X145700811Y-84179551D01*
X145700800Y-84179546D01*
X145537152Y-84125319D01*
X145436154Y-84115000D01*
X145337000Y-84115000D01*
X145337000Y-86064999D01*
X145436140Y-86064999D01*
X145436154Y-86064998D01*
X145537152Y-86054680D01*
X145700800Y-86000453D01*
X145700811Y-86000448D01*
X145847535Y-85909947D01*
X145861460Y-85896021D01*
X145922782Y-85862533D01*
X145992473Y-85867514D01*
X146036827Y-85896017D01*
X146051150Y-85910340D01*
X146197984Y-86000908D01*
X146361747Y-86055174D01*
X146462823Y-86065500D01*
X147161176Y-86065499D01*
X147161184Y-86065498D01*
X147161187Y-86065498D01*
X147243907Y-86057048D01*
X147262253Y-86055174D01*
X147426016Y-86000908D01*
X147572850Y-85910340D01*
X147694840Y-85788350D01*
X147703441Y-85774404D01*
X147755390Y-85727679D01*
X147808981Y-85715500D01*
X148151019Y-85715500D01*
X148218058Y-85735185D01*
X148256558Y-85774404D01*
X148265160Y-85788350D01*
X148387150Y-85910340D01*
X148533984Y-86000908D01*
X148697747Y-86055174D01*
X148798823Y-86065500D01*
X149397176Y-86065499D01*
X149397184Y-86065498D01*
X149397187Y-86065498D01*
X149479907Y-86057048D01*
X149498253Y-86055174D01*
X149662016Y-86000908D01*
X149808850Y-85910340D01*
X149922819Y-85796370D01*
X149984142Y-85762886D01*
X150053834Y-85767870D01*
X150098181Y-85796371D01*
X150212150Y-85910340D01*
X150358984Y-86000908D01*
X150522747Y-86055174D01*
X150623823Y-86065500D01*
X151222176Y-86065499D01*
X151222184Y-86065498D01*
X151222187Y-86065498D01*
X151304907Y-86057048D01*
X151323253Y-86055174D01*
X151487016Y-86000908D01*
X151633850Y-85910340D01*
X151633851Y-85910338D01*
X151636085Y-85908961D01*
X151701182Y-85890500D01*
X152097564Y-85890500D01*
X152104502Y-85890889D01*
X152133400Y-85894145D01*
X152145998Y-85895565D01*
X152146000Y-85895565D01*
X152146003Y-85895565D01*
X152282726Y-85880160D01*
X152293357Y-85878962D01*
X152325255Y-85875368D01*
X152495522Y-85815789D01*
X152648262Y-85719816D01*
X152775816Y-85592262D01*
X152871789Y-85439522D01*
X152931368Y-85269255D01*
X152931369Y-85269249D01*
X152951565Y-85090003D01*
X152951565Y-85089996D01*
X152931369Y-84910750D01*
X152931368Y-84910745D01*
X152921570Y-84882745D01*
X152871789Y-84740478D01*
X152775816Y-84587738D01*
X152648262Y-84460184D01*
X152635748Y-84452321D01*
X152495523Y-84364211D01*
X152325254Y-84304631D01*
X152325249Y-84304630D01*
X152201485Y-84290686D01*
X152190954Y-84289500D01*
X152175969Y-84287811D01*
X152146002Y-84284435D01*
X152145998Y-84284435D01*
X152133400Y-84285854D01*
X152104502Y-84289110D01*
X152097564Y-84289500D01*
X151701182Y-84289500D01*
X151636085Y-84271039D01*
X151633851Y-84269661D01*
X151633850Y-84269660D01*
X151506299Y-84190986D01*
X151487018Y-84179093D01*
X151487013Y-84179091D01*
X151441423Y-84163984D01*
X151323253Y-84124826D01*
X151323251Y-84124825D01*
X151242163Y-84116541D01*
X151177472Y-84090144D01*
X151137321Y-84032963D01*
X151134458Y-83963152D01*
X151167084Y-83905504D01*
X152143786Y-82928802D01*
X152156048Y-82918980D01*
X152155865Y-82918759D01*
X152161867Y-82913792D01*
X152161877Y-82913786D01*
X152209241Y-82863348D01*
X152230120Y-82842470D01*
X152234373Y-82836986D01*
X152238150Y-82832563D01*
X152270062Y-82798582D01*
X152279714Y-82781023D01*
X152290389Y-82764772D01*
X152302674Y-82748936D01*
X152321186Y-82706152D01*
X152323742Y-82700935D01*
X152346197Y-82660092D01*
X152351180Y-82640680D01*
X152357477Y-82622291D01*
X152365438Y-82603895D01*
X152372729Y-82557853D01*
X152373908Y-82552162D01*
X152385500Y-82507019D01*
X152385500Y-82486982D01*
X152387027Y-82467583D01*
X152390160Y-82447804D01*
X152387286Y-82417412D01*
X152385775Y-82401425D01*
X152385499Y-82395585D01*
X152385499Y-82168909D01*
X152385499Y-82029353D01*
X152405184Y-81962317D01*
X152457988Y-81916562D01*
X152498983Y-81905803D01*
X152513995Y-81904525D01*
X152580375Y-81898876D01*
X152580375Y-81898875D01*
X152580382Y-81898875D01*
X152815208Y-81837731D01*
X152815211Y-81837730D01*
X153036313Y-81737786D01*
X153036316Y-81737783D01*
X153036323Y-81737781D01*
X153237365Y-81601900D01*
X153412552Y-81433997D01*
X153500560Y-81315002D01*
X153556247Y-81272810D01*
X153625909Y-81267422D01*
X153687425Y-81300551D01*
X153691482Y-81304756D01*
X153726534Y-81342832D01*
X153740256Y-81357738D01*
X153936491Y-81510474D01*
X153936493Y-81510475D01*
X154105429Y-81601899D01*
X154155190Y-81628828D01*
X154390386Y-81709571D01*
X154635665Y-81750500D01*
X154884335Y-81750500D01*
X155129614Y-81709571D01*
X155364810Y-81628828D01*
X155583509Y-81510474D01*
X155779744Y-81357738D01*
X155948164Y-81174785D01*
X156084173Y-80966607D01*
X156084175Y-80966603D01*
X156091595Y-80949689D01*
X156136551Y-80896203D01*
X156203287Y-80875514D01*
X156205150Y-80875500D01*
X159814850Y-80875500D01*
X159881889Y-80895185D01*
X159927644Y-80947989D01*
X159928405Y-80949689D01*
X159935824Y-80966603D01*
X160071833Y-81174782D01*
X160083290Y-81187227D01*
X160240256Y-81357738D01*
X160436491Y-81510474D01*
X160436493Y-81510475D01*
X160605429Y-81601899D01*
X160655190Y-81628828D01*
X160890386Y-81709571D01*
X161135665Y-81750500D01*
X161384335Y-81750500D01*
X161629614Y-81709571D01*
X161864810Y-81628828D01*
X162083509Y-81510474D01*
X162279744Y-81357738D01*
X162302338Y-81333194D01*
X162362221Y-81297203D01*
X162432059Y-81299302D01*
X162486019Y-81336315D01*
X162486878Y-81335560D01*
X162650675Y-81521669D01*
X162650679Y-81521673D01*
X162839470Y-81674111D01*
X163051309Y-81792452D01*
X163051312Y-81792453D01*
X163280107Y-81873291D01*
X163280113Y-81873292D01*
X163519262Y-81914299D01*
X163519270Y-81914299D01*
X163519272Y-81914300D01*
X163519273Y-81914300D01*
X164899159Y-81914300D01*
X165080375Y-81898876D01*
X165080375Y-81898875D01*
X165080382Y-81898875D01*
X165315208Y-81837731D01*
X165315211Y-81837730D01*
X165536313Y-81737786D01*
X165536316Y-81737783D01*
X165536323Y-81737781D01*
X165737365Y-81601900D01*
X165912552Y-81433997D01*
X166056844Y-81238902D01*
X166166088Y-81022229D01*
X166237143Y-80790209D01*
X166252504Y-80670253D01*
X166280545Y-80606258D01*
X166338733Y-80567580D01*
X166408594Y-80566502D01*
X166467948Y-80603364D01*
G37*
%TD.AperFunction*%
%TA.AperFunction,Conductor*%
G36*
X117995058Y-68945185D02*
G01*
X118033558Y-68984404D01*
X118042160Y-68998350D01*
X118164150Y-69120340D01*
X118310984Y-69210908D01*
X118474747Y-69265174D01*
X118575823Y-69275500D01*
X119174176Y-69275499D01*
X119174184Y-69275498D01*
X119174187Y-69275498D01*
X119229530Y-69269844D01*
X119275253Y-69265174D01*
X119439016Y-69210908D01*
X119585850Y-69120340D01*
X119699821Y-69006368D01*
X119761140Y-68972886D01*
X119830832Y-68977870D01*
X119875180Y-69006370D01*
X119989150Y-69120340D01*
X120135984Y-69210908D01*
X120299747Y-69265174D01*
X120400823Y-69275500D01*
X120591087Y-69275499D01*
X120658125Y-69295183D01*
X120703880Y-69347987D01*
X120713824Y-69417145D01*
X120684799Y-69480701D01*
X120667247Y-69497353D01*
X120629942Y-69526387D01*
X120629942Y-69526390D01*
X121240883Y-70137330D01*
X121274368Y-70198653D01*
X121269384Y-70268344D01*
X121232358Y-70317805D01*
X121233602Y-70319241D01*
X121226900Y-70325047D01*
X121226900Y-70325048D01*
X121226575Y-70325330D01*
X121118238Y-70419202D01*
X121083046Y-70473962D01*
X121030242Y-70519717D01*
X120961083Y-70529660D01*
X120897528Y-70500634D01*
X120891050Y-70494603D01*
X120276564Y-69880116D01*
X120176267Y-70033632D01*
X120076412Y-70261282D01*
X120015387Y-70502261D01*
X120015385Y-70502270D01*
X119994858Y-70749994D01*
X119994858Y-70750005D01*
X120015385Y-70997729D01*
X120015387Y-70997738D01*
X120076412Y-71238717D01*
X120176266Y-71466364D01*
X120276564Y-71619882D01*
X120891050Y-71005395D01*
X120952373Y-70971910D01*
X121022064Y-70976894D01*
X121077998Y-71018765D01*
X121083039Y-71026025D01*
X121118239Y-71080798D01*
X121213704Y-71163518D01*
X121233602Y-71180759D01*
X121231293Y-71183422D01*
X121266006Y-71223499D01*
X121275935Y-71292660D01*
X121246898Y-71356210D01*
X121240882Y-71362669D01*
X120629942Y-71973609D01*
X120676768Y-72010055D01*
X120676770Y-72010056D01*
X120895385Y-72128364D01*
X120895396Y-72128369D01*
X121130506Y-72209083D01*
X121375707Y-72250000D01*
X121624293Y-72250000D01*
X121869493Y-72209083D01*
X122104603Y-72128369D01*
X122104614Y-72128364D01*
X122323228Y-72010057D01*
X122323231Y-72010055D01*
X122370056Y-71973609D01*
X121759116Y-71362669D01*
X121725631Y-71301346D01*
X121730615Y-71231654D01*
X121767641Y-71182193D01*
X121766398Y-71180759D01*
X121773100Y-71174952D01*
X121881761Y-71080798D01*
X121916954Y-71026037D01*
X121969755Y-70980283D01*
X122038914Y-70970339D01*
X122102470Y-70999363D01*
X122108949Y-71005396D01*
X122723433Y-71619881D01*
X122763151Y-71559090D01*
X122816298Y-71513734D01*
X122885529Y-71504310D01*
X122948865Y-71533812D01*
X122954641Y-71539231D01*
X124499194Y-73083784D01*
X124509019Y-73096048D01*
X124509240Y-73095866D01*
X124514210Y-73101873D01*
X124514213Y-73101876D01*
X124514214Y-73101877D01*
X124564651Y-73149241D01*
X124585530Y-73170120D01*
X124591004Y-73174366D01*
X124595442Y-73178156D01*
X124629418Y-73210062D01*
X124629422Y-73210064D01*
X124646973Y-73219713D01*
X124663231Y-73230392D01*
X124679064Y-73242674D01*
X124701015Y-73252172D01*
X124721837Y-73261183D01*
X124727081Y-73263752D01*
X124767908Y-73286197D01*
X124787312Y-73291179D01*
X124805710Y-73297478D01*
X124824105Y-73305438D01*
X124870129Y-73312726D01*
X124875832Y-73313907D01*
X124920981Y-73325500D01*
X124941016Y-73325500D01*
X124960413Y-73327026D01*
X124980196Y-73330160D01*
X125026583Y-73325775D01*
X125032422Y-73325500D01*
X126057809Y-73325500D01*
X126124848Y-73345185D01*
X126163348Y-73384404D01*
X126179660Y-73410850D01*
X126270323Y-73501513D01*
X126293629Y-73524819D01*
X126327113Y-73586142D01*
X126322129Y-73655834D01*
X126293629Y-73700181D01*
X126179659Y-73814151D01*
X126089093Y-73960981D01*
X126089091Y-73960986D01*
X126078726Y-73992265D01*
X126034826Y-74124747D01*
X126034826Y-74124748D01*
X126034825Y-74124748D01*
X126024500Y-74225815D01*
X126024500Y-74824169D01*
X126024501Y-74824187D01*
X126034825Y-74925252D01*
X126039551Y-74939513D01*
X126089092Y-75089016D01*
X126179660Y-75235850D01*
X126301650Y-75357840D01*
X126448484Y-75448408D01*
X126612247Y-75502674D01*
X126676778Y-75509266D01*
X126741468Y-75535662D01*
X126781620Y-75592842D01*
X126784484Y-75662653D01*
X126749151Y-75722930D01*
X126703180Y-75750330D01*
X126548484Y-75801592D01*
X126548481Y-75801593D01*
X126401651Y-75892159D01*
X126321360Y-75972450D01*
X126260036Y-76005934D01*
X126219796Y-76007988D01*
X126150817Y-76000216D01*
X126086403Y-75973150D01*
X126048517Y-75920328D01*
X126043796Y-75907671D01*
X126043796Y-75907669D01*
X126043795Y-75907667D01*
X126043793Y-75907664D01*
X125957547Y-75792455D01*
X125957544Y-75792452D01*
X125842335Y-75706206D01*
X125842328Y-75706202D01*
X125707482Y-75655908D01*
X125707483Y-75655908D01*
X125647883Y-75649501D01*
X125647881Y-75649500D01*
X125647873Y-75649500D01*
X125647864Y-75649500D01*
X123552129Y-75649500D01*
X123552123Y-75649501D01*
X123492516Y-75655908D01*
X123357671Y-75706202D01*
X123357664Y-75706206D01*
X123242455Y-75792452D01*
X123242452Y-75792455D01*
X123156206Y-75907664D01*
X123156202Y-75907671D01*
X123105908Y-76042517D01*
X123099948Y-76097958D01*
X123099501Y-76102123D01*
X123099500Y-76102135D01*
X123099500Y-79397870D01*
X123099501Y-79397876D01*
X123105908Y-79457483D01*
X123156202Y-79592328D01*
X123156206Y-79592335D01*
X123242452Y-79707544D01*
X123242455Y-79707547D01*
X123357664Y-79793793D01*
X123357671Y-79793797D01*
X123492517Y-79844091D01*
X123492516Y-79844091D01*
X123498339Y-79844717D01*
X123552127Y-79850500D01*
X124918060Y-79850499D01*
X124985099Y-79870184D01*
X125030854Y-79922987D01*
X125040798Y-79992146D01*
X125011773Y-80055702D01*
X125005741Y-80062180D01*
X123739159Y-81328760D01*
X123739151Y-81328771D01*
X123670183Y-81397739D01*
X123647966Y-81433096D01*
X123643941Y-81438769D01*
X123617910Y-81471410D01*
X123599791Y-81509033D01*
X123596427Y-81515120D01*
X123574212Y-81550476D01*
X123574208Y-81550483D01*
X123560416Y-81589895D01*
X123557755Y-81596320D01*
X123539639Y-81633939D01*
X123530344Y-81674659D01*
X123528419Y-81681341D01*
X123514632Y-81720744D01*
X123509955Y-81762235D01*
X123508791Y-81769089D01*
X123499500Y-81809806D01*
X123499500Y-82451564D01*
X123499110Y-82458502D01*
X123497001Y-82477226D01*
X123494435Y-82499999D01*
X123494434Y-82500003D01*
X123499120Y-82541583D01*
X123499121Y-82541592D01*
X123514630Y-82679249D01*
X123514631Y-82679254D01*
X123574211Y-82849523D01*
X123648450Y-82967673D01*
X123670184Y-83002262D01*
X123797738Y-83129816D01*
X123821434Y-83144705D01*
X123950471Y-83225785D01*
X123950478Y-83225789D01*
X124075826Y-83269650D01*
X124120745Y-83285368D01*
X124120750Y-83285369D01*
X124299996Y-83305565D01*
X124300000Y-83305565D01*
X124300004Y-83305565D01*
X124479249Y-83285369D01*
X124479252Y-83285368D01*
X124479255Y-83285368D01*
X124649522Y-83225789D01*
X124802262Y-83129816D01*
X124929816Y-83002262D01*
X125025789Y-82849522D01*
X125025789Y-82849519D01*
X125026423Y-82848512D01*
X125078758Y-82802221D01*
X125147811Y-82791573D01*
X125211660Y-82819948D01*
X125236409Y-82848510D01*
X125270184Y-82902262D01*
X125397738Y-83029816D01*
X125550478Y-83125789D01*
X125711371Y-83182088D01*
X125720745Y-83185368D01*
X125720750Y-83185369D01*
X125899996Y-83205565D01*
X125900000Y-83205565D01*
X125900004Y-83205565D01*
X126079249Y-83185369D01*
X126079252Y-83185368D01*
X126079255Y-83185368D01*
X126079256Y-83185367D01*
X126079259Y-83185367D01*
X126114363Y-83173082D01*
X126190853Y-83146317D01*
X126260630Y-83142755D01*
X126319488Y-83175678D01*
X126401652Y-83257842D01*
X126415598Y-83266444D01*
X126462321Y-83318392D01*
X126474499Y-83371981D01*
X126474499Y-83389547D01*
X126454814Y-83456586D01*
X126438180Y-83477228D01*
X125327228Y-84588181D01*
X125265905Y-84621666D01*
X125239547Y-84624500D01*
X122945150Y-84624500D01*
X122878111Y-84604815D01*
X122832356Y-84552011D01*
X122831595Y-84550311D01*
X122824175Y-84533396D01*
X122688166Y-84325217D01*
X122648495Y-84282123D01*
X122519744Y-84142262D01*
X122323509Y-83989526D01*
X122323507Y-83989525D01*
X122323506Y-83989524D01*
X122104811Y-83871172D01*
X122104802Y-83871169D01*
X121869616Y-83790429D01*
X121624335Y-83749500D01*
X121375665Y-83749500D01*
X121130383Y-83790429D01*
X120895197Y-83871169D01*
X120895188Y-83871172D01*
X120676493Y-83989524D01*
X120480257Y-84142261D01*
X120311837Y-84325213D01*
X120308690Y-84329258D01*
X120306973Y-84327922D01*
X120260771Y-84367294D01*
X120231596Y-84371954D01*
X119608949Y-84994602D01*
X119547626Y-85028087D01*
X119477934Y-85023103D01*
X119422001Y-84981231D01*
X119416953Y-84973961D01*
X119381761Y-84919202D01*
X119339687Y-84882745D01*
X119273100Y-84825048D01*
X119273099Y-84825047D01*
X119266398Y-84819241D01*
X119268698Y-84816585D01*
X119233960Y-84776428D01*
X119224074Y-84707261D01*
X119253152Y-84643729D01*
X119259116Y-84637329D01*
X119870056Y-84026389D01*
X119823229Y-83989943D01*
X119604614Y-83871635D01*
X119604603Y-83871630D01*
X119369493Y-83790916D01*
X119124293Y-83750000D01*
X118875707Y-83750000D01*
X118630506Y-83790916D01*
X118395396Y-83871630D01*
X118395385Y-83871635D01*
X118176768Y-83989944D01*
X118176757Y-83989951D01*
X118120890Y-84033435D01*
X118055896Y-84059078D01*
X117987356Y-84045512D01*
X117945462Y-84009893D01*
X117857547Y-83892455D01*
X117857544Y-83892452D01*
X117742335Y-83806206D01*
X117742328Y-83806202D01*
X117607482Y-83755908D01*
X117607483Y-83755908D01*
X117547883Y-83749501D01*
X117547881Y-83749500D01*
X117547873Y-83749500D01*
X117547864Y-83749500D01*
X115452129Y-83749500D01*
X115452123Y-83749501D01*
X115392516Y-83755908D01*
X115257671Y-83806202D01*
X115257664Y-83806206D01*
X115142455Y-83892452D01*
X115142452Y-83892455D01*
X115056206Y-84007664D01*
X115056202Y-84007671D01*
X115005908Y-84142517D01*
X114999501Y-84202116D01*
X114999500Y-84202135D01*
X114999500Y-84500500D01*
X114979815Y-84567539D01*
X114927011Y-84613294D01*
X114875500Y-84624500D01*
X112460453Y-84624500D01*
X112393414Y-84604815D01*
X112372772Y-84588181D01*
X111769289Y-83984698D01*
X111208069Y-83423477D01*
X111174586Y-83362157D01*
X111179570Y-83292465D01*
X111208067Y-83248122D01*
X111320340Y-83135850D01*
X111410908Y-82989016D01*
X111410910Y-82989008D01*
X111413958Y-82982473D01*
X111416724Y-82983762D01*
X111448675Y-82937610D01*
X111513189Y-82910783D01*
X111581966Y-82923094D01*
X111614295Y-82946373D01*
X111797739Y-83129817D01*
X111797742Y-83129819D01*
X111833089Y-83152029D01*
X111838763Y-83156055D01*
X111863371Y-83175678D01*
X111871414Y-83182092D01*
X111878215Y-83185367D01*
X111909033Y-83200209D01*
X111915122Y-83203574D01*
X111950471Y-83225785D01*
X111950474Y-83225786D01*
X111950478Y-83225789D01*
X111989899Y-83239583D01*
X111996307Y-83242238D01*
X112033939Y-83260360D01*
X112074641Y-83269650D01*
X112081328Y-83271576D01*
X112120742Y-83285367D01*
X112120745Y-83285368D01*
X112162241Y-83290043D01*
X112169093Y-83291207D01*
X112209806Y-83300500D01*
X112255046Y-83300500D01*
X116351564Y-83300500D01*
X116358502Y-83300889D01*
X116387400Y-83304145D01*
X116399998Y-83305565D01*
X116400000Y-83305565D01*
X116400004Y-83305565D01*
X116579249Y-83285369D01*
X116579252Y-83285368D01*
X116579255Y-83285368D01*
X116749522Y-83225789D01*
X116902262Y-83129816D01*
X117029816Y-83002262D01*
X117125789Y-82849522D01*
X117185368Y-82679255D01*
X117185369Y-82679249D01*
X117205565Y-82500003D01*
X117205565Y-82499996D01*
X117185369Y-82320750D01*
X117185368Y-82320745D01*
X117150376Y-82220745D01*
X117125789Y-82150478D01*
X117105096Y-82117546D01*
X117049683Y-82029356D01*
X117029816Y-81997738D01*
X116902262Y-81870184D01*
X116893092Y-81864422D01*
X116749523Y-81774211D01*
X116579254Y-81714631D01*
X116579249Y-81714630D01*
X116400004Y-81694435D01*
X116399998Y-81694435D01*
X116387400Y-81695854D01*
X116358502Y-81699110D01*
X116351564Y-81699500D01*
X112724500Y-81699500D01*
X112657461Y-81679815D01*
X112611706Y-81627011D01*
X112600500Y-81575500D01*
X112600500Y-80909805D01*
X112600499Y-80909802D01*
X112598074Y-80899177D01*
X112591203Y-80869076D01*
X112590044Y-80862251D01*
X112585368Y-80820745D01*
X112571574Y-80781324D01*
X112569652Y-80774655D01*
X112560359Y-80733939D01*
X112542245Y-80696326D01*
X112539583Y-80689898D01*
X112525789Y-80650478D01*
X112525788Y-80650477D01*
X112503563Y-80615106D01*
X112500213Y-80609044D01*
X112482091Y-80571413D01*
X112456049Y-80538757D01*
X112452038Y-80533104D01*
X112438017Y-80510790D01*
X112429818Y-80497740D01*
X112284822Y-80352744D01*
X112284819Y-80352742D01*
X111934252Y-80002174D01*
X111902262Y-79970184D01*
X111902259Y-79970182D01*
X111866904Y-79947966D01*
X111861229Y-79943940D01*
X111828589Y-79917910D01*
X111790959Y-79899787D01*
X111784872Y-79896422D01*
X111749525Y-79874212D01*
X111710114Y-79860421D01*
X111703688Y-79857759D01*
X111666061Y-79839639D01*
X111625345Y-79830345D01*
X111618662Y-79828420D01*
X111579259Y-79814632D01*
X111537763Y-79809955D01*
X111530908Y-79808791D01*
X111490200Y-79799501D01*
X111490196Y-79799500D01*
X111490194Y-79799500D01*
X111490191Y-79799500D01*
X111282052Y-79799500D01*
X111215013Y-79779815D01*
X111204344Y-79771218D01*
X111204013Y-79771638D01*
X111198352Y-79767161D01*
X111101697Y-79707544D01*
X111057437Y-79680244D01*
X111010714Y-79628297D01*
X110999491Y-79559334D01*
X111027335Y-79495252D01*
X111057438Y-79469167D01*
X111173028Y-79397870D01*
X111899500Y-79397870D01*
X111899501Y-79397876D01*
X111905908Y-79457483D01*
X111956202Y-79592328D01*
X111956206Y-79592335D01*
X112042452Y-79707544D01*
X112042455Y-79707547D01*
X112157664Y-79793793D01*
X112157671Y-79793797D01*
X112292517Y-79844091D01*
X112292516Y-79844091D01*
X112298339Y-79844717D01*
X112352127Y-79850500D01*
X114447872Y-79850499D01*
X114507483Y-79844091D01*
X114642331Y-79793796D01*
X114757546Y-79707546D01*
X114843796Y-79592331D01*
X114894091Y-79457483D01*
X114900500Y-79397873D01*
X114900499Y-76102128D01*
X114894091Y-76042517D01*
X114892841Y-76039166D01*
X114843797Y-75907671D01*
X114843793Y-75907664D01*
X114757547Y-75792455D01*
X114757544Y-75792452D01*
X114642335Y-75706206D01*
X114642328Y-75706202D01*
X114507482Y-75655908D01*
X114507483Y-75655908D01*
X114447883Y-75649501D01*
X114447881Y-75649500D01*
X114447873Y-75649500D01*
X114447864Y-75649500D01*
X112352129Y-75649500D01*
X112352123Y-75649501D01*
X112292516Y-75655908D01*
X112157671Y-75706202D01*
X112157664Y-75706206D01*
X112042455Y-75792452D01*
X112042452Y-75792455D01*
X111956206Y-75907664D01*
X111956202Y-75907671D01*
X111905908Y-76042517D01*
X111899948Y-76097958D01*
X111899501Y-76102123D01*
X111899500Y-76102135D01*
X111899500Y-79397870D01*
X111173028Y-79397870D01*
X111198039Y-79382443D01*
X111319944Y-79260538D01*
X111319947Y-79260534D01*
X111410448Y-79113811D01*
X111410453Y-79113800D01*
X111464680Y-78950152D01*
X111474999Y-78849154D01*
X111475000Y-78849141D01*
X111475000Y-78750000D01*
X110374000Y-78750000D01*
X110306961Y-78730315D01*
X110261206Y-78677511D01*
X110250000Y-78626000D01*
X110250000Y-78374000D01*
X110269685Y-78306961D01*
X110322489Y-78261206D01*
X110374000Y-78250000D01*
X111474998Y-78250000D01*
X111474999Y-78150860D01*
X111474998Y-78150845D01*
X111464680Y-78049847D01*
X111410453Y-77886199D01*
X111410448Y-77886188D01*
X111319947Y-77739465D01*
X111319944Y-77739461D01*
X111306017Y-77725534D01*
X111272532Y-77664211D01*
X111277516Y-77594519D01*
X111306017Y-77550172D01*
X111320340Y-77535850D01*
X111410908Y-77389016D01*
X111465174Y-77225253D01*
X111475500Y-77124177D01*
X111475499Y-76425824D01*
X111474310Y-76414188D01*
X111465174Y-76324747D01*
X111458175Y-76303627D01*
X111410908Y-76160984D01*
X111320340Y-76014150D01*
X111198350Y-75892160D01*
X111198348Y-75892159D01*
X111184400Y-75883555D01*
X111137677Y-75831605D01*
X111125500Y-75778018D01*
X111125500Y-75471981D01*
X111145185Y-75404942D01*
X111184404Y-75366442D01*
X111185295Y-75365892D01*
X111198350Y-75357840D01*
X111320340Y-75235850D01*
X111410908Y-75089016D01*
X111465174Y-74925253D01*
X111475500Y-74824177D01*
X111475499Y-74225824D01*
X111465174Y-74124747D01*
X111410908Y-73960984D01*
X111320340Y-73814150D01*
X111206370Y-73700180D01*
X111172886Y-73638858D01*
X111177870Y-73569166D01*
X111206371Y-73524819D01*
X111229677Y-73501513D01*
X111320340Y-73410850D01*
X111336651Y-73384404D01*
X111388600Y-73337679D01*
X111442191Y-73325500D01*
X112217257Y-73325500D01*
X112232877Y-73327224D01*
X112232904Y-73326939D01*
X112240660Y-73327671D01*
X112240667Y-73327673D01*
X112309814Y-73325500D01*
X112339350Y-73325500D01*
X112346228Y-73324630D01*
X112352041Y-73324172D01*
X112398627Y-73322709D01*
X112417869Y-73317117D01*
X112436912Y-73313174D01*
X112456792Y-73310664D01*
X112500122Y-73293507D01*
X112505646Y-73291617D01*
X112512010Y-73289768D01*
X112550390Y-73278618D01*
X112567629Y-73268422D01*
X112585103Y-73259862D01*
X112603727Y-73252488D01*
X112603727Y-73252487D01*
X112603732Y-73252486D01*
X112641449Y-73225082D01*
X112646305Y-73221892D01*
X112686420Y-73198170D01*
X112700589Y-73183999D01*
X112715379Y-73171368D01*
X112731587Y-73159594D01*
X112761299Y-73123676D01*
X112765212Y-73119376D01*
X114834690Y-71049898D01*
X114896011Y-71016415D01*
X114965703Y-71021399D01*
X115021636Y-71063271D01*
X115042574Y-71107140D01*
X115075935Y-71238876D01*
X115075935Y-71238877D01*
X115175826Y-71466606D01*
X115311833Y-71674782D01*
X115313309Y-71676385D01*
X115480256Y-71857738D01*
X115676491Y-72010474D01*
X115702451Y-72024523D01*
X115894332Y-72128364D01*
X115895190Y-72128828D01*
X116059192Y-72185130D01*
X116128964Y-72209083D01*
X116130386Y-72209571D01*
X116375665Y-72250500D01*
X116624335Y-72250500D01*
X116869614Y-72209571D01*
X117104810Y-72128828D01*
X117323509Y-72010474D01*
X117519744Y-71857738D01*
X117688164Y-71674785D01*
X117824173Y-71466607D01*
X117924063Y-71238881D01*
X117985108Y-70997821D01*
X117985116Y-70997729D01*
X118005643Y-70750005D01*
X118005643Y-70749994D01*
X117985109Y-70502187D01*
X117985107Y-70502175D01*
X117924063Y-70261118D01*
X117824173Y-70033393D01*
X117688166Y-69825217D01*
X117655701Y-69789951D01*
X117519744Y-69642262D01*
X117323509Y-69489526D01*
X117323507Y-69489525D01*
X117323506Y-69489524D01*
X117104811Y-69371172D01*
X117104802Y-69371169D01*
X116869615Y-69290428D01*
X116864644Y-69289170D01*
X116865013Y-69287712D01*
X116808267Y-69260226D01*
X116771834Y-69200607D01*
X116773418Y-69130755D01*
X116803889Y-69080699D01*
X116922772Y-68961816D01*
X116984094Y-68928334D01*
X117010452Y-68925500D01*
X117928019Y-68925500D01*
X117995058Y-68945185D01*
G37*
%TD.AperFunction*%
%TA.AperFunction,Conductor*%
G36*
X164001866Y-53500613D02*
G01*
X164081342Y-53505420D01*
X164297539Y-53518497D01*
X164304973Y-53519401D01*
X164594483Y-53572456D01*
X164601753Y-53574247D01*
X164882764Y-53661814D01*
X164889751Y-53664465D01*
X165043864Y-53733825D01*
X165158158Y-53785265D01*
X165164788Y-53788745D01*
X165416665Y-53941010D01*
X165422821Y-53945257D01*
X165654523Y-54126784D01*
X165660123Y-54131745D01*
X165868253Y-54339875D01*
X165873214Y-54345475D01*
X166054739Y-54577175D01*
X166058989Y-54583334D01*
X166211254Y-54835211D01*
X166214737Y-54841846D01*
X166335534Y-55110248D01*
X166338188Y-55117244D01*
X166387011Y-55273922D01*
X166425750Y-55398240D01*
X166427543Y-55405516D01*
X166480598Y-55695026D01*
X166481502Y-55702465D01*
X166499386Y-55998133D01*
X166499499Y-56001877D01*
X166499500Y-75267633D01*
X166479815Y-75334672D01*
X166427011Y-75380427D01*
X166357853Y-75390371D01*
X166294297Y-75361346D01*
X166256523Y-75302568D01*
X166254283Y-75293757D01*
X166206063Y-75070018D01*
X166206063Y-75070017D01*
X166115621Y-74844943D01*
X165988438Y-74638384D01*
X165828177Y-74456292D01*
X165828173Y-74456288D01*
X165639455Y-74303909D01*
X165639449Y-74303905D01*
X165427682Y-74185605D01*
X165198970Y-74104796D01*
X165198962Y-74104794D01*
X164959893Y-74063800D01*
X164489600Y-74063800D01*
X164489600Y-74722046D01*
X164469915Y-74789085D01*
X164417111Y-74834840D01*
X164347953Y-74844784D01*
X164334765Y-74842151D01*
X164321715Y-74838800D01*
X164321714Y-74838800D01*
X164198706Y-74838800D01*
X164198694Y-74838800D01*
X164129141Y-74847587D01*
X164060163Y-74836460D01*
X164008151Y-74789806D01*
X163989600Y-74724565D01*
X163989600Y-74063800D01*
X163580061Y-74063800D01*
X163398907Y-74079217D01*
X163164159Y-74140341D01*
X162943127Y-74240253D01*
X162943119Y-74240258D01*
X162742149Y-74376091D01*
X162742146Y-74376093D01*
X162567024Y-74543935D01*
X162567023Y-74543936D01*
X162424512Y-74736623D01*
X162424512Y-74736624D01*
X162438038Y-74750150D01*
X162471524Y-74811473D01*
X162466540Y-74881164D01*
X162438039Y-74925513D01*
X161908517Y-75455034D01*
X161847194Y-75488519D01*
X161777502Y-75483535D01*
X161721569Y-75441663D01*
X161718486Y-75436750D01*
X161718451Y-75436775D01*
X161713558Y-75429843D01*
X161658371Y-75370753D01*
X161610362Y-75319348D01*
X161582769Y-75302568D01*
X161575300Y-75298026D01*
X161528248Y-75246374D01*
X161516591Y-75177484D01*
X161544029Y-75113227D01*
X161552048Y-75104397D01*
X162130056Y-74526389D01*
X162083229Y-74489943D01*
X161864614Y-74371635D01*
X161864603Y-74371630D01*
X161629493Y-74290916D01*
X161384293Y-74250000D01*
X161135707Y-74250000D01*
X160890506Y-74290916D01*
X160655396Y-74371630D01*
X160655390Y-74371632D01*
X160436761Y-74489949D01*
X160389942Y-74526388D01*
X160389942Y-74526390D01*
X160966833Y-75103280D01*
X161000318Y-75164603D01*
X160995334Y-75234294D01*
X160957408Y-75287148D01*
X160854262Y-75371064D01*
X160854258Y-75371069D01*
X160803947Y-75442343D01*
X160749204Y-75485760D01*
X160679679Y-75492689D01*
X160617444Y-75460930D01*
X160614962Y-75458515D01*
X160036564Y-74880116D01*
X159936267Y-75033632D01*
X159836412Y-75261282D01*
X159775387Y-75502261D01*
X159775385Y-75502270D01*
X159754859Y-75749994D01*
X159754859Y-75750005D01*
X159775385Y-75997729D01*
X159775387Y-75997738D01*
X159836412Y-76238717D01*
X159936266Y-76466364D01*
X160036564Y-76619882D01*
X160611482Y-76044964D01*
X160672805Y-76011479D01*
X160742496Y-76016463D01*
X160798430Y-76058334D01*
X160801514Y-76063249D01*
X160801549Y-76063225D01*
X160806441Y-76070156D01*
X160894398Y-76164334D01*
X160909638Y-76180652D01*
X160944698Y-76201973D01*
X160991749Y-76253623D01*
X161003407Y-76322513D01*
X160975970Y-76386770D01*
X160967950Y-76395601D01*
X160389942Y-76973609D01*
X160436768Y-77010055D01*
X160436770Y-77010056D01*
X160655385Y-77128364D01*
X160655396Y-77128369D01*
X160890506Y-77209083D01*
X161135707Y-77250000D01*
X161384293Y-77250000D01*
X161629493Y-77209083D01*
X161864603Y-77128369D01*
X161864614Y-77128364D01*
X162083228Y-77010057D01*
X162083231Y-77010055D01*
X162130056Y-76973609D01*
X161553165Y-76396718D01*
X161519680Y-76335395D01*
X161524664Y-76265703D01*
X161562588Y-76212853D01*
X161665739Y-76128934D01*
X161716052Y-76057655D01*
X161770793Y-76014239D01*
X161840318Y-76007310D01*
X161902553Y-76039068D01*
X161905037Y-76041484D01*
X162483433Y-76619881D01*
X162508463Y-76581572D01*
X162561610Y-76536216D01*
X162630841Y-76526792D01*
X162690172Y-76552918D01*
X162839750Y-76673694D01*
X163051517Y-76791994D01*
X163280229Y-76872803D01*
X163280237Y-76872805D01*
X163519306Y-76913799D01*
X163519315Y-76913800D01*
X163989600Y-76913800D01*
X163989600Y-76255553D01*
X164009285Y-76188514D01*
X164062089Y-76142759D01*
X164131247Y-76132815D01*
X164144416Y-76135444D01*
X164157486Y-76138800D01*
X164157490Y-76138800D01*
X164280492Y-76138800D01*
X164280494Y-76138800D01*
X164280499Y-76138799D01*
X164280503Y-76138799D01*
X164327870Y-76132815D01*
X164350058Y-76130012D01*
X164419036Y-76141138D01*
X164471048Y-76187791D01*
X164489600Y-76253034D01*
X164489600Y-76913800D01*
X164899139Y-76913800D01*
X165080292Y-76898382D01*
X165315040Y-76837258D01*
X165536072Y-76737346D01*
X165536080Y-76737341D01*
X165737050Y-76601508D01*
X165737053Y-76601506D01*
X165912175Y-76433664D01*
X165912176Y-76433663D01*
X166056413Y-76238643D01*
X166165621Y-76022042D01*
X166236653Y-75790101D01*
X166252504Y-75666317D01*
X166280544Y-75602321D01*
X166338732Y-75563643D01*
X166408594Y-75562565D01*
X166467948Y-75599427D01*
X166497951Y-75662527D01*
X166499500Y-75682067D01*
X166499500Y-80265258D01*
X166479815Y-80332297D01*
X166427011Y-80378052D01*
X166357853Y-80387996D01*
X166294297Y-80358971D01*
X166256523Y-80300193D01*
X166254283Y-80291382D01*
X166224665Y-80153955D01*
X166206544Y-80069872D01*
X166116068Y-79844714D01*
X165988842Y-79638086D01*
X165828525Y-79455931D01*
X165828524Y-79455930D01*
X165828520Y-79455926D01*
X165639729Y-79303488D01*
X165427890Y-79185147D01*
X165199100Y-79104311D01*
X165199086Y-79104307D01*
X164959937Y-79063300D01*
X164959928Y-79063300D01*
X163580046Y-79063300D01*
X163580041Y-79063300D01*
X163398824Y-79078723D01*
X163398822Y-79078724D01*
X163163991Y-79139868D01*
X163163988Y-79139869D01*
X162942886Y-79239813D01*
X162942874Y-79239820D01*
X162741836Y-79375698D01*
X162689406Y-79425948D01*
X162627385Y-79458124D01*
X162557815Y-79451660D01*
X162502783Y-79408611D01*
X162499797Y-79404246D01*
X162495640Y-79397883D01*
X162448164Y-79325215D01*
X162279744Y-79142262D01*
X162083509Y-78989526D01*
X162083507Y-78989525D01*
X162083506Y-78989524D01*
X161864811Y-78871172D01*
X161864802Y-78871169D01*
X161629616Y-78790429D01*
X161384335Y-78749500D01*
X161135665Y-78749500D01*
X160890383Y-78790429D01*
X160655197Y-78871169D01*
X160655188Y-78871172D01*
X160436493Y-78989524D01*
X160240257Y-79142261D01*
X160071833Y-79325217D01*
X159935824Y-79533396D01*
X159928405Y-79550311D01*
X159883449Y-79603797D01*
X159816713Y-79624486D01*
X159814850Y-79624500D01*
X156205150Y-79624500D01*
X156138111Y-79604815D01*
X156092356Y-79552011D01*
X156091595Y-79550311D01*
X156084175Y-79533396D01*
X155948166Y-79325217D01*
X155911482Y-79285368D01*
X155779744Y-79142262D01*
X155583509Y-78989526D01*
X155583507Y-78989525D01*
X155583506Y-78989524D01*
X155364811Y-78871172D01*
X155364802Y-78871169D01*
X155129616Y-78790429D01*
X154884335Y-78749500D01*
X154635665Y-78749500D01*
X154390383Y-78790429D01*
X154155197Y-78871169D01*
X154155188Y-78871172D01*
X153936493Y-78989524D01*
X153740257Y-79142261D01*
X153571832Y-79325219D01*
X153506908Y-79424593D01*
X153453762Y-79469949D01*
X153384531Y-79479373D01*
X153325202Y-79453247D01*
X153139730Y-79303489D01*
X153139729Y-79303488D01*
X153139726Y-79303486D01*
X152927890Y-79185147D01*
X152699100Y-79104311D01*
X152699086Y-79104307D01*
X152459937Y-79063300D01*
X152459928Y-79063300D01*
X151215825Y-79063300D01*
X151148786Y-79043615D01*
X151103031Y-78990811D01*
X151093087Y-78921653D01*
X151110831Y-78873328D01*
X151125788Y-78849523D01*
X151125789Y-78849522D01*
X151185368Y-78679255D01*
X151185369Y-78679249D01*
X151205565Y-78500003D01*
X151205565Y-78499996D01*
X151185369Y-78320750D01*
X151185368Y-78320745D01*
X151125788Y-78150475D01*
X151072691Y-78065973D01*
X151053690Y-77998736D01*
X151072691Y-77934027D01*
X151125788Y-77849524D01*
X151129418Y-77839150D01*
X151185368Y-77679255D01*
X151190073Y-77637500D01*
X151205565Y-77500003D01*
X151205565Y-77499996D01*
X151185369Y-77320750D01*
X151185368Y-77320745D01*
X151174266Y-77289018D01*
X151125789Y-77150478D01*
X151109939Y-77125253D01*
X151096442Y-77103772D01*
X151077442Y-77036535D01*
X151097810Y-76969700D01*
X151151078Y-76924486D01*
X151201436Y-76913800D01*
X151489600Y-76913800D01*
X151489600Y-76255553D01*
X151509285Y-76188514D01*
X151562089Y-76142759D01*
X151631247Y-76132815D01*
X151644416Y-76135444D01*
X151657486Y-76138800D01*
X151657490Y-76138800D01*
X151780492Y-76138800D01*
X151780494Y-76138800D01*
X151780499Y-76138799D01*
X151780503Y-76138799D01*
X151827870Y-76132815D01*
X151850058Y-76130012D01*
X151919036Y-76141138D01*
X151971048Y-76187791D01*
X151989600Y-76253034D01*
X151989600Y-76913800D01*
X152399139Y-76913800D01*
X152580292Y-76898382D01*
X152815040Y-76837258D01*
X153036072Y-76737346D01*
X153036080Y-76737341D01*
X153237050Y-76601508D01*
X153237052Y-76601506D01*
X153305971Y-76535453D01*
X153367991Y-76503277D01*
X153437561Y-76509739D01*
X153492594Y-76552788D01*
X153495580Y-76557153D01*
X153536563Y-76619882D01*
X153536564Y-76619882D01*
X154111482Y-76044964D01*
X154172805Y-76011479D01*
X154242496Y-76016463D01*
X154298430Y-76058334D01*
X154301514Y-76063249D01*
X154301549Y-76063225D01*
X154306441Y-76070156D01*
X154394398Y-76164334D01*
X154409638Y-76180652D01*
X154444698Y-76201973D01*
X154491749Y-76253623D01*
X154503407Y-76322513D01*
X154475970Y-76386770D01*
X154467950Y-76395601D01*
X153889942Y-76973609D01*
X153936768Y-77010055D01*
X153936770Y-77010056D01*
X154155385Y-77128364D01*
X154155396Y-77128369D01*
X154390506Y-77209083D01*
X154635707Y-77250000D01*
X154884293Y-77250000D01*
X155129493Y-77209083D01*
X155364603Y-77128369D01*
X155364614Y-77128364D01*
X155583228Y-77010057D01*
X155583231Y-77010055D01*
X155630056Y-76973609D01*
X155053165Y-76396718D01*
X155019680Y-76335395D01*
X155024664Y-76265703D01*
X155062588Y-76212853D01*
X155165739Y-76128934D01*
X155216052Y-76057655D01*
X155270793Y-76014239D01*
X155340318Y-76007310D01*
X155402553Y-76039068D01*
X155405037Y-76041484D01*
X155983434Y-76619882D01*
X156083731Y-76466369D01*
X156183587Y-76238717D01*
X156244612Y-75997738D01*
X156244614Y-75997729D01*
X156265141Y-75750005D01*
X156265141Y-75749994D01*
X156244614Y-75502270D01*
X156244612Y-75502261D01*
X156183587Y-75261282D01*
X156083731Y-75033630D01*
X155983434Y-74880116D01*
X155408517Y-75455034D01*
X155347194Y-75488519D01*
X155277502Y-75483535D01*
X155221569Y-75441663D01*
X155218486Y-75436750D01*
X155218451Y-75436775D01*
X155213558Y-75429843D01*
X155158371Y-75370753D01*
X155110362Y-75319348D01*
X155082769Y-75302568D01*
X155075300Y-75298026D01*
X155028248Y-75246374D01*
X155016591Y-75177484D01*
X155044029Y-75113227D01*
X155052048Y-75104397D01*
X155630056Y-74526389D01*
X155583229Y-74489943D01*
X155364614Y-74371635D01*
X155364603Y-74371630D01*
X155129493Y-74290916D01*
X154884293Y-74250000D01*
X154635707Y-74250000D01*
X154390506Y-74290916D01*
X154155396Y-74371630D01*
X154155390Y-74371632D01*
X153936761Y-74489949D01*
X153889942Y-74526388D01*
X153889942Y-74526390D01*
X154466833Y-75103280D01*
X154500318Y-75164603D01*
X154495334Y-75234294D01*
X154457408Y-75287148D01*
X154354262Y-75371064D01*
X154354258Y-75371069D01*
X154303947Y-75442343D01*
X154249204Y-75485760D01*
X154179679Y-75492689D01*
X154117444Y-75460930D01*
X154114962Y-75458515D01*
X153581960Y-74925513D01*
X153548475Y-74864190D01*
X153553459Y-74794498D01*
X153565450Y-74775840D01*
X153566670Y-74765441D01*
X153488438Y-74638385D01*
X153328178Y-74456293D01*
X153248256Y-74391761D01*
X153208463Y-74334330D01*
X153206036Y-74264502D01*
X153238471Y-74207606D01*
X153283816Y-74162262D01*
X153283816Y-74162261D01*
X153759826Y-73686252D01*
X153759825Y-73686251D01*
X153774704Y-73671372D01*
X153791816Y-73654262D01*
X153814037Y-73618895D01*
X153818052Y-73613236D01*
X153844091Y-73580587D01*
X153862215Y-73542949D01*
X153865564Y-73536891D01*
X153887789Y-73501522D01*
X153901581Y-73462103D01*
X153904242Y-73455681D01*
X153907638Y-73448627D01*
X153922359Y-73418061D01*
X153931652Y-73377342D01*
X153933574Y-73370675D01*
X153947368Y-73331255D01*
X153952044Y-73289747D01*
X153953204Y-73282919D01*
X153962500Y-73242195D01*
X153962500Y-73061806D01*
X153962500Y-73061805D01*
X153962500Y-71212001D01*
X154401500Y-71212001D01*
X154401501Y-71212018D01*
X154412000Y-71314796D01*
X154412001Y-71314799D01*
X154467185Y-71481331D01*
X154467187Y-71481336D01*
X154483382Y-71507592D01*
X154559288Y-71630656D01*
X154683344Y-71754712D01*
X154832666Y-71846814D01*
X154832667Y-71846814D01*
X154838813Y-71850605D01*
X154837706Y-71852399D01*
X154882337Y-71891687D01*
X154901500Y-71957908D01*
X154901500Y-72341564D01*
X154901110Y-72348502D01*
X154898925Y-72367902D01*
X154896435Y-72389999D01*
X154896435Y-72390003D01*
X154901259Y-72432814D01*
X154901260Y-72432824D01*
X154909746Y-72508138D01*
X154916632Y-72569255D01*
X154976211Y-72739523D01*
X155051598Y-72859500D01*
X155072184Y-72892262D01*
X155199738Y-73019816D01*
X155266563Y-73061805D01*
X155327752Y-73100253D01*
X155352478Y-73115789D01*
X155507747Y-73170120D01*
X155522745Y-73175368D01*
X155522750Y-73175369D01*
X155701996Y-73195565D01*
X155702000Y-73195565D01*
X155702004Y-73195565D01*
X155881249Y-73175369D01*
X155881252Y-73175368D01*
X155881255Y-73175368D01*
X156051522Y-73115789D01*
X156204262Y-73019816D01*
X156331816Y-72892262D01*
X156427789Y-72739522D01*
X156487368Y-72569255D01*
X156494254Y-72508138D01*
X156494545Y-72505556D01*
X156502498Y-72434972D01*
X156502498Y-72434971D01*
X156502500Y-72434954D01*
X156502500Y-72434953D01*
X156507565Y-72390000D01*
X156502889Y-72348502D01*
X156502500Y-72341564D01*
X156502500Y-71957908D01*
X156522185Y-71890869D01*
X156566271Y-71852363D01*
X156565187Y-71850605D01*
X156571332Y-71846814D01*
X156571334Y-71846814D01*
X156720656Y-71754712D01*
X156844712Y-71630656D01*
X156936814Y-71481334D01*
X156991999Y-71314797D01*
X157002500Y-71212009D01*
X157002499Y-69596003D01*
X160230435Y-69596003D01*
X160250630Y-69775249D01*
X160250631Y-69775254D01*
X160310211Y-69945523D01*
X160400802Y-70089697D01*
X160406184Y-70098262D01*
X160533738Y-70225816D01*
X160596608Y-70265320D01*
X160680137Y-70317805D01*
X160686478Y-70321789D01*
X160833419Y-70373206D01*
X160856745Y-70381368D01*
X160856750Y-70381369D01*
X161035996Y-70401565D01*
X161036000Y-70401565D01*
X161036002Y-70401565D01*
X161048599Y-70400145D01*
X161077497Y-70396889D01*
X161084436Y-70396500D01*
X161643501Y-70396500D01*
X161710540Y-70416185D01*
X161756295Y-70468989D01*
X161767501Y-70520500D01*
X161767501Y-71212018D01*
X161778000Y-71314796D01*
X161778001Y-71314799D01*
X161833185Y-71481331D01*
X161833187Y-71481336D01*
X161849382Y-71507592D01*
X161925288Y-71630656D01*
X162049344Y-71754712D01*
X162198666Y-71846814D01*
X162365203Y-71901999D01*
X162467991Y-71912500D01*
X163668008Y-71912499D01*
X163770797Y-71901999D01*
X163937334Y-71846814D01*
X164086656Y-71754712D01*
X164210712Y-71630656D01*
X164302814Y-71481334D01*
X164357999Y-71314797D01*
X164368500Y-71212009D01*
X164368499Y-68111992D01*
X164362166Y-68050000D01*
X164357999Y-68009203D01*
X164357998Y-68009200D01*
X164336249Y-67943567D01*
X164302814Y-67842666D01*
X164210712Y-67693344D01*
X164086656Y-67569288D01*
X163954349Y-67487681D01*
X163937336Y-67477187D01*
X163937331Y-67477185D01*
X163935862Y-67476698D01*
X163770797Y-67422001D01*
X163770795Y-67422000D01*
X163668010Y-67411500D01*
X162467998Y-67411500D01*
X162467981Y-67411501D01*
X162365203Y-67422000D01*
X162365200Y-67422001D01*
X162198668Y-67477185D01*
X162198663Y-67477187D01*
X162049342Y-67569289D01*
X161925289Y-67693342D01*
X161833187Y-67842663D01*
X161833185Y-67842668D01*
X161810130Y-67912244D01*
X161778001Y-68009203D01*
X161778001Y-68009204D01*
X161778000Y-68009204D01*
X161767500Y-68111983D01*
X161767500Y-68671500D01*
X161747815Y-68738539D01*
X161695011Y-68784294D01*
X161643500Y-68795500D01*
X161084436Y-68795500D01*
X161077497Y-68795110D01*
X161048599Y-68791854D01*
X161036002Y-68790435D01*
X161035996Y-68790435D01*
X160856750Y-68810630D01*
X160856745Y-68810631D01*
X160686476Y-68870211D01*
X160533737Y-68966184D01*
X160406184Y-69093737D01*
X160310211Y-69246476D01*
X160250631Y-69416745D01*
X160250630Y-69416750D01*
X160230435Y-69595996D01*
X160230435Y-69596003D01*
X157002499Y-69596003D01*
X157002499Y-68111992D01*
X156996166Y-68050000D01*
X156991999Y-68009203D01*
X156991998Y-68009200D01*
X156970249Y-67943567D01*
X156936814Y-67842666D01*
X156844712Y-67693344D01*
X156720656Y-67569288D01*
X156588349Y-67487681D01*
X156571336Y-67477187D01*
X156571331Y-67477185D01*
X156569862Y-67476698D01*
X156404797Y-67422001D01*
X156404795Y-67422000D01*
X156302010Y-67411500D01*
X155101998Y-67411500D01*
X155101981Y-67411501D01*
X154999203Y-67422000D01*
X154999200Y-67422001D01*
X154832668Y-67477185D01*
X154832663Y-67477187D01*
X154683342Y-67569289D01*
X154559289Y-67693342D01*
X154467187Y-67842663D01*
X154467185Y-67842668D01*
X154444130Y-67912244D01*
X154412001Y-68009203D01*
X154412001Y-68009204D01*
X154412000Y-68009204D01*
X154401500Y-68111983D01*
X154401500Y-71212001D01*
X153962500Y-71212001D01*
X153962500Y-65995046D01*
X153962500Y-65949806D01*
X153953207Y-65909093D01*
X153952042Y-65902233D01*
X153947368Y-65860745D01*
X153935724Y-65827467D01*
X153933576Y-65821328D01*
X153931653Y-65814655D01*
X153931047Y-65812001D01*
X154401500Y-65812001D01*
X154401501Y-65812018D01*
X154412000Y-65914796D01*
X154412001Y-65914799D01*
X154467185Y-66081331D01*
X154467187Y-66081336D01*
X154477675Y-66098340D01*
X154559288Y-66230656D01*
X154683344Y-66354712D01*
X154832666Y-66446814D01*
X154999203Y-66501999D01*
X155101991Y-66512500D01*
X156302008Y-66512499D01*
X156404797Y-66501999D01*
X156571334Y-66446814D01*
X156720656Y-66354712D01*
X156844712Y-66230656D01*
X156936814Y-66081334D01*
X156991999Y-65914797D01*
X157002500Y-65812009D01*
X157002499Y-62711992D01*
X156994420Y-62632908D01*
X156991999Y-62609203D01*
X156991998Y-62609200D01*
X156985335Y-62589092D01*
X156936814Y-62442666D01*
X156844712Y-62293344D01*
X156720656Y-62169288D01*
X156571334Y-62077186D01*
X156571332Y-62077185D01*
X156565187Y-62073395D01*
X156566290Y-62071605D01*
X156521649Y-62032290D01*
X156502500Y-61966091D01*
X156502500Y-61014499D01*
X156522185Y-60947460D01*
X156574989Y-60901705D01*
X156626500Y-60890499D01*
X157003871Y-60890499D01*
X157003872Y-60890499D01*
X157063483Y-60884091D01*
X157198331Y-60833796D01*
X157313546Y-60747546D01*
X157399796Y-60632331D01*
X157450091Y-60497483D01*
X157456500Y-60437873D01*
X157456500Y-59801243D01*
X158455500Y-59801243D01*
X158496382Y-60019940D01*
X158571627Y-60214170D01*
X158576752Y-60227398D01*
X158576754Y-60227404D01*
X158693874Y-60416560D01*
X158693876Y-60416562D01*
X158843761Y-60580979D01*
X158884039Y-60611395D01*
X159021311Y-60715058D01*
X159086773Y-60747654D01*
X159138008Y-60795155D01*
X159155500Y-60858653D01*
X159155500Y-61240191D01*
X159155501Y-61240200D01*
X159164791Y-61280908D01*
X159165955Y-61287763D01*
X159170632Y-61329259D01*
X159184420Y-61368662D01*
X159186345Y-61375345D01*
X159195639Y-61416061D01*
X159213759Y-61453688D01*
X159216421Y-61460114D01*
X159230212Y-61499525D01*
X159252422Y-61534872D01*
X159255787Y-61540959D01*
X159273910Y-61578589D01*
X159299941Y-61611230D01*
X159303967Y-61616904D01*
X159326183Y-61652261D01*
X161731181Y-64057259D01*
X161764666Y-64118582D01*
X161767500Y-64144940D01*
X161767500Y-65812001D01*
X161767501Y-65812018D01*
X161778000Y-65914796D01*
X161778001Y-65914799D01*
X161833185Y-66081331D01*
X161833187Y-66081336D01*
X161843675Y-66098340D01*
X161925288Y-66230656D01*
X162049344Y-66354712D01*
X162198666Y-66446814D01*
X162365203Y-66501999D01*
X162467991Y-66512500D01*
X163668008Y-66512499D01*
X163770797Y-66501999D01*
X163937334Y-66446814D01*
X164086656Y-66354712D01*
X164210712Y-66230656D01*
X164302814Y-66081334D01*
X164357999Y-65914797D01*
X164368500Y-65812009D01*
X164368499Y-62711992D01*
X164360420Y-62632908D01*
X164357999Y-62609203D01*
X164357998Y-62609200D01*
X164351335Y-62589092D01*
X164302814Y-62442666D01*
X164210712Y-62293344D01*
X164086656Y-62169288D01*
X163938367Y-62077823D01*
X163937336Y-62077187D01*
X163937331Y-62077185D01*
X163935862Y-62076698D01*
X163770797Y-62022001D01*
X163770795Y-62022000D01*
X163668010Y-62011500D01*
X162467998Y-62011500D01*
X162467981Y-62011501D01*
X162365203Y-62022000D01*
X162365200Y-62022001D01*
X162241397Y-62063026D01*
X162198666Y-62077186D01*
X162198664Y-62077186D01*
X162198661Y-62077188D01*
X162168676Y-62095682D01*
X162101283Y-62114121D01*
X162034620Y-62093197D01*
X162015901Y-62077823D01*
X160853965Y-60915887D01*
X160820480Y-60854564D01*
X160825464Y-60784872D01*
X160867336Y-60728939D01*
X160886374Y-60717206D01*
X160890689Y-60715058D01*
X161068236Y-60580981D01*
X161218124Y-60416562D01*
X161335247Y-60227401D01*
X161340372Y-60214170D01*
X161382945Y-60158768D01*
X161448712Y-60135177D01*
X161516793Y-60150888D01*
X161565572Y-60200911D01*
X161571627Y-60214170D01*
X161576750Y-60227395D01*
X161576754Y-60227404D01*
X161693874Y-60416560D01*
X161693876Y-60416562D01*
X161843761Y-60580979D01*
X162021308Y-60715056D01*
X162021316Y-60715061D01*
X162220461Y-60814224D01*
X162220465Y-60814225D01*
X162220472Y-60814229D01*
X162434464Y-60875115D01*
X162600497Y-60890500D01*
X162600501Y-60890500D01*
X163311499Y-60890500D01*
X163311503Y-60890500D01*
X163477536Y-60875115D01*
X163691528Y-60814229D01*
X163866652Y-60727027D01*
X163890683Y-60715061D01*
X163890683Y-60715060D01*
X163890689Y-60715058D01*
X164068236Y-60580981D01*
X164218124Y-60416562D01*
X164335247Y-60227401D01*
X164415618Y-60019940D01*
X164456500Y-59801243D01*
X164456500Y-59578757D01*
X164415618Y-59360060D01*
X164335247Y-59152599D01*
X164327367Y-59139873D01*
X164218125Y-58963439D01*
X164218123Y-58963437D01*
X164068238Y-58799020D01*
X163890691Y-58664943D01*
X163890683Y-58664938D01*
X163691538Y-58565775D01*
X163691523Y-58565769D01*
X163477537Y-58504885D01*
X163477535Y-58504884D01*
X163357865Y-58493796D01*
X163311503Y-58489500D01*
X162600497Y-58489500D01*
X162555601Y-58493660D01*
X162434464Y-58504884D01*
X162434462Y-58504885D01*
X162220476Y-58565769D01*
X162220461Y-58565775D01*
X162021316Y-58664938D01*
X162021308Y-58664943D01*
X161843761Y-58799020D01*
X161693876Y-58963437D01*
X161693874Y-58963439D01*
X161576754Y-59152595D01*
X161576748Y-59152607D01*
X161571626Y-59165831D01*
X161529053Y-59221232D01*
X161463286Y-59244822D01*
X161395205Y-59229110D01*
X161346427Y-59179086D01*
X161340374Y-59165831D01*
X161335251Y-59152607D01*
X161335245Y-59152595D01*
X161218125Y-58963439D01*
X161218123Y-58963437D01*
X161068238Y-58799020D01*
X160890691Y-58664943D01*
X160890683Y-58664938D01*
X160691538Y-58565775D01*
X160691523Y-58565769D01*
X160477537Y-58504885D01*
X160477535Y-58504884D01*
X160357865Y-58493796D01*
X160311503Y-58489500D01*
X159600497Y-58489500D01*
X159555601Y-58493660D01*
X159434464Y-58504884D01*
X159434462Y-58504885D01*
X159220476Y-58565769D01*
X159220461Y-58565775D01*
X159021316Y-58664938D01*
X159021308Y-58664943D01*
X158843761Y-58799020D01*
X158693876Y-58963437D01*
X158693874Y-58963439D01*
X158576754Y-59152595D01*
X158576753Y-59152599D01*
X158496382Y-59360060D01*
X158455500Y-59578757D01*
X158455500Y-59801243D01*
X157456500Y-59801243D01*
X157456499Y-58942128D01*
X157450989Y-58890871D01*
X157450091Y-58882516D01*
X157399797Y-58747671D01*
X157399793Y-58747664D01*
X157313547Y-58632455D01*
X157313544Y-58632452D01*
X157198335Y-58546206D01*
X157198328Y-58546202D01*
X157063482Y-58495908D01*
X157063483Y-58495908D01*
X157003883Y-58489501D01*
X157003881Y-58489500D01*
X157003873Y-58489500D01*
X157003864Y-58489500D01*
X154908129Y-58489500D01*
X154908123Y-58489501D01*
X154848516Y-58495908D01*
X154713671Y-58546202D01*
X154713664Y-58546206D01*
X154598455Y-58632452D01*
X154598452Y-58632455D01*
X154512206Y-58747664D01*
X154512202Y-58747671D01*
X154461908Y-58882517D01*
X154455501Y-58942116D01*
X154455501Y-58942123D01*
X154455500Y-58942135D01*
X154455500Y-60437870D01*
X154455501Y-60437876D01*
X154461908Y-60497483D01*
X154512202Y-60632328D01*
X154512206Y-60632335D01*
X154598452Y-60747544D01*
X154598455Y-60747547D01*
X154713664Y-60833793D01*
X154713673Y-60833798D01*
X154820832Y-60873765D01*
X154876766Y-60915635D01*
X154901184Y-60981099D01*
X154901500Y-60989947D01*
X154901500Y-61966091D01*
X154881815Y-62033130D01*
X154837731Y-62071641D01*
X154838813Y-62073395D01*
X154832667Y-62077185D01*
X154832666Y-62077186D01*
X154764283Y-62119365D01*
X154683342Y-62169289D01*
X154559289Y-62293342D01*
X154467187Y-62442663D01*
X154467185Y-62442668D01*
X154453489Y-62484000D01*
X154412001Y-62609203D01*
X154412001Y-62609204D01*
X154412000Y-62609204D01*
X154401500Y-62711983D01*
X154401500Y-65812001D01*
X153931047Y-65812001D01*
X153922360Y-65773939D01*
X153906956Y-65741953D01*
X153904239Y-65736310D01*
X153901576Y-65729881D01*
X153897867Y-65719280D01*
X153887789Y-65690478D01*
X153887787Y-65690475D01*
X153887787Y-65690474D01*
X153880992Y-65679661D01*
X153865569Y-65655116D01*
X153862218Y-65649054D01*
X153844092Y-65611413D01*
X153818048Y-65578755D01*
X153814032Y-65573095D01*
X153791816Y-65537738D01*
X153681703Y-65427625D01*
X153681701Y-65427622D01*
X153492759Y-65238680D01*
X153459274Y-65177357D01*
X153464258Y-65107665D01*
X153492756Y-65063320D01*
X153759826Y-64796252D01*
X153759825Y-64796252D01*
X153791816Y-64764262D01*
X153791817Y-64764259D01*
X153796078Y-64759999D01*
X153798627Y-64753420D01*
X153814041Y-64728889D01*
X153818039Y-64723255D01*
X153844092Y-64690587D01*
X153862208Y-64652965D01*
X153865575Y-64646874D01*
X153886956Y-64612847D01*
X153887789Y-64611522D01*
X153901578Y-64572109D01*
X153904235Y-64565695D01*
X153922360Y-64528061D01*
X153931652Y-64487349D01*
X153933573Y-64480676D01*
X153947368Y-64441255D01*
X153952043Y-64399760D01*
X153953208Y-64392905D01*
X153957937Y-64372186D01*
X153962500Y-64352194D01*
X153962500Y-64310427D01*
X153962889Y-64303496D01*
X153967565Y-64262000D01*
X153962889Y-64220502D01*
X153962500Y-64213564D01*
X153962500Y-64171807D01*
X153962500Y-64171806D01*
X153953207Y-64131093D01*
X153952042Y-64124233D01*
X153947368Y-64082745D01*
X153942628Y-64069200D01*
X153933576Y-64043328D01*
X153931653Y-64036655D01*
X153922360Y-63995939D01*
X153911872Y-63974161D01*
X153904239Y-63958310D01*
X153901576Y-63951881D01*
X153897550Y-63940374D01*
X153887789Y-63912478D01*
X153887787Y-63912475D01*
X153887787Y-63912474D01*
X153878730Y-63898061D01*
X153865569Y-63877116D01*
X153862218Y-63871054D01*
X153844092Y-63833413D01*
X153818050Y-63800757D01*
X153814032Y-63795094D01*
X153791816Y-63759738D01*
X153762296Y-63730218D01*
X153757659Y-63725030D01*
X153752211Y-63718199D01*
X153731621Y-63692379D01*
X153718123Y-63681615D01*
X153698968Y-63666339D01*
X153693780Y-63661702D01*
X153664261Y-63632183D01*
X153628904Y-63609966D01*
X153623231Y-63605940D01*
X153590587Y-63579908D01*
X153552962Y-63561788D01*
X153546874Y-63558423D01*
X153518790Y-63540778D01*
X153511522Y-63536211D01*
X153511520Y-63536210D01*
X153511518Y-63536209D01*
X153472107Y-63522418D01*
X153465680Y-63519756D01*
X153433835Y-63504420D01*
X153428061Y-63501640D01*
X153428058Y-63501639D01*
X153428052Y-63501637D01*
X153387345Y-63492345D01*
X153380662Y-63490420D01*
X153341259Y-63476632D01*
X153299763Y-63471955D01*
X153292908Y-63470791D01*
X153252200Y-63461501D01*
X153252196Y-63461500D01*
X153252194Y-63461500D01*
X153252191Y-63461500D01*
X153210436Y-63461500D01*
X153203497Y-63461110D01*
X153174599Y-63457854D01*
X153162002Y-63456435D01*
X153161998Y-63456435D01*
X153149400Y-63457854D01*
X153120502Y-63461110D01*
X153113564Y-63461500D01*
X153071806Y-63461500D01*
X153065888Y-63462850D01*
X153031089Y-63470791D01*
X153024235Y-63471955D01*
X152982744Y-63476632D01*
X152943341Y-63490419D01*
X152936659Y-63492344D01*
X152895939Y-63501640D01*
X152858306Y-63519761D01*
X152851880Y-63522423D01*
X152812475Y-63536212D01*
X152777123Y-63558424D01*
X152771037Y-63561787D01*
X152733413Y-63579907D01*
X152733408Y-63579911D01*
X152700762Y-63605944D01*
X152695090Y-63609969D01*
X152659738Y-63632183D01*
X152659733Y-63632187D01*
X152610310Y-63681609D01*
X152610306Y-63681615D01*
X151977741Y-64314181D01*
X151916418Y-64347666D01*
X151890060Y-64350500D01*
X149607940Y-64350500D01*
X149540901Y-64330815D01*
X149520259Y-64314181D01*
X148664819Y-63458740D01*
X148631334Y-63397417D01*
X148628500Y-63371059D01*
X148628500Y-63232908D01*
X148648185Y-63165869D01*
X148700989Y-63120114D01*
X148757178Y-63111548D01*
X148757179Y-63109500D01*
X148764981Y-63109500D01*
X148785016Y-63109500D01*
X148804413Y-63111026D01*
X148824196Y-63114160D01*
X148870583Y-63109775D01*
X148876422Y-63109500D01*
X149092773Y-63109500D01*
X149159812Y-63129185D01*
X149194348Y-63162377D01*
X149329500Y-63355395D01*
X149329505Y-63355401D01*
X149496599Y-63522495D01*
X149586155Y-63585203D01*
X149690165Y-63658032D01*
X149690167Y-63658033D01*
X149690170Y-63658035D01*
X149904337Y-63757903D01*
X150132592Y-63819063D01*
X150296610Y-63833413D01*
X150367999Y-63839659D01*
X150368000Y-63839659D01*
X150368001Y-63839659D01*
X150439390Y-63833413D01*
X150603408Y-63819063D01*
X150831663Y-63757903D01*
X151045830Y-63658035D01*
X151239401Y-63522495D01*
X151406495Y-63355401D01*
X151542035Y-63161830D01*
X151641903Y-62947663D01*
X151703063Y-62719408D01*
X151723659Y-62484000D01*
X151703063Y-62248592D01*
X151641903Y-62020337D01*
X151542035Y-61806171D01*
X151518076Y-61771953D01*
X151406494Y-61612597D01*
X151239402Y-61445506D01*
X151239395Y-61445501D01*
X151236120Y-61443208D01*
X151145586Y-61379815D01*
X151045834Y-61309967D01*
X151045831Y-61309965D01*
X151045830Y-61309965D01*
X150979426Y-61279000D01*
X150923483Y-61252913D01*
X150871044Y-61206740D01*
X150851892Y-61139547D01*
X150872108Y-61072665D01*
X150904762Y-61038959D01*
X150985401Y-60982495D01*
X151152495Y-60815401D01*
X151288035Y-60621830D01*
X151387903Y-60407663D01*
X151449063Y-60179408D01*
X151469659Y-59944000D01*
X151468558Y-59931421D01*
X151462742Y-59864936D01*
X151449063Y-59708592D01*
X151391715Y-59494562D01*
X151387905Y-59480344D01*
X151387904Y-59480343D01*
X151387903Y-59480337D01*
X151288035Y-59266171D01*
X151285814Y-59262998D01*
X151152494Y-59072597D01*
X150985402Y-58905506D01*
X150985401Y-58905505D01*
X150904815Y-58849078D01*
X150904291Y-58848711D01*
X150860666Y-58794134D01*
X150853474Y-58724635D01*
X150884996Y-58662281D01*
X150923011Y-58634754D01*
X151045575Y-58577601D01*
X151045577Y-58577600D01*
X151239082Y-58442105D01*
X151406105Y-58275082D01*
X151541600Y-58081578D01*
X151641429Y-57867492D01*
X151641432Y-57867486D01*
X151698636Y-57654000D01*
X150981347Y-57654000D01*
X150914308Y-57634315D01*
X150868553Y-57581511D01*
X150858609Y-57512353D01*
X150862369Y-57495067D01*
X150864143Y-57489022D01*
X150868000Y-57475889D01*
X150868000Y-57433933D01*
X156901668Y-57433933D01*
X156925069Y-57566638D01*
X156932135Y-57606711D01*
X157001623Y-57767804D01*
X157001624Y-57767806D01*
X157001626Y-57767809D01*
X157059231Y-57845185D01*
X157106390Y-57908530D01*
X157240786Y-58021302D01*
X157292973Y-58047511D01*
X157397562Y-58100038D01*
X157397563Y-58100038D01*
X157397567Y-58100040D01*
X157568279Y-58140500D01*
X157568282Y-58140500D01*
X157699701Y-58140500D01*
X157699709Y-58140500D01*
X157830255Y-58125241D01*
X157995117Y-58065237D01*
X158141696Y-57968830D01*
X158262092Y-57841218D01*
X158349812Y-57689281D01*
X158400130Y-57521210D01*
X158405213Y-57433933D01*
X163901668Y-57433933D01*
X163925069Y-57566638D01*
X163932135Y-57606711D01*
X164001623Y-57767804D01*
X164001624Y-57767806D01*
X164001626Y-57767809D01*
X164059231Y-57845185D01*
X164106390Y-57908530D01*
X164240786Y-58021302D01*
X164292973Y-58047511D01*
X164397562Y-58100038D01*
X164397563Y-58100038D01*
X164397567Y-58100040D01*
X164568279Y-58140500D01*
X164568282Y-58140500D01*
X164699701Y-58140500D01*
X164699709Y-58140500D01*
X164830255Y-58125241D01*
X164995117Y-58065237D01*
X165141696Y-57968830D01*
X165262092Y-57841218D01*
X165349812Y-57689281D01*
X165400130Y-57521210D01*
X165410331Y-57346065D01*
X165379865Y-57173289D01*
X165310377Y-57012196D01*
X165303782Y-57003338D01*
X165229828Y-56904000D01*
X165205610Y-56871470D01*
X165197837Y-56864948D01*
X165071214Y-56758698D01*
X165071212Y-56758697D01*
X164914437Y-56679961D01*
X164914433Y-56679960D01*
X164743721Y-56639500D01*
X164612291Y-56639500D01*
X164507854Y-56651707D01*
X164481743Y-56654759D01*
X164481740Y-56654760D01*
X164316884Y-56714762D01*
X164316880Y-56714764D01*
X164170306Y-56811167D01*
X164170305Y-56811168D01*
X164049910Y-56938778D01*
X163962188Y-57090718D01*
X163911870Y-57258789D01*
X163911869Y-57258794D01*
X163901668Y-57433933D01*
X158405213Y-57433933D01*
X158410331Y-57346065D01*
X158379865Y-57173289D01*
X158310377Y-57012196D01*
X158303782Y-57003338D01*
X158229828Y-56904000D01*
X158205610Y-56871470D01*
X158197837Y-56864948D01*
X158071214Y-56758698D01*
X158071212Y-56758697D01*
X157914437Y-56679961D01*
X157914433Y-56679960D01*
X157743721Y-56639500D01*
X157612291Y-56639500D01*
X157507854Y-56651707D01*
X157481743Y-56654759D01*
X157481740Y-56654760D01*
X157316884Y-56714762D01*
X157316880Y-56714764D01*
X157170306Y-56811167D01*
X157170305Y-56811168D01*
X157049910Y-56938778D01*
X156962188Y-57090718D01*
X156911870Y-57258789D01*
X156911869Y-57258794D01*
X156901668Y-57433933D01*
X150868000Y-57433933D01*
X150868000Y-57332111D01*
X150862368Y-57312933D01*
X150862370Y-57243064D01*
X150900145Y-57184286D01*
X150963701Y-57155262D01*
X150981347Y-57154000D01*
X151698636Y-57154000D01*
X151698635Y-57153999D01*
X151641432Y-56940513D01*
X151641429Y-56940507D01*
X151541600Y-56726422D01*
X151541599Y-56726420D01*
X151406113Y-56532926D01*
X151406108Y-56532920D01*
X151239081Y-56365893D01*
X151218796Y-56351689D01*
X151175172Y-56297112D01*
X151167980Y-56227613D01*
X151199503Y-56165259D01*
X151215604Y-56150854D01*
X151321546Y-56071546D01*
X151407796Y-55956331D01*
X151458091Y-55821483D01*
X151464500Y-55761873D01*
X151464500Y-55340000D01*
X153381948Y-55340000D01*
X153396864Y-55419804D01*
X153477201Y-55627177D01*
X153477202Y-55627179D01*
X153594278Y-55816261D01*
X153744099Y-55980608D01*
X153921574Y-56114631D01*
X154120649Y-56213759D01*
X154334560Y-56274621D01*
X154500523Y-56290000D01*
X154606000Y-56290000D01*
X154606000Y-55514000D01*
X154625685Y-55446961D01*
X154678489Y-55401206D01*
X154730000Y-55390000D01*
X154982000Y-55390000D01*
X155049039Y-55409685D01*
X155094794Y-55462489D01*
X155106000Y-55514000D01*
X155106000Y-56290000D01*
X155211477Y-56290000D01*
X155377439Y-56274621D01*
X155591350Y-56213759D01*
X155790425Y-56114631D01*
X155967900Y-55980608D01*
X156117721Y-55816261D01*
X156234797Y-55627179D01*
X156234798Y-55627177D01*
X156315135Y-55419804D01*
X156330052Y-55340000D01*
X155560979Y-55340000D01*
X155493940Y-55320315D01*
X155448185Y-55267511D01*
X155438241Y-55198353D01*
X155441713Y-55182066D01*
X155459894Y-55118162D01*
X155459895Y-55118160D01*
X155449546Y-55006482D01*
X155449546Y-55006479D01*
X155449544Y-55006475D01*
X155447115Y-54997937D01*
X155447701Y-54928070D01*
X155485966Y-54869610D01*
X155549763Y-54841119D01*
X155566381Y-54840000D01*
X156330052Y-54840000D01*
X156315135Y-54760195D01*
X156234798Y-54552822D01*
X156234797Y-54552820D01*
X156117721Y-54363738D01*
X155967900Y-54199391D01*
X155790425Y-54065368D01*
X155591350Y-53966240D01*
X155377439Y-53905378D01*
X155211477Y-53890000D01*
X155106000Y-53890000D01*
X155106000Y-54666000D01*
X155086315Y-54733039D01*
X155033511Y-54778794D01*
X154982000Y-54790000D01*
X154730000Y-54790000D01*
X154662961Y-54770315D01*
X154617206Y-54717511D01*
X154606000Y-54666000D01*
X154606000Y-53890000D01*
X154500523Y-53890000D01*
X154334560Y-53905378D01*
X154120649Y-53966240D01*
X153921574Y-54065368D01*
X153744099Y-54199391D01*
X153594278Y-54363738D01*
X153477202Y-54552820D01*
X153477201Y-54552822D01*
X153396864Y-54760195D01*
X153381948Y-54840000D01*
X154151021Y-54840000D01*
X154218060Y-54859685D01*
X154263815Y-54912489D01*
X154273759Y-54981647D01*
X154270287Y-54997934D01*
X154252105Y-55061837D01*
X154252104Y-55061837D01*
X154262453Y-55173517D01*
X154264885Y-55182063D01*
X154264299Y-55251930D01*
X154226034Y-55310390D01*
X154162237Y-55338881D01*
X154145619Y-55340000D01*
X153381948Y-55340000D01*
X151464500Y-55340000D01*
X151464499Y-53966128D01*
X151458091Y-53906517D01*
X151457666Y-53905378D01*
X151407797Y-53771671D01*
X151407793Y-53771664D01*
X151353255Y-53698811D01*
X151328837Y-53633347D01*
X151343688Y-53565074D01*
X151393093Y-53515668D01*
X151452521Y-53500500D01*
X163934108Y-53500500D01*
X163998122Y-53500500D01*
X164001866Y-53500613D01*
G37*
%TD.AperFunction*%
%TA.AperFunction,Conductor*%
G36*
X134789017Y-70148330D02*
G01*
X134840397Y-70195679D01*
X134858021Y-70263290D01*
X134857437Y-70272098D01*
X134852000Y-70325313D01*
X134852000Y-70898669D01*
X134852001Y-70898687D01*
X134862325Y-70999752D01*
X134889181Y-71080797D01*
X134916520Y-71163300D01*
X134916592Y-71163515D01*
X134916593Y-71163518D01*
X134928112Y-71182193D01*
X135002702Y-71303123D01*
X135007161Y-71310351D01*
X135129149Y-71432339D01*
X135129154Y-71432343D01*
X135175616Y-71461000D01*
X135205595Y-71479491D01*
X135252321Y-71531438D01*
X135264500Y-71585030D01*
X135264500Y-72307255D01*
X135262775Y-72322872D01*
X135263061Y-72322899D01*
X135262326Y-72330665D01*
X135264500Y-72399814D01*
X135264500Y-72429343D01*
X135264501Y-72429360D01*
X135265368Y-72436231D01*
X135265826Y-72442050D01*
X135267290Y-72488624D01*
X135267291Y-72488627D01*
X135272880Y-72507867D01*
X135276824Y-72526911D01*
X135279336Y-72546792D01*
X135296054Y-72589019D01*
X135296490Y-72590119D01*
X135298382Y-72595647D01*
X135306728Y-72624374D01*
X135311382Y-72640390D01*
X135320649Y-72656061D01*
X135321580Y-72657634D01*
X135330138Y-72675103D01*
X135337514Y-72693732D01*
X135364898Y-72731423D01*
X135368106Y-72736307D01*
X135391827Y-72776416D01*
X135391833Y-72776424D01*
X135405990Y-72790580D01*
X135418628Y-72805376D01*
X135430405Y-72821586D01*
X135430406Y-72821587D01*
X135466309Y-72851288D01*
X135470620Y-72855210D01*
X135810975Y-73195565D01*
X136151194Y-73535784D01*
X136161019Y-73548048D01*
X136161240Y-73547866D01*
X136166210Y-73553873D01*
X136166213Y-73553876D01*
X136166214Y-73553877D01*
X136216651Y-73601241D01*
X136237530Y-73622120D01*
X136243004Y-73626366D01*
X136247442Y-73630156D01*
X136281418Y-73662062D01*
X136281422Y-73662064D01*
X136298973Y-73671713D01*
X136315231Y-73682392D01*
X136331064Y-73694674D01*
X136343791Y-73700181D01*
X136373837Y-73713183D01*
X136379081Y-73715752D01*
X136419908Y-73738197D01*
X136439312Y-73743179D01*
X136457710Y-73749478D01*
X136476105Y-73757438D01*
X136522129Y-73764726D01*
X136527832Y-73765907D01*
X136572981Y-73777500D01*
X136593016Y-73777500D01*
X136612413Y-73779026D01*
X136632196Y-73782160D01*
X136678583Y-73777775D01*
X136684422Y-73777500D01*
X138150500Y-73777500D01*
X138217539Y-73797185D01*
X138263294Y-73849989D01*
X138274500Y-73901500D01*
X138274500Y-79500500D01*
X138254815Y-79567539D01*
X138202011Y-79613294D01*
X138150500Y-79624500D01*
X136163009Y-79624500D01*
X136095970Y-79604815D01*
X136050215Y-79552011D01*
X136049454Y-79550313D01*
X136049143Y-79549605D01*
X136048173Y-79547393D01*
X135999836Y-79473408D01*
X135912166Y-79339217D01*
X135862594Y-79285368D01*
X135743744Y-79156262D01*
X135547509Y-79003526D01*
X135547507Y-79003525D01*
X135547506Y-79003524D01*
X135328811Y-78885172D01*
X135328802Y-78885169D01*
X135093616Y-78804429D01*
X134848335Y-78763500D01*
X134599665Y-78763500D01*
X134354383Y-78804429D01*
X134119197Y-78885169D01*
X134119188Y-78885172D01*
X133900493Y-79003524D01*
X133704257Y-79156261D01*
X133535832Y-79339219D01*
X133482974Y-79420124D01*
X133429828Y-79465481D01*
X133360596Y-79474904D01*
X133301267Y-79448778D01*
X133121329Y-79303488D01*
X132909490Y-79185147D01*
X132680700Y-79104311D01*
X132680686Y-79104307D01*
X132441537Y-79063300D01*
X132441528Y-79063300D01*
X131061646Y-79063300D01*
X131061641Y-79063300D01*
X130880424Y-79078723D01*
X130880422Y-79078724D01*
X130645591Y-79139868D01*
X130645588Y-79139869D01*
X130424486Y-79239813D01*
X130424474Y-79239820D01*
X130223434Y-79375700D01*
X130223432Y-79375702D01*
X130048247Y-79543603D01*
X130048246Y-79543604D01*
X129903956Y-79738695D01*
X129903953Y-79738701D01*
X129902671Y-79741244D01*
X129901845Y-79742125D01*
X129901198Y-79743177D01*
X129900983Y-79743045D01*
X129854907Y-79792237D01*
X129787155Y-79809311D01*
X129720928Y-79787046D01*
X129704275Y-79773085D01*
X129698349Y-79767159D01*
X129684401Y-79758556D01*
X129637677Y-79706608D01*
X129625499Y-79653018D01*
X129625499Y-79496981D01*
X129645184Y-79429942D01*
X129684404Y-79391441D01*
X129698350Y-79382840D01*
X129820340Y-79260850D01*
X129910908Y-79114016D01*
X129965174Y-78950253D01*
X129975500Y-78849177D01*
X129975499Y-78250824D01*
X129965174Y-78149747D01*
X129910908Y-77985984D01*
X129820340Y-77839150D01*
X129706370Y-77725180D01*
X129672886Y-77663858D01*
X129677870Y-77594166D01*
X129706371Y-77549819D01*
X129756194Y-77499996D01*
X129820340Y-77435850D01*
X129910908Y-77289016D01*
X129965174Y-77125253D01*
X129975500Y-77024177D01*
X129975499Y-76653936D01*
X129995183Y-76586899D01*
X130047987Y-76541144D01*
X130117146Y-76531200D01*
X130177398Y-76557462D01*
X130321344Y-76673690D01*
X130321350Y-76673694D01*
X130533117Y-76791994D01*
X130761829Y-76872803D01*
X130761837Y-76872805D01*
X131000906Y-76913799D01*
X131000915Y-76913800D01*
X131471200Y-76913800D01*
X131471200Y-76255553D01*
X131490885Y-76188514D01*
X131543689Y-76142759D01*
X131612847Y-76132815D01*
X131626016Y-76135444D01*
X131639086Y-76138800D01*
X131639090Y-76138800D01*
X131762092Y-76138800D01*
X131762094Y-76138800D01*
X131762099Y-76138799D01*
X131762103Y-76138799D01*
X131809470Y-76132815D01*
X131831658Y-76130012D01*
X131900636Y-76141138D01*
X131952648Y-76187791D01*
X131971200Y-76253034D01*
X131971200Y-76913800D01*
X132380739Y-76913800D01*
X132561892Y-76898382D01*
X132796640Y-76837258D01*
X133017672Y-76737346D01*
X133017680Y-76737341D01*
X133218650Y-76601508D01*
X133218652Y-76601506D01*
X133271122Y-76551217D01*
X133333142Y-76519040D01*
X133402712Y-76525501D01*
X133457745Y-76568550D01*
X133460733Y-76572916D01*
X133500564Y-76633882D01*
X134075482Y-76058964D01*
X134136805Y-76025479D01*
X134206496Y-76030463D01*
X134262430Y-76072334D01*
X134265514Y-76077249D01*
X134265549Y-76077225D01*
X134270441Y-76084156D01*
X134373637Y-76194651D01*
X134373638Y-76194652D01*
X134408698Y-76215973D01*
X134455749Y-76267623D01*
X134467407Y-76336513D01*
X134439970Y-76400770D01*
X134431950Y-76409601D01*
X133853942Y-76987609D01*
X133900768Y-77024055D01*
X133900770Y-77024056D01*
X134119385Y-77142364D01*
X134119396Y-77142369D01*
X134354506Y-77223083D01*
X134599707Y-77264000D01*
X134848293Y-77264000D01*
X135093493Y-77223083D01*
X135328603Y-77142369D01*
X135328614Y-77142364D01*
X135547228Y-77024057D01*
X135547231Y-77024055D01*
X135594056Y-76987609D01*
X135017165Y-76410718D01*
X134983680Y-76349395D01*
X134988664Y-76279703D01*
X135026588Y-76226853D01*
X135129739Y-76142934D01*
X135180052Y-76071655D01*
X135234793Y-76028239D01*
X135304318Y-76021310D01*
X135366553Y-76053068D01*
X135369037Y-76055484D01*
X135947434Y-76633882D01*
X136047731Y-76480369D01*
X136147587Y-76252717D01*
X136208612Y-76011738D01*
X136208614Y-76011729D01*
X136229141Y-75764005D01*
X136229141Y-75763994D01*
X136208614Y-75516270D01*
X136208612Y-75516261D01*
X136147587Y-75275282D01*
X136047731Y-75047630D01*
X135947434Y-74894116D01*
X135372517Y-75469034D01*
X135311194Y-75502519D01*
X135241502Y-75497535D01*
X135185569Y-75455663D01*
X135182486Y-75450750D01*
X135182451Y-75450775D01*
X135177558Y-75443843D01*
X135118349Y-75380447D01*
X135074362Y-75333348D01*
X135051340Y-75319348D01*
X135039300Y-75312026D01*
X134992248Y-75260374D01*
X134980591Y-75191484D01*
X135008029Y-75127227D01*
X135016048Y-75118397D01*
X135594056Y-74540389D01*
X135547229Y-74503943D01*
X135328614Y-74385635D01*
X135328603Y-74385630D01*
X135093493Y-74304916D01*
X134848293Y-74264000D01*
X134599707Y-74264000D01*
X134354506Y-74304916D01*
X134119396Y-74385630D01*
X134119390Y-74385632D01*
X133900761Y-74503949D01*
X133853942Y-74540388D01*
X133853942Y-74540390D01*
X134430833Y-75117280D01*
X134464318Y-75178603D01*
X134459334Y-75248294D01*
X134421408Y-75301148D01*
X134318262Y-75385064D01*
X134318258Y-75385069D01*
X134267947Y-75456343D01*
X134213204Y-75499760D01*
X134143679Y-75506689D01*
X134081444Y-75474930D01*
X134078962Y-75472515D01*
X133545959Y-74939512D01*
X133512474Y-74878189D01*
X133517458Y-74808497D01*
X133545960Y-74764148D01*
X133546896Y-74763211D01*
X133470038Y-74638384D01*
X133309777Y-74456292D01*
X133309773Y-74456288D01*
X133121055Y-74303909D01*
X133121049Y-74303905D01*
X132909282Y-74185605D01*
X132680570Y-74104796D01*
X132680562Y-74104794D01*
X132441493Y-74063800D01*
X131971200Y-74063800D01*
X131971199Y-74722046D01*
X131951514Y-74789086D01*
X131898710Y-74834840D01*
X131829552Y-74844784D01*
X131816373Y-74842153D01*
X131803314Y-74838800D01*
X131680306Y-74838800D01*
X131680294Y-74838800D01*
X131610741Y-74847587D01*
X131541763Y-74836460D01*
X131489751Y-74789806D01*
X131471200Y-74724565D01*
X131471200Y-74063800D01*
X131061661Y-74063800D01*
X130880507Y-74079217D01*
X130645759Y-74140341D01*
X130424727Y-74240253D01*
X130424719Y-74240258D01*
X130223749Y-74376091D01*
X130223746Y-74376093D01*
X130185299Y-74412943D01*
X130123279Y-74445118D01*
X130053709Y-74438656D01*
X129998677Y-74395606D01*
X129975655Y-74329638D01*
X129975499Y-74323420D01*
X129975499Y-74225830D01*
X129975498Y-74225813D01*
X129965174Y-74124747D01*
X129958562Y-74104794D01*
X129910908Y-73960984D01*
X129820340Y-73814150D01*
X129706371Y-73700181D01*
X129672886Y-73638858D01*
X129677870Y-73569166D01*
X129706371Y-73524819D01*
X129729677Y-73501513D01*
X129820340Y-73410850D01*
X129836651Y-73384404D01*
X129888600Y-73337679D01*
X129942191Y-73325500D01*
X132317257Y-73325500D01*
X132332877Y-73327224D01*
X132332904Y-73326939D01*
X132340660Y-73327671D01*
X132340667Y-73327673D01*
X132409814Y-73325500D01*
X132439350Y-73325500D01*
X132446228Y-73324630D01*
X132452041Y-73324172D01*
X132498627Y-73322709D01*
X132517869Y-73317117D01*
X132536912Y-73313174D01*
X132556792Y-73310664D01*
X132600122Y-73293507D01*
X132605646Y-73291617D01*
X132612010Y-73289768D01*
X132650390Y-73278618D01*
X132667629Y-73268422D01*
X132685103Y-73259862D01*
X132703727Y-73252488D01*
X132703727Y-73252487D01*
X132703732Y-73252486D01*
X132741449Y-73225082D01*
X132746305Y-73221892D01*
X132786420Y-73198170D01*
X132800589Y-73183999D01*
X132815379Y-73171368D01*
X132831587Y-73159594D01*
X132861299Y-73123676D01*
X132865212Y-73119376D01*
X133483380Y-72501209D01*
X133544701Y-72467726D01*
X133557158Y-72465674D01*
X133604255Y-72460368D01*
X133774522Y-72400789D01*
X133927262Y-72304816D01*
X134054816Y-72177262D01*
X134150789Y-72024522D01*
X134210368Y-71854255D01*
X134210581Y-71852363D01*
X134230565Y-71675003D01*
X134230565Y-71674996D01*
X134210369Y-71495750D01*
X134210368Y-71495745D01*
X134193889Y-71448652D01*
X134150789Y-71325478D01*
X134150787Y-71325475D01*
X134150787Y-71325474D01*
X134149935Y-71323704D01*
X134149727Y-71322444D01*
X134148489Y-71318905D01*
X134149108Y-71318688D01*
X134138580Y-71254763D01*
X134166300Y-71190627D01*
X134173951Y-71182238D01*
X134257840Y-71098350D01*
X134348408Y-70951516D01*
X134402674Y-70787753D01*
X134413000Y-70686677D01*
X134412999Y-70262996D01*
X134432683Y-70195958D01*
X134485487Y-70150203D01*
X134550881Y-70139777D01*
X134608583Y-70146278D01*
X134619999Y-70147565D01*
X134620000Y-70147565D01*
X134620003Y-70147565D01*
X134720195Y-70136276D01*
X134789017Y-70148330D01*
G37*
%TD.AperFunction*%
%TA.AperFunction,Conductor*%
G36*
X126305697Y-79286627D02*
G01*
X126312180Y-79292663D01*
X126401960Y-79382443D01*
X126542561Y-79469167D01*
X126589285Y-79521115D01*
X126600507Y-79590078D01*
X126572664Y-79654160D01*
X126542561Y-79680244D01*
X126401653Y-79767157D01*
X126395987Y-79771638D01*
X126394224Y-79769408D01*
X126344306Y-79796666D01*
X126317948Y-79799500D01*
X126136432Y-79799500D01*
X126069393Y-79779815D01*
X126023638Y-79727011D01*
X126013694Y-79657853D01*
X126037165Y-79601190D01*
X126040679Y-79596494D01*
X126043796Y-79592331D01*
X126094091Y-79457483D01*
X126100500Y-79397873D01*
X126100499Y-79380346D01*
X126120180Y-79313310D01*
X126172982Y-79267552D01*
X126242140Y-79257605D01*
X126305697Y-79286627D01*
G37*
%TD.AperFunction*%
%TA.AperFunction,Conductor*%
G36*
X141866553Y-76053068D02*
G01*
X141869037Y-76055484D01*
X142447434Y-76633882D01*
X142484530Y-76577104D01*
X142537676Y-76531748D01*
X142606907Y-76522324D01*
X142666237Y-76548450D01*
X142821344Y-76673690D01*
X142821350Y-76673694D01*
X143033117Y-76791994D01*
X143261829Y-76872803D01*
X143261837Y-76872805D01*
X143500906Y-76913799D01*
X143500915Y-76913800D01*
X143971200Y-76913800D01*
X143971200Y-76255553D01*
X143990885Y-76188514D01*
X144043689Y-76142759D01*
X144112847Y-76132815D01*
X144126016Y-76135444D01*
X144139086Y-76138800D01*
X144139090Y-76138800D01*
X144262092Y-76138800D01*
X144262094Y-76138800D01*
X144262099Y-76138799D01*
X144262103Y-76138799D01*
X144309470Y-76132815D01*
X144331658Y-76130012D01*
X144400636Y-76141138D01*
X144452648Y-76187791D01*
X144471200Y-76253034D01*
X144471200Y-76913800D01*
X144880739Y-76913800D01*
X145061892Y-76898382D01*
X145296640Y-76837258D01*
X145517672Y-76737346D01*
X145517680Y-76737341D01*
X145718650Y-76601508D01*
X145718653Y-76601506D01*
X145814699Y-76509453D01*
X145876719Y-76477277D01*
X145946289Y-76483739D01*
X146001322Y-76526788D01*
X146024344Y-76592756D01*
X146024500Y-76598975D01*
X146024500Y-77024169D01*
X146024501Y-77024187D01*
X146034825Y-77125252D01*
X146062605Y-77209083D01*
X146089092Y-77289016D01*
X146165367Y-77412678D01*
X146179661Y-77435851D01*
X146293629Y-77549819D01*
X146327114Y-77611142D01*
X146322130Y-77680834D01*
X146293629Y-77725181D01*
X146179661Y-77839148D01*
X146176510Y-77844257D01*
X146121140Y-77934027D01*
X146093051Y-77979566D01*
X146041103Y-78026290D01*
X145972140Y-78037513D01*
X145921540Y-78019463D01*
X145849522Y-77974211D01*
X145679254Y-77914631D01*
X145679249Y-77914630D01*
X145500004Y-77894435D01*
X145499996Y-77894435D01*
X145320750Y-77914630D01*
X145320745Y-77914631D01*
X145150476Y-77974211D01*
X144997737Y-78070184D01*
X144870184Y-78197737D01*
X144774211Y-78350476D01*
X144714631Y-78520745D01*
X144714630Y-78520750D01*
X144694435Y-78699996D01*
X144694435Y-78700003D01*
X144714630Y-78879249D01*
X144714633Y-78879262D01*
X144721311Y-78898345D01*
X144724873Y-78968124D01*
X144690145Y-79028751D01*
X144628152Y-79060979D01*
X144604270Y-79063300D01*
X143561641Y-79063300D01*
X143380424Y-79078723D01*
X143380422Y-79078724D01*
X143145591Y-79139868D01*
X143145588Y-79139869D01*
X142924486Y-79239813D01*
X142924474Y-79239820D01*
X142723434Y-79375700D01*
X142723431Y-79375702D01*
X142654559Y-79441712D01*
X142592539Y-79473887D01*
X142522969Y-79467425D01*
X142467937Y-79424376D01*
X142464950Y-79420010D01*
X142412166Y-79339217D01*
X142362594Y-79285368D01*
X142243744Y-79156262D01*
X142047509Y-79003526D01*
X142047507Y-79003525D01*
X142047506Y-79003524D01*
X141828811Y-78885172D01*
X141828802Y-78885169D01*
X141593616Y-78804429D01*
X141348335Y-78763500D01*
X141099665Y-78763500D01*
X140854383Y-78804429D01*
X140619197Y-78885169D01*
X140619188Y-78885172D01*
X140400493Y-79003524D01*
X140204257Y-79156261D01*
X140035833Y-79339217D01*
X139899827Y-79547392D01*
X139898546Y-79550313D01*
X139897703Y-79551314D01*
X139897385Y-79551904D01*
X139897263Y-79551838D01*
X139853589Y-79603797D01*
X139786852Y-79624486D01*
X139784991Y-79624500D01*
X139760453Y-79624500D01*
X139693414Y-79604815D01*
X139672776Y-79588185D01*
X139561818Y-79477227D01*
X139528334Y-79415904D01*
X139525500Y-79389546D01*
X139525500Y-76161904D01*
X139545185Y-76094865D01*
X139597989Y-76049110D01*
X139667147Y-76039166D01*
X139730703Y-76068191D01*
X139768477Y-76126969D01*
X139769706Y-76131464D01*
X139800411Y-76252716D01*
X139900266Y-76480364D01*
X140000564Y-76633882D01*
X140575482Y-76058964D01*
X140636805Y-76025479D01*
X140706496Y-76030463D01*
X140762430Y-76072334D01*
X140765514Y-76077249D01*
X140765549Y-76077225D01*
X140770441Y-76084156D01*
X140873637Y-76194651D01*
X140873638Y-76194652D01*
X140908698Y-76215973D01*
X140955749Y-76267623D01*
X140967407Y-76336513D01*
X140939970Y-76400770D01*
X140931950Y-76409601D01*
X140353942Y-76987609D01*
X140400768Y-77024055D01*
X140400770Y-77024056D01*
X140619385Y-77142364D01*
X140619396Y-77142369D01*
X140854506Y-77223083D01*
X141099707Y-77264000D01*
X141348293Y-77264000D01*
X141593493Y-77223083D01*
X141828603Y-77142369D01*
X141828614Y-77142364D01*
X142047228Y-77024057D01*
X142047231Y-77024055D01*
X142094056Y-76987609D01*
X141517165Y-76410718D01*
X141483680Y-76349395D01*
X141488664Y-76279703D01*
X141526588Y-76226853D01*
X141629739Y-76142934D01*
X141680052Y-76071655D01*
X141734793Y-76028239D01*
X141804318Y-76021310D01*
X141866553Y-76053068D01*
G37*
%TD.AperFunction*%
%TA.AperFunction,Conductor*%
G36*
X151042718Y-75258485D02*
G01*
X151088473Y-75311289D01*
X151098417Y-75380447D01*
X151097483Y-75386034D01*
X151085727Y-75447662D01*
X151095457Y-75602321D01*
X151095753Y-75607014D01*
X151080317Y-75675157D01*
X151030491Y-75724137D01*
X150971998Y-75738800D01*
X149736760Y-75738800D01*
X149709943Y-75772012D01*
X149652512Y-75811805D01*
X149582685Y-75814232D01*
X149558404Y-75803915D01*
X149558064Y-75804646D01*
X149551518Y-75801593D01*
X149551516Y-75801592D01*
X149387753Y-75747326D01*
X149387747Y-75747324D01*
X149382726Y-75746249D01*
X149321296Y-75712961D01*
X149287615Y-75651745D01*
X149292376Y-75582038D01*
X149334068Y-75525971D01*
X149382754Y-75503743D01*
X149387740Y-75502675D01*
X149387753Y-75502674D01*
X149551516Y-75448408D01*
X149698350Y-75357840D01*
X149781071Y-75275118D01*
X149842394Y-75241634D01*
X149868752Y-75238800D01*
X150975679Y-75238800D01*
X151042718Y-75258485D01*
G37*
%TD.AperFunction*%
%TA.AperFunction,Conductor*%
G36*
X146047130Y-73797185D02*
G01*
X146092885Y-73849989D01*
X146102829Y-73919147D01*
X146090351Y-73953599D01*
X146092146Y-73954436D01*
X146089091Y-73960986D01*
X146078726Y-73992265D01*
X146034826Y-74124747D01*
X146034826Y-74124748D01*
X146034825Y-74124748D01*
X146024500Y-74225815D01*
X146024500Y-74371686D01*
X146004815Y-74438725D01*
X145952011Y-74484480D01*
X145882853Y-74494424D01*
X145819297Y-74465399D01*
X145813682Y-74459828D01*
X145813579Y-74459936D01*
X145809773Y-74456288D01*
X145621055Y-74303909D01*
X145621049Y-74303905D01*
X145409282Y-74185605D01*
X145180570Y-74104796D01*
X145180562Y-74104794D01*
X144941493Y-74063800D01*
X144471200Y-74063800D01*
X144471200Y-74722046D01*
X144451515Y-74789085D01*
X144398711Y-74834840D01*
X144329553Y-74844784D01*
X144316365Y-74842151D01*
X144303315Y-74838800D01*
X144303314Y-74838800D01*
X144180306Y-74838800D01*
X144180294Y-74838800D01*
X144110741Y-74847587D01*
X144041763Y-74836460D01*
X143989751Y-74789806D01*
X143971200Y-74724565D01*
X143971200Y-74063800D01*
X143561661Y-74063800D01*
X143380507Y-74079217D01*
X143145759Y-74140341D01*
X142924727Y-74240253D01*
X142924719Y-74240258D01*
X142723749Y-74376091D01*
X142723746Y-74376093D01*
X142548624Y-74543935D01*
X142548623Y-74543936D01*
X142404386Y-74738956D01*
X142404379Y-74738969D01*
X142395153Y-74757264D01*
X142395154Y-74757266D01*
X142402039Y-74764151D01*
X142435524Y-74825474D01*
X142430540Y-74895166D01*
X142402039Y-74939513D01*
X141872517Y-75469034D01*
X141811194Y-75502519D01*
X141741502Y-75497535D01*
X141685569Y-75455663D01*
X141682486Y-75450750D01*
X141682451Y-75450775D01*
X141677558Y-75443843D01*
X141618349Y-75380447D01*
X141574362Y-75333348D01*
X141551340Y-75319348D01*
X141539300Y-75312026D01*
X141492248Y-75260374D01*
X141480591Y-75191484D01*
X141508029Y-75127227D01*
X141516048Y-75118397D01*
X142094056Y-74540389D01*
X142047229Y-74503943D01*
X141828614Y-74385635D01*
X141828603Y-74385630D01*
X141593493Y-74304916D01*
X141348293Y-74264000D01*
X141099707Y-74264000D01*
X140854506Y-74304916D01*
X140619396Y-74385630D01*
X140619390Y-74385632D01*
X140400761Y-74503949D01*
X140353942Y-74540388D01*
X140353942Y-74540390D01*
X140930833Y-75117280D01*
X140964318Y-75178603D01*
X140959334Y-75248294D01*
X140921408Y-75301148D01*
X140818262Y-75385064D01*
X140818258Y-75385069D01*
X140767947Y-75456343D01*
X140713204Y-75499760D01*
X140643679Y-75506689D01*
X140581444Y-75474930D01*
X140578962Y-75472515D01*
X140000564Y-74894116D01*
X139900267Y-75047632D01*
X139800411Y-75275282D01*
X139769706Y-75396536D01*
X139734166Y-75456691D01*
X139671745Y-75488083D01*
X139602262Y-75480745D01*
X139547777Y-75437006D01*
X139525588Y-75370753D01*
X139525500Y-75366095D01*
X139525500Y-73901500D01*
X139545185Y-73834461D01*
X139597989Y-73788706D01*
X139649500Y-73777500D01*
X145980091Y-73777500D01*
X146047130Y-73797185D01*
G37*
%TD.AperFunction*%
%TA.AperFunction,Conductor*%
G36*
X139283883Y-69383857D02*
G01*
X139299971Y-69404635D01*
X139378554Y-69532037D01*
X139479982Y-69633465D01*
X139513467Y-69694788D01*
X139508483Y-69764480D01*
X139479983Y-69808827D01*
X139375159Y-69913651D01*
X139284593Y-70060481D01*
X139284591Y-70060486D01*
X139259477Y-70136276D01*
X139230326Y-70224247D01*
X139230326Y-70224248D01*
X139230325Y-70224248D01*
X139220000Y-70325315D01*
X139220000Y-70898669D01*
X139220001Y-70898687D01*
X139230325Y-70999752D01*
X139257181Y-71080797D01*
X139284520Y-71163300D01*
X139284592Y-71163515D01*
X139284593Y-71163518D01*
X139296112Y-71182193D01*
X139370702Y-71303123D01*
X139375161Y-71310351D01*
X139497150Y-71432340D01*
X139523596Y-71448652D01*
X139570321Y-71500600D01*
X139582500Y-71554191D01*
X139582500Y-72053255D01*
X139580775Y-72068872D01*
X139581061Y-72068899D01*
X139580326Y-72076665D01*
X139582500Y-72145814D01*
X139582500Y-72175343D01*
X139582501Y-72175360D01*
X139583368Y-72182231D01*
X139583826Y-72188050D01*
X139585290Y-72234624D01*
X139585291Y-72234627D01*
X139590880Y-72253867D01*
X139594824Y-72272911D01*
X139597336Y-72292791D01*
X139614490Y-72336119D01*
X139616382Y-72341646D01*
X139624011Y-72367902D01*
X139623813Y-72437772D01*
X139585872Y-72496443D01*
X139522234Y-72525287D01*
X139504935Y-72526500D01*
X139020738Y-72526500D01*
X139005121Y-72524776D01*
X139005094Y-72525062D01*
X138997332Y-72524327D01*
X138928204Y-72526500D01*
X136962452Y-72526500D01*
X136895413Y-72506815D01*
X136874771Y-72490181D01*
X136551819Y-72167228D01*
X136518334Y-72105905D01*
X136515500Y-72079547D01*
X136515500Y-71585030D01*
X136535185Y-71517991D01*
X136574404Y-71479491D01*
X136650850Y-71432340D01*
X136665171Y-71418018D01*
X136726489Y-71384533D01*
X136796181Y-71389514D01*
X136840534Y-71418017D01*
X136854461Y-71431944D01*
X136854465Y-71431947D01*
X137001188Y-71522448D01*
X137001199Y-71522453D01*
X137164847Y-71576680D01*
X137265851Y-71586999D01*
X137365000Y-71586998D01*
X137365000Y-70862000D01*
X137865000Y-70862000D01*
X137865000Y-71586999D01*
X137964140Y-71586999D01*
X137964154Y-71586998D01*
X138065152Y-71576680D01*
X138228800Y-71522453D01*
X138228811Y-71522448D01*
X138375534Y-71431947D01*
X138375538Y-71431944D01*
X138497444Y-71310038D01*
X138497447Y-71310034D01*
X138587948Y-71163311D01*
X138587953Y-71163300D01*
X138642180Y-70999652D01*
X138652499Y-70898654D01*
X138652500Y-70898641D01*
X138652500Y-70862000D01*
X137865000Y-70862000D01*
X137365000Y-70862000D01*
X137365000Y-70486000D01*
X137384685Y-70418961D01*
X137437489Y-70373206D01*
X137489000Y-70362000D01*
X138652499Y-70362000D01*
X138652499Y-70325360D01*
X138652498Y-70325345D01*
X138642180Y-70224347D01*
X138587953Y-70060699D01*
X138587948Y-70060688D01*
X138497447Y-69913965D01*
X138497444Y-69913961D01*
X138451179Y-69867696D01*
X138417694Y-69806373D01*
X138422678Y-69736681D01*
X138464550Y-69680748D01*
X138473764Y-69674476D01*
X138476653Y-69672694D01*
X138517156Y-69647712D01*
X138641212Y-69523656D01*
X138698856Y-69430198D01*
X138750802Y-69383475D01*
X138818277Y-69372076D01*
X138937996Y-69385565D01*
X138938000Y-69385565D01*
X138938004Y-69385565D01*
X139117248Y-69365369D01*
X139117248Y-69365368D01*
X139117255Y-69365368D01*
X139153481Y-69352691D01*
X139223255Y-69349129D01*
X139283883Y-69383857D01*
G37*
%TD.AperFunction*%
%TA.AperFunction,Conductor*%
G36*
X143914928Y-68336185D02*
G01*
X143960683Y-68388989D01*
X143970627Y-68458147D01*
X143954621Y-68503621D01*
X143926718Y-68550801D01*
X143880899Y-68708513D01*
X143880704Y-68710998D01*
X143880705Y-68711000D01*
X146769048Y-68711000D01*
X146836087Y-68730685D01*
X146856727Y-68747317D01*
X147181942Y-69072533D01*
X147454197Y-69344788D01*
X147464022Y-69357051D01*
X147464243Y-69356869D01*
X147469214Y-69362878D01*
X147481414Y-69374334D01*
X147519635Y-69410226D01*
X147540529Y-69431120D01*
X147546011Y-69435373D01*
X147550443Y-69439157D01*
X147584418Y-69471062D01*
X147601976Y-69480714D01*
X147618235Y-69491395D01*
X147634064Y-69503673D01*
X147676838Y-69522182D01*
X147682056Y-69524738D01*
X147722908Y-69547197D01*
X147742316Y-69552180D01*
X147760717Y-69558480D01*
X147779104Y-69566437D01*
X147822488Y-69573308D01*
X147825119Y-69573725D01*
X147830839Y-69574909D01*
X147875981Y-69586500D01*
X147875990Y-69586500D01*
X147877113Y-69586642D01*
X147877941Y-69587003D01*
X147883537Y-69588440D01*
X147883305Y-69589342D01*
X147941157Y-69614573D01*
X147979934Y-69672694D01*
X147981133Y-69742554D01*
X147944372Y-69801971D01*
X147902529Y-69826706D01*
X147732480Y-69886209D01*
X147613809Y-69960775D01*
X147546572Y-69979775D01*
X147479737Y-69959407D01*
X147442299Y-69920879D01*
X147437840Y-69913650D01*
X147315851Y-69791661D01*
X147315851Y-69791660D01*
X147315850Y-69791660D01*
X147183956Y-69710307D01*
X147169018Y-69701093D01*
X147169013Y-69701091D01*
X147128025Y-69687509D01*
X147005253Y-69646826D01*
X147005251Y-69646825D01*
X146904184Y-69636500D01*
X146839778Y-69636500D01*
X146772739Y-69616815D01*
X146726984Y-69564011D01*
X146717040Y-69494853D01*
X146733046Y-69449379D01*
X146779281Y-69371198D01*
X146825100Y-69213486D01*
X146825295Y-69211001D01*
X146825295Y-69211000D01*
X143880705Y-69211000D01*
X143880704Y-69211001D01*
X143880899Y-69213486D01*
X143926718Y-69371198D01*
X144010314Y-69512552D01*
X144010321Y-69512561D01*
X144094496Y-69596736D01*
X144127981Y-69658059D01*
X144122997Y-69727751D01*
X144081125Y-69783684D01*
X144071919Y-69789951D01*
X144069155Y-69791656D01*
X144069154Y-69791656D01*
X143999407Y-69861403D01*
X143938083Y-69894887D01*
X143868392Y-69889902D01*
X143860680Y-69886615D01*
X143689262Y-69826633D01*
X143689249Y-69826630D01*
X143510004Y-69806435D01*
X143509996Y-69806435D01*
X143330750Y-69826630D01*
X143330745Y-69826631D01*
X143160476Y-69886211D01*
X143041809Y-69960775D01*
X142974572Y-69979775D01*
X142907737Y-69959407D01*
X142870299Y-69920879D01*
X142865840Y-69913650D01*
X142764371Y-69812181D01*
X142730886Y-69750858D01*
X142735870Y-69681166D01*
X142764371Y-69636819D01*
X142814692Y-69586498D01*
X142868840Y-69532350D01*
X142959408Y-69385516D01*
X143013674Y-69221753D01*
X143024000Y-69120677D01*
X143023999Y-68547324D01*
X143014374Y-68453100D01*
X143027144Y-68384409D01*
X143075025Y-68333524D01*
X143137732Y-68316500D01*
X143847889Y-68316500D01*
X143914928Y-68336185D01*
G37*
%TD.AperFunction*%
%TA.AperFunction,Conductor*%
G36*
X122180702Y-62313226D02*
G01*
X122187180Y-62319258D01*
X122238181Y-62370259D01*
X122271666Y-62431582D01*
X122274500Y-62457940D01*
X122274500Y-62887501D01*
X122274501Y-62887519D01*
X122285000Y-62990296D01*
X122285001Y-62990299D01*
X122340185Y-63156831D01*
X122340187Y-63156836D01*
X122353040Y-63177674D01*
X122432288Y-63306156D01*
X122556344Y-63430212D01*
X122559628Y-63432237D01*
X122559653Y-63432253D01*
X122561445Y-63434246D01*
X122562011Y-63434693D01*
X122561934Y-63434789D01*
X122606379Y-63484199D01*
X122617603Y-63553161D01*
X122589761Y-63617244D01*
X122559665Y-63643326D01*
X122556660Y-63645179D01*
X122556655Y-63645183D01*
X122432684Y-63769154D01*
X122340643Y-63918375D01*
X122340641Y-63918380D01*
X122285494Y-64084802D01*
X122285493Y-64084809D01*
X122275000Y-64187513D01*
X122275000Y-64325000D01*
X124724999Y-64325000D01*
X124724999Y-64187528D01*
X124724998Y-64187513D01*
X124714505Y-64084802D01*
X124659358Y-63918380D01*
X124659356Y-63918375D01*
X124567315Y-63769154D01*
X124443344Y-63645183D01*
X124443341Y-63645181D01*
X124440339Y-63643329D01*
X124438713Y-63641521D01*
X124437677Y-63640702D01*
X124437817Y-63640524D01*
X124393617Y-63591380D01*
X124382397Y-63522417D01*
X124410243Y-63458336D01*
X124440344Y-63432254D01*
X124443656Y-63430212D01*
X124537048Y-63336819D01*
X124598372Y-63303334D01*
X124624730Y-63300500D01*
X128063802Y-63300500D01*
X128130841Y-63320185D01*
X128134925Y-63322925D01*
X128241311Y-63397417D01*
X128293908Y-63434246D01*
X128314594Y-63448730D01*
X128358219Y-63503307D01*
X128365413Y-63572805D01*
X128333890Y-63635160D01*
X128314595Y-63651880D01*
X128128922Y-63781890D01*
X128128920Y-63781891D01*
X127961891Y-63948920D01*
X127961886Y-63948926D01*
X127826400Y-64142420D01*
X127826399Y-64142422D01*
X127726570Y-64356507D01*
X127726567Y-64356513D01*
X127669364Y-64569999D01*
X127669364Y-64570000D01*
X128386653Y-64570000D01*
X128453692Y-64589685D01*
X128499447Y-64642489D01*
X128509391Y-64711647D01*
X128505631Y-64728933D01*
X128500000Y-64748111D01*
X128500000Y-64891888D01*
X128505631Y-64911067D01*
X128505630Y-64980936D01*
X128467855Y-65039714D01*
X128404299Y-65068738D01*
X128386653Y-65070000D01*
X127669364Y-65070000D01*
X127726567Y-65283486D01*
X127726570Y-65283492D01*
X127826399Y-65497578D01*
X127961894Y-65691082D01*
X128128917Y-65858105D01*
X128322421Y-65993600D01*
X128536507Y-66093429D01*
X128536516Y-66093433D01*
X128750000Y-66150634D01*
X128750000Y-65432301D01*
X128769685Y-65365262D01*
X128822489Y-65319507D01*
X128891647Y-65309563D01*
X128964237Y-65320000D01*
X128964238Y-65320000D01*
X129035762Y-65320000D01*
X129035763Y-65320000D01*
X129108353Y-65309563D01*
X129177512Y-65319507D01*
X129230315Y-65365262D01*
X129250000Y-65432301D01*
X129250000Y-66150633D01*
X129463483Y-66093433D01*
X129463492Y-66093429D01*
X129677578Y-65993600D01*
X129871082Y-65858105D01*
X130038105Y-65691082D01*
X130173600Y-65497578D01*
X130273429Y-65283492D01*
X130273432Y-65283486D01*
X130330636Y-65070000D01*
X129613347Y-65070000D01*
X129546308Y-65050315D01*
X129500553Y-64997511D01*
X129490609Y-64928353D01*
X129494369Y-64911067D01*
X129500000Y-64891888D01*
X129500000Y-64748111D01*
X129494369Y-64728933D01*
X129494370Y-64659064D01*
X129532145Y-64600286D01*
X129595701Y-64571262D01*
X129613347Y-64570000D01*
X130330636Y-64570000D01*
X130330635Y-64569999D01*
X130273432Y-64356513D01*
X130273429Y-64356507D01*
X130173600Y-64142422D01*
X130173599Y-64142420D01*
X130038113Y-63948926D01*
X130038108Y-63948920D01*
X129871078Y-63781890D01*
X129685405Y-63651879D01*
X129641780Y-63597302D01*
X129634588Y-63527804D01*
X129666110Y-63465449D01*
X129685406Y-63448730D01*
X129705453Y-63434693D01*
X129871401Y-63318495D01*
X130038495Y-63151401D01*
X130107132Y-63053376D01*
X130161709Y-63009752D01*
X130208707Y-63000500D01*
X131917948Y-63000500D01*
X131984987Y-63020185D01*
X131995655Y-63028781D01*
X131995987Y-63028362D01*
X132001647Y-63032838D01*
X132001649Y-63032839D01*
X132001650Y-63032840D01*
X132148484Y-63123408D01*
X132312247Y-63177674D01*
X132413323Y-63188000D01*
X132500499Y-63187999D01*
X132567537Y-63207683D01*
X132613293Y-63260486D01*
X132624499Y-63311999D01*
X132624499Y-67007564D01*
X132624109Y-67014510D01*
X132619435Y-67056001D01*
X132620260Y-67063326D01*
X132624110Y-67097496D01*
X132624500Y-67104435D01*
X132624500Y-67493948D01*
X132604815Y-67560987D01*
X132552011Y-67606742D01*
X132482853Y-67616686D01*
X132419297Y-67587661D01*
X132412819Y-67581629D01*
X132310849Y-67479659D01*
X132271827Y-67455590D01*
X132225103Y-67403642D01*
X132217848Y-67384643D01*
X132217114Y-67382117D01*
X132213174Y-67363083D01*
X132212477Y-67357564D01*
X132210664Y-67343208D01*
X132193501Y-67299859D01*
X132191614Y-67294346D01*
X132190599Y-67290854D01*
X132178617Y-67249610D01*
X132168421Y-67232369D01*
X132159860Y-67214893D01*
X132156345Y-67206016D01*
X132152486Y-67196268D01*
X132152486Y-67196267D01*
X132138862Y-67177516D01*
X132125083Y-67158550D01*
X132121900Y-67153705D01*
X132098170Y-67113579D01*
X132098165Y-67113573D01*
X132084005Y-67099413D01*
X132071370Y-67084620D01*
X132059595Y-67068414D01*
X132038124Y-67050652D01*
X132034659Y-67047785D01*
X131995553Y-66989886D01*
X131990481Y-66966131D01*
X131985368Y-66920745D01*
X131925789Y-66750478D01*
X131918447Y-66738794D01*
X131854295Y-66636696D01*
X131829816Y-66597738D01*
X131702262Y-66470184D01*
X131665066Y-66446812D01*
X131549523Y-66374211D01*
X131379254Y-66314631D01*
X131379249Y-66314630D01*
X131200004Y-66294435D01*
X131199996Y-66294435D01*
X131020750Y-66314630D01*
X131020745Y-66314631D01*
X130850476Y-66374211D01*
X130697737Y-66470184D01*
X130570184Y-66597737D01*
X130474211Y-66750476D01*
X130414631Y-66920745D01*
X130414630Y-66920750D01*
X130394435Y-67099996D01*
X130394435Y-67100003D01*
X130414630Y-67279249D01*
X130414631Y-67279254D01*
X130474211Y-67449523D01*
X130570184Y-67602262D01*
X130632418Y-67664496D01*
X130665903Y-67725819D01*
X130662443Y-67791180D01*
X130622326Y-67912244D01*
X130622325Y-67912248D01*
X130612000Y-68013315D01*
X130612000Y-68586669D01*
X130612001Y-68586687D01*
X130622325Y-68687752D01*
X130652691Y-68779387D01*
X130676520Y-68851300D01*
X130676592Y-68851515D01*
X130676593Y-68851518D01*
X130688123Y-68870211D01*
X130767160Y-68998350D01*
X130889150Y-69120340D01*
X131035984Y-69210908D01*
X131100524Y-69232294D01*
X131157967Y-69272065D01*
X131184791Y-69336580D01*
X131172477Y-69405356D01*
X131124934Y-69456557D01*
X131100525Y-69467704D01*
X131035990Y-69489089D01*
X131035981Y-69489093D01*
X130889148Y-69579661D01*
X130767160Y-69701649D01*
X130767159Y-69701651D01*
X130758558Y-69715596D01*
X130706610Y-69762321D01*
X130653019Y-69774500D01*
X129859481Y-69774500D01*
X129792442Y-69754815D01*
X129753942Y-69715596D01*
X129752908Y-69713920D01*
X129745340Y-69701650D01*
X129623350Y-69579660D01*
X129530150Y-69522174D01*
X129476518Y-69489093D01*
X129476517Y-69489092D01*
X129476516Y-69489092D01*
X129392432Y-69461229D01*
X129334987Y-69421455D01*
X129308165Y-69356939D01*
X129320481Y-69288164D01*
X129368024Y-69236964D01*
X129392435Y-69225816D01*
X129438803Y-69210451D01*
X129438811Y-69210448D01*
X129585534Y-69119947D01*
X129585538Y-69119944D01*
X129707444Y-68998038D01*
X129707447Y-68998034D01*
X129797948Y-68851311D01*
X129797953Y-68851300D01*
X129852180Y-68687652D01*
X129862499Y-68586654D01*
X129862500Y-68586641D01*
X129862500Y-68550000D01*
X128699000Y-68550000D01*
X128631961Y-68530315D01*
X128586206Y-68477511D01*
X128575000Y-68426000D01*
X128574999Y-67325000D01*
X129075000Y-67325000D01*
X129075000Y-68050000D01*
X129862499Y-68050000D01*
X129862499Y-68013360D01*
X129862498Y-68013345D01*
X129852180Y-67912347D01*
X129797953Y-67748699D01*
X129797948Y-67748688D01*
X129707447Y-67601965D01*
X129707444Y-67601961D01*
X129585538Y-67480055D01*
X129585534Y-67480052D01*
X129438811Y-67389551D01*
X129438800Y-67389546D01*
X129275152Y-67335319D01*
X129174154Y-67325000D01*
X129075000Y-67325000D01*
X128574999Y-67325000D01*
X128574999Y-67324999D01*
X128475860Y-67325000D01*
X128475844Y-67325001D01*
X128374847Y-67335319D01*
X128211199Y-67389546D01*
X128211194Y-67389548D01*
X128076629Y-67472550D01*
X128009237Y-67490990D01*
X127942573Y-67470068D01*
X127897803Y-67416426D01*
X127888312Y-67353127D01*
X127905565Y-67200002D01*
X127905565Y-67199996D01*
X127885369Y-67020750D01*
X127885368Y-67020745D01*
X127865278Y-66963330D01*
X127825789Y-66850478D01*
X127802905Y-66814059D01*
X127774800Y-66769330D01*
X127729816Y-66697738D01*
X127602262Y-66570184D01*
X127569342Y-66549499D01*
X127449523Y-66474211D01*
X127279254Y-66414631D01*
X127279249Y-66414630D01*
X127100004Y-66394435D01*
X127099996Y-66394435D01*
X126920750Y-66414630D01*
X126920745Y-66414631D01*
X126750476Y-66474211D01*
X126597737Y-66570184D01*
X126470184Y-66697737D01*
X126374211Y-66850476D01*
X126314631Y-67020745D01*
X126314630Y-67020750D01*
X126294435Y-67199996D01*
X126294435Y-67200003D01*
X126314631Y-67379253D01*
X126314631Y-67379254D01*
X126321280Y-67398256D01*
X126324841Y-67468035D01*
X126291920Y-67526890D01*
X126217159Y-67601651D01*
X126130539Y-67742085D01*
X126078591Y-67788810D01*
X126009628Y-67800031D01*
X125945546Y-67772188D01*
X125919461Y-67742085D01*
X125916788Y-67737751D01*
X125832840Y-67601650D01*
X125731370Y-67500180D01*
X125697886Y-67438858D01*
X125702870Y-67369166D01*
X125731371Y-67324819D01*
X125791568Y-67264622D01*
X125857840Y-67198350D01*
X125948408Y-67051516D01*
X126002674Y-66887753D01*
X126013000Y-66786677D01*
X126012999Y-66213324D01*
X126012559Y-66209020D01*
X126002674Y-66112247D01*
X125995213Y-66089731D01*
X125948408Y-65948484D01*
X125857840Y-65801650D01*
X125735850Y-65679660D01*
X125625204Y-65611413D01*
X125589018Y-65589093D01*
X125589013Y-65589091D01*
X125557833Y-65578759D01*
X125425253Y-65534826D01*
X125425251Y-65534825D01*
X125324178Y-65524500D01*
X124725830Y-65524500D01*
X124725807Y-65524502D01*
X124712229Y-65525889D01*
X124643536Y-65513118D01*
X124592653Y-65465236D01*
X124575734Y-65397446D01*
X124594092Y-65337433D01*
X124659355Y-65231626D01*
X124659358Y-65231619D01*
X124714505Y-65065197D01*
X124714506Y-65065190D01*
X124724999Y-64962486D01*
X124725000Y-64962473D01*
X124725000Y-64825000D01*
X122275001Y-64825000D01*
X122275001Y-64962486D01*
X122285494Y-65065197D01*
X122340641Y-65231619D01*
X122340643Y-65231624D01*
X122432684Y-65380845D01*
X122528515Y-65476676D01*
X122562000Y-65537999D01*
X122557016Y-65607691D01*
X122515144Y-65663624D01*
X122505935Y-65669893D01*
X122489464Y-65680052D01*
X122367555Y-65801961D01*
X122367552Y-65801965D01*
X122277051Y-65948688D01*
X122277046Y-65948699D01*
X122222819Y-66112347D01*
X122212500Y-66213345D01*
X122212500Y-66250000D01*
X123326000Y-66250000D01*
X123393039Y-66269685D01*
X123438794Y-66322489D01*
X123450000Y-66374000D01*
X123450000Y-66626000D01*
X123430315Y-66693039D01*
X123377511Y-66738794D01*
X123326000Y-66750000D01*
X122212501Y-66750000D01*
X122212501Y-66786654D01*
X122222819Y-66887652D01*
X122277046Y-67051300D01*
X122277051Y-67051311D01*
X122367552Y-67198034D01*
X122367555Y-67198038D01*
X122468982Y-67299465D01*
X122502467Y-67360788D01*
X122497483Y-67430480D01*
X122468983Y-67474827D01*
X122342158Y-67601652D01*
X122333558Y-67615596D01*
X122281610Y-67662321D01*
X122228019Y-67674500D01*
X121646981Y-67674500D01*
X121579942Y-67654815D01*
X121541442Y-67615596D01*
X121540408Y-67613920D01*
X121532840Y-67601650D01*
X121418517Y-67487327D01*
X121385032Y-67426004D01*
X121390016Y-67356312D01*
X121418517Y-67311964D01*
X121532448Y-67198033D01*
X121622948Y-67051311D01*
X121622953Y-67051300D01*
X121677180Y-66887652D01*
X121687499Y-66786654D01*
X121687500Y-66786641D01*
X121687500Y-66750000D01*
X120574000Y-66750000D01*
X120506961Y-66730315D01*
X120461206Y-66677511D01*
X120450000Y-66626000D01*
X120450000Y-66374000D01*
X120469685Y-66306961D01*
X120522489Y-66261206D01*
X120574000Y-66250000D01*
X121687499Y-66250000D01*
X121687499Y-66213360D01*
X121687498Y-66213345D01*
X121677180Y-66112347D01*
X121622953Y-65948699D01*
X121622948Y-65948688D01*
X121532447Y-65801965D01*
X121532444Y-65801961D01*
X121410538Y-65680055D01*
X121404871Y-65675574D01*
X121406543Y-65673458D01*
X121368169Y-65630778D01*
X121356960Y-65561814D01*
X121384816Y-65497737D01*
X121440998Y-65459503D01*
X121551298Y-65422954D01*
X121551311Y-65422948D01*
X121698034Y-65332447D01*
X121698038Y-65332444D01*
X121819944Y-65210538D01*
X121819947Y-65210534D01*
X121910448Y-65063811D01*
X121910453Y-65063800D01*
X121964680Y-64900152D01*
X121974999Y-64799154D01*
X121975000Y-64799141D01*
X121975000Y-64750000D01*
X118025001Y-64750000D01*
X118025001Y-64799154D01*
X118035319Y-64900152D01*
X118072215Y-65011496D01*
X118074617Y-65081324D01*
X118038885Y-65141366D01*
X117976365Y-65172559D01*
X117954509Y-65174500D01*
X116443953Y-65174500D01*
X116376914Y-65154815D01*
X116331159Y-65102011D01*
X116321215Y-65032853D01*
X116323911Y-65019419D01*
X116336396Y-64971200D01*
X115824779Y-64971200D01*
X115757740Y-64951515D01*
X115711985Y-64898711D01*
X115702041Y-64829553D01*
X115705513Y-64813266D01*
X115722540Y-64753418D01*
X115723695Y-64749360D01*
X115713346Y-64637679D01*
X115713344Y-64637675D01*
X115710915Y-64629137D01*
X115711501Y-64559270D01*
X115749766Y-64500810D01*
X115813563Y-64472319D01*
X115830181Y-64471200D01*
X116340271Y-64471200D01*
X116320865Y-64418802D01*
X116316041Y-64349099D01*
X116349667Y-64287853D01*
X116362837Y-64276468D01*
X116386990Y-64258387D01*
X116473150Y-64143293D01*
X116473154Y-64143286D01*
X116523396Y-64008579D01*
X116523398Y-64008572D01*
X116529799Y-63949044D01*
X116529800Y-63949027D01*
X116529800Y-63725700D01*
X116549485Y-63658661D01*
X116602289Y-63612906D01*
X116653800Y-63601700D01*
X117019394Y-63601700D01*
X117060103Y-63592408D01*
X117066960Y-63591243D01*
X117108455Y-63586568D01*
X117147880Y-63572771D01*
X117154521Y-63570858D01*
X117195261Y-63561560D01*
X117232893Y-63543436D01*
X117239305Y-63540780D01*
X117278722Y-63526989D01*
X117314089Y-63504765D01*
X117320161Y-63501409D01*
X117357787Y-63483291D01*
X117390436Y-63457252D01*
X117396095Y-63453237D01*
X117431462Y-63431016D01*
X117559016Y-63303462D01*
X117589803Y-63272675D01*
X117603266Y-63242998D01*
X117606442Y-63239016D01*
X117623691Y-63217387D01*
X117641809Y-63179761D01*
X117645165Y-63173689D01*
X117667389Y-63138322D01*
X117681180Y-63098905D01*
X117683836Y-63092493D01*
X117701960Y-63054861D01*
X117711258Y-63014121D01*
X117713171Y-63007480D01*
X117726968Y-62968055D01*
X117731643Y-62926557D01*
X117732808Y-62919704D01*
X117742989Y-62875105D01*
X117777099Y-62814127D01*
X117838761Y-62781271D01*
X117863879Y-62778700D01*
X117900501Y-62778700D01*
X117967540Y-62798385D01*
X118013295Y-62851189D01*
X118024501Y-62902700D01*
X118024501Y-62974186D01*
X118034825Y-63075252D01*
X118068765Y-63177673D01*
X118087952Y-63235577D01*
X118089092Y-63239015D01*
X118089093Y-63239018D01*
X118102335Y-63260486D01*
X118149417Y-63336819D01*
X118179661Y-63385851D01*
X118293982Y-63500172D01*
X118327467Y-63561495D01*
X118322483Y-63631187D01*
X118293983Y-63675534D01*
X118180052Y-63789465D01*
X118089551Y-63936188D01*
X118089546Y-63936199D01*
X118035319Y-64099847D01*
X118025000Y-64200845D01*
X118025000Y-64250000D01*
X121974999Y-64250000D01*
X121974999Y-64200860D01*
X121974998Y-64200845D01*
X121964680Y-64099847D01*
X121910453Y-63936199D01*
X121910448Y-63936188D01*
X121819947Y-63789465D01*
X121819944Y-63789461D01*
X121706017Y-63675534D01*
X121672532Y-63614211D01*
X121677516Y-63544519D01*
X121706013Y-63500176D01*
X121820340Y-63385850D01*
X121910908Y-63239016D01*
X121965174Y-63075253D01*
X121975500Y-62974177D01*
X121975499Y-62406938D01*
X121995183Y-62339900D01*
X122047987Y-62294145D01*
X122117146Y-62284201D01*
X122180702Y-62313226D01*
G37*
%TD.AperFunction*%
%TA.AperFunction,Conductor*%
G36*
X148842518Y-53520185D02*
G01*
X148888273Y-53572989D01*
X148898217Y-53642147D01*
X148874745Y-53698811D01*
X148820206Y-53771664D01*
X148820202Y-53771671D01*
X148769908Y-53906517D01*
X148763501Y-53966116D01*
X148763501Y-53966123D01*
X148763500Y-53966135D01*
X148763500Y-55761870D01*
X148763502Y-55761894D01*
X148763510Y-55761966D01*
X148763507Y-55761982D01*
X148763679Y-55765195D01*
X148762919Y-55765235D01*
X148751100Y-55830725D01*
X148703486Y-55881858D01*
X148635785Y-55899133D01*
X148569493Y-55877063D01*
X148565908Y-55874478D01*
X148542089Y-55856647D01*
X148542086Y-55856645D01*
X148407379Y-55806403D01*
X148407372Y-55806401D01*
X148347844Y-55800000D01*
X148253552Y-55800000D01*
X147087681Y-56965871D01*
X147026358Y-56999356D01*
X146956666Y-56994372D01*
X146912319Y-56965871D01*
X145746447Y-55800000D01*
X146453553Y-55800000D01*
X147000000Y-56346446D01*
X147546446Y-55800000D01*
X146453553Y-55800000D01*
X145746447Y-55800000D01*
X145652155Y-55800000D01*
X145592627Y-55806401D01*
X145592620Y-55806403D01*
X145457913Y-55856645D01*
X145457906Y-55856649D01*
X145342812Y-55942809D01*
X145342809Y-55942812D01*
X145256649Y-56057906D01*
X145256645Y-56057913D01*
X145206403Y-56192620D01*
X145206401Y-56192627D01*
X145200000Y-56252155D01*
X145200000Y-57147844D01*
X145206401Y-57207372D01*
X145206403Y-57207379D01*
X145256645Y-57342086D01*
X145256646Y-57342088D01*
X145281488Y-57375273D01*
X145305904Y-57440738D01*
X145291052Y-57509011D01*
X145281563Y-57523792D01*
X145280878Y-57524709D01*
X145224987Y-57566638D01*
X145181535Y-57574500D01*
X145010454Y-57574500D01*
X144943415Y-57554815D01*
X144922773Y-57538181D01*
X144914476Y-57529884D01*
X144908986Y-57525625D01*
X144904561Y-57521847D01*
X144872853Y-57492070D01*
X144870580Y-57489936D01*
X144870577Y-57489935D01*
X144853029Y-57480288D01*
X144836763Y-57469604D01*
X144820936Y-57457327D01*
X144820935Y-57457326D01*
X144820933Y-57457325D01*
X144778168Y-57438818D01*
X144772922Y-57436248D01*
X144732093Y-57413803D01*
X144732092Y-57413802D01*
X144712693Y-57408822D01*
X144694281Y-57402518D01*
X144675898Y-57394562D01*
X144675892Y-57394560D01*
X144629874Y-57387272D01*
X144624152Y-57386087D01*
X144579021Y-57374500D01*
X144579019Y-57374500D01*
X144558984Y-57374500D01*
X144539586Y-57372973D01*
X144529016Y-57371299D01*
X144519805Y-57369840D01*
X144519804Y-57369840D01*
X144473416Y-57374225D01*
X144467578Y-57374500D01*
X144123111Y-57374500D01*
X144056072Y-57354815D01*
X144010317Y-57302011D01*
X144000373Y-57232853D01*
X144016379Y-57187379D01*
X144044281Y-57140198D01*
X144090100Y-56982486D01*
X144090295Y-56980001D01*
X144090295Y-56980000D01*
X141145705Y-56980000D01*
X141145704Y-56980001D01*
X141145899Y-56982486D01*
X141191718Y-57140198D01*
X141275314Y-57281552D01*
X141280100Y-57287722D01*
X141277640Y-57289629D01*
X141304210Y-57338288D01*
X141299226Y-57407980D01*
X141278162Y-57440781D01*
X141279699Y-57441974D01*
X141274915Y-57448140D01*
X141191255Y-57589603D01*
X141191254Y-57589606D01*
X141145402Y-57747426D01*
X141145401Y-57747432D01*
X141142500Y-57784304D01*
X141142500Y-58215696D01*
X141145401Y-58252567D01*
X141145402Y-58252573D01*
X141153150Y-58279242D01*
X141152949Y-58349112D01*
X141115005Y-58407781D01*
X141051366Y-58436622D01*
X140993118Y-58430875D01*
X140895262Y-58396633D01*
X140895249Y-58396630D01*
X140716004Y-58376435D01*
X140715996Y-58376435D01*
X140536750Y-58396630D01*
X140536745Y-58396631D01*
X140366476Y-58456211D01*
X140213737Y-58552184D01*
X140086184Y-58679737D01*
X140086182Y-58679740D01*
X140058993Y-58723011D01*
X140006658Y-58769302D01*
X139937605Y-58779949D01*
X139873756Y-58751574D01*
X139849007Y-58723011D01*
X139821817Y-58679740D01*
X139821815Y-58679737D01*
X139694262Y-58552184D01*
X139541523Y-58456211D01*
X139371254Y-58396631D01*
X139371249Y-58396630D01*
X139250528Y-58383029D01*
X139186114Y-58355963D01*
X139146559Y-58298368D01*
X139140793Y-58250083D01*
X139143500Y-58215694D01*
X139143500Y-57784306D01*
X139140598Y-57747431D01*
X139119820Y-57675913D01*
X139120019Y-57606046D01*
X139157960Y-57547375D01*
X139221598Y-57518531D01*
X139224956Y-57518105D01*
X139249255Y-57515368D01*
X139288680Y-57501571D01*
X139295321Y-57499658D01*
X139336061Y-57490360D01*
X139373693Y-57472236D01*
X139380105Y-57469580D01*
X139419522Y-57455789D01*
X139454889Y-57433565D01*
X139460961Y-57430209D01*
X139498587Y-57412091D01*
X139531236Y-57386052D01*
X139536895Y-57382037D01*
X139572262Y-57359816D01*
X139699816Y-57232262D01*
X140272826Y-56659252D01*
X140309077Y-56623001D01*
X140311628Y-56616419D01*
X140327035Y-56591899D01*
X140331052Y-56586236D01*
X140357091Y-56553587D01*
X140375209Y-56515961D01*
X140378565Y-56509889D01*
X140400789Y-56474522D01*
X140414580Y-56435105D01*
X140417236Y-56428693D01*
X140435360Y-56391061D01*
X140444658Y-56350321D01*
X140446571Y-56343680D01*
X140460368Y-56304255D01*
X140465043Y-56262760D01*
X140466208Y-56255905D01*
X140470118Y-56238772D01*
X140475500Y-56215194D01*
X140475500Y-56034806D01*
X140475500Y-56034805D01*
X140475500Y-55940987D01*
X140495185Y-55873948D01*
X140547989Y-55828193D01*
X140617147Y-55818249D01*
X140664597Y-55835449D01*
X140786188Y-55910448D01*
X140786199Y-55910453D01*
X140949847Y-55964680D01*
X141050851Y-55974999D01*
X141180007Y-55974999D01*
X141247047Y-55994683D01*
X141292802Y-56047487D01*
X141302746Y-56116645D01*
X141277995Y-56174990D01*
X141275318Y-56178441D01*
X141191718Y-56319801D01*
X141145899Y-56477513D01*
X141145704Y-56479998D01*
X141145705Y-56480000D01*
X142368000Y-56480000D01*
X142368000Y-55930000D01*
X142868000Y-55930000D01*
X142868000Y-56480000D01*
X144090295Y-56480000D01*
X144090295Y-56479998D01*
X144090100Y-56477513D01*
X144044281Y-56319801D01*
X143960685Y-56178447D01*
X143960678Y-56178438D01*
X143844561Y-56062321D01*
X143844552Y-56062314D01*
X143703196Y-55978717D01*
X143703193Y-55978716D01*
X143545495Y-55932900D01*
X143545489Y-55932899D01*
X143508644Y-55930000D01*
X142868000Y-55930000D01*
X142368000Y-55930000D01*
X142349845Y-55930000D01*
X142282806Y-55910315D01*
X142237051Y-55857511D01*
X142227107Y-55788353D01*
X142256132Y-55724797D01*
X142262164Y-55718319D01*
X142282444Y-55698038D01*
X142282447Y-55698034D01*
X142372948Y-55551311D01*
X142372953Y-55551300D01*
X142427180Y-55387652D01*
X142437499Y-55286654D01*
X142437500Y-55286641D01*
X142437500Y-55250000D01*
X141274000Y-55250000D01*
X141206961Y-55230315D01*
X141161206Y-55177511D01*
X141150000Y-55126000D01*
X141150000Y-54025000D01*
X141650000Y-54025000D01*
X141650000Y-54750000D01*
X142437499Y-54750000D01*
X142437499Y-54713360D01*
X142437498Y-54713345D01*
X142427180Y-54612347D01*
X142372953Y-54448699D01*
X142372948Y-54448688D01*
X142282447Y-54301965D01*
X142282444Y-54301961D01*
X142160538Y-54180055D01*
X142160534Y-54180052D01*
X142013811Y-54089551D01*
X142013800Y-54089546D01*
X141850152Y-54035319D01*
X141749154Y-54025000D01*
X141650000Y-54025000D01*
X141150000Y-54025000D01*
X141150000Y-54024999D01*
X141050860Y-54025000D01*
X141050844Y-54025001D01*
X140949847Y-54035319D01*
X140786199Y-54089546D01*
X140786188Y-54089551D01*
X140639465Y-54180052D01*
X140625532Y-54193985D01*
X140564208Y-54227468D01*
X140494516Y-54222482D01*
X140450172Y-54193982D01*
X140435851Y-54179661D01*
X140435851Y-54179660D01*
X140435850Y-54179660D01*
X140344629Y-54123394D01*
X140289018Y-54089093D01*
X140289013Y-54089091D01*
X140287569Y-54088612D01*
X140125253Y-54034826D01*
X140125251Y-54034825D01*
X140024178Y-54024500D01*
X139325830Y-54024500D01*
X139325812Y-54024501D01*
X139224747Y-54034825D01*
X139060984Y-54089092D01*
X139060981Y-54089093D01*
X138962742Y-54149687D01*
X138914150Y-54179660D01*
X138914148Y-54179661D01*
X138911915Y-54181039D01*
X138846818Y-54199500D01*
X138448436Y-54199500D01*
X138441497Y-54199110D01*
X138412599Y-54195854D01*
X138400002Y-54194435D01*
X138399996Y-54194435D01*
X138220750Y-54214630D01*
X138220745Y-54214631D01*
X138050476Y-54274211D01*
X137897737Y-54370184D01*
X137770184Y-54497737D01*
X137674211Y-54650476D01*
X137614631Y-54820745D01*
X137614630Y-54820750D01*
X137594435Y-54999996D01*
X137594435Y-55000003D01*
X137614630Y-55179249D01*
X137614631Y-55179254D01*
X137674211Y-55349523D01*
X137720573Y-55423307D01*
X137770184Y-55502262D01*
X137897738Y-55629816D01*
X137946839Y-55660668D01*
X138010240Y-55700506D01*
X138056531Y-55752841D01*
X138067179Y-55821895D01*
X138038804Y-55885743D01*
X137980414Y-55924115D01*
X137944268Y-55929500D01*
X134542812Y-55929500D01*
X134501857Y-55922541D01*
X134479259Y-55914633D01*
X134479257Y-55914632D01*
X134479255Y-55914632D01*
X134470403Y-55913634D01*
X134437763Y-55909955D01*
X134430908Y-55908791D01*
X134390200Y-55899501D01*
X134390196Y-55899500D01*
X134390194Y-55899500D01*
X134390191Y-55899500D01*
X134348436Y-55899500D01*
X134341497Y-55899110D01*
X134312599Y-55895854D01*
X134300002Y-55894435D01*
X134299998Y-55894435D01*
X134287400Y-55895854D01*
X134258502Y-55899110D01*
X134251564Y-55899500D01*
X134209806Y-55899500D01*
X134203888Y-55900850D01*
X134169089Y-55908791D01*
X134162235Y-55909955D01*
X134120744Y-55914632D01*
X134081341Y-55928419D01*
X134074659Y-55930344D01*
X134033939Y-55939639D01*
X133996320Y-55957755D01*
X133989895Y-55960416D01*
X133950483Y-55974208D01*
X133950476Y-55974212D01*
X133915120Y-55996427D01*
X133909033Y-55999791D01*
X133871413Y-56017909D01*
X133838772Y-56043939D01*
X133833098Y-56047964D01*
X133797742Y-56070180D01*
X133797736Y-56070185D01*
X133768206Y-56099713D01*
X133763023Y-56104345D01*
X133730380Y-56130380D01*
X133704345Y-56163023D01*
X133699713Y-56168206D01*
X133670185Y-56197736D01*
X133670180Y-56197742D01*
X133647964Y-56233098D01*
X133643939Y-56238772D01*
X133617909Y-56271413D01*
X133599791Y-56309033D01*
X133596427Y-56315120D01*
X133574212Y-56350476D01*
X133574208Y-56350483D01*
X133560416Y-56389895D01*
X133557755Y-56396320D01*
X133539639Y-56433939D01*
X133530344Y-56474659D01*
X133528419Y-56481341D01*
X133514632Y-56520744D01*
X133513084Y-56527529D01*
X133511384Y-56527141D01*
X133487755Y-56583342D01*
X133430152Y-56622886D01*
X133360315Y-56625009D01*
X133339352Y-56616661D01*
X133339347Y-56616675D01*
X133332092Y-56613802D01*
X133312693Y-56608822D01*
X133294281Y-56602518D01*
X133275898Y-56594562D01*
X133275892Y-56594560D01*
X133229874Y-56587272D01*
X133224152Y-56586087D01*
X133179021Y-56574500D01*
X133179019Y-56574500D01*
X133158984Y-56574500D01*
X133139586Y-56572973D01*
X133132162Y-56571797D01*
X133119805Y-56569840D01*
X133119804Y-56569840D01*
X133073416Y-56574225D01*
X133067578Y-56574500D01*
X130474499Y-56574500D01*
X130407460Y-56554815D01*
X130361705Y-56502011D01*
X130350499Y-56450500D01*
X130350499Y-56302129D01*
X130350498Y-56302123D01*
X130350497Y-56302116D01*
X130344895Y-56250000D01*
X130344091Y-56242516D01*
X130293797Y-56107671D01*
X130293793Y-56107664D01*
X130207547Y-55992455D01*
X130207544Y-55992452D01*
X130092335Y-55906206D01*
X130092328Y-55906202D01*
X129957482Y-55855908D01*
X129957483Y-55855908D01*
X129897883Y-55849501D01*
X129897881Y-55849500D01*
X129897873Y-55849500D01*
X129897864Y-55849500D01*
X128102129Y-55849500D01*
X128102123Y-55849501D01*
X128042516Y-55855908D01*
X127907671Y-55906202D01*
X127907664Y-55906206D01*
X127792455Y-55992452D01*
X127792452Y-55992455D01*
X127706206Y-56107664D01*
X127706202Y-56107671D01*
X127655908Y-56242517D01*
X127650039Y-56297112D01*
X127649501Y-56302123D01*
X127649500Y-56302135D01*
X127649500Y-58097870D01*
X127649501Y-58097876D01*
X127655908Y-58157483D01*
X127706202Y-58292328D01*
X127706206Y-58292335D01*
X127792452Y-58407544D01*
X127792455Y-58407547D01*
X127907664Y-58493793D01*
X127907671Y-58493797D01*
X128039081Y-58542810D01*
X128095015Y-58584681D01*
X128119432Y-58650145D01*
X128104580Y-58718418D01*
X128083430Y-58746673D01*
X127961503Y-58868600D01*
X127825965Y-59062169D01*
X127825964Y-59062171D01*
X127726098Y-59276335D01*
X127726094Y-59276344D01*
X127664938Y-59504586D01*
X127664936Y-59504596D01*
X127644341Y-59739999D01*
X127644341Y-59740000D01*
X127664936Y-59975403D01*
X127664938Y-59975413D01*
X127726094Y-60203655D01*
X127726096Y-60203659D01*
X127726097Y-60203663D01*
X127782353Y-60324304D01*
X127825965Y-60417830D01*
X127825967Y-60417834D01*
X127913855Y-60543350D01*
X127961501Y-60611396D01*
X127961506Y-60611402D01*
X128128597Y-60778493D01*
X128128603Y-60778498D01*
X128314158Y-60908425D01*
X128357783Y-60963002D01*
X128364977Y-61032500D01*
X128333454Y-61094855D01*
X128314158Y-61111575D01*
X128128597Y-61241505D01*
X127961505Y-61408597D01*
X127825965Y-61602169D01*
X127825962Y-61602175D01*
X127813965Y-61627904D01*
X127767793Y-61680344D01*
X127701583Y-61699500D01*
X124624730Y-61699500D01*
X124557691Y-61679815D01*
X124537049Y-61663181D01*
X124443657Y-61569789D01*
X124443656Y-61569788D01*
X124329736Y-61499522D01*
X124294336Y-61477687D01*
X124294331Y-61477685D01*
X124277175Y-61472000D01*
X124127797Y-61422501D01*
X124127795Y-61422500D01*
X124025016Y-61412000D01*
X124025009Y-61412000D01*
X123595440Y-61412000D01*
X123528401Y-61392315D01*
X123507759Y-61375681D01*
X123386819Y-61254741D01*
X123353334Y-61193418D01*
X123350500Y-61167060D01*
X123350500Y-60514141D01*
X123370185Y-60447102D01*
X123422989Y-60401347D01*
X123431149Y-60397966D01*
X123442331Y-60393796D01*
X123467771Y-60374752D01*
X123511397Y-60342093D01*
X123557546Y-60307546D01*
X123643796Y-60192331D01*
X123694091Y-60057483D01*
X123700500Y-59997873D01*
X123700499Y-59496146D01*
X123720183Y-59429108D01*
X123772987Y-59383353D01*
X123824499Y-59372147D01*
X126500000Y-59372147D01*
X126571961Y-59367000D01*
X126571963Y-59366999D01*
X126571965Y-59366999D01*
X126710050Y-59326454D01*
X126710050Y-59326453D01*
X126710053Y-59326453D01*
X126831128Y-59248643D01*
X126925377Y-59139873D01*
X126985165Y-59008957D01*
X127005647Y-58866500D01*
X127005647Y-57133500D01*
X127000500Y-57061539D01*
X126998350Y-57054218D01*
X126959954Y-56923449D01*
X126959953Y-56923447D01*
X126882143Y-56802372D01*
X126773373Y-56708123D01*
X126755663Y-56700035D01*
X126642456Y-56648334D01*
X126535792Y-56632999D01*
X126500000Y-56627853D01*
X123375000Y-56627853D01*
X123303039Y-56632999D01*
X123303034Y-56633000D01*
X123164949Y-56673545D01*
X123164944Y-56673547D01*
X123076613Y-56730315D01*
X123009574Y-56750000D01*
X119525001Y-56750000D01*
X119525001Y-56849154D01*
X119535319Y-56950152D01*
X119589546Y-57113800D01*
X119589551Y-57113811D01*
X119680052Y-57260534D01*
X119680055Y-57260538D01*
X119693982Y-57274465D01*
X119727467Y-57335788D01*
X119722483Y-57405480D01*
X119693984Y-57449825D01*
X119679661Y-57464148D01*
X119589093Y-57610981D01*
X119589092Y-57610984D01*
X119577891Y-57644788D01*
X119563073Y-57689505D01*
X119523300Y-57746949D01*
X119458784Y-57773772D01*
X119445367Y-57774500D01*
X119124730Y-57774500D01*
X119057691Y-57754815D01*
X119037049Y-57738181D01*
X118943657Y-57644789D01*
X118943656Y-57644788D01*
X118940342Y-57642743D01*
X118938546Y-57640748D01*
X118937989Y-57640307D01*
X118938064Y-57640211D01*
X118893618Y-57590797D01*
X118882397Y-57521834D01*
X118910240Y-57457752D01*
X118940348Y-57431665D01*
X118943342Y-57429818D01*
X119067315Y-57305845D01*
X119159356Y-57156624D01*
X119159358Y-57156619D01*
X119214505Y-56990197D01*
X119214506Y-56990190D01*
X119224999Y-56887486D01*
X119225000Y-56887473D01*
X119225000Y-56750000D01*
X117242333Y-56750000D01*
X117214781Y-56745323D01*
X117214447Y-56746789D01*
X117166945Y-56735945D01*
X117160262Y-56734020D01*
X117120859Y-56720232D01*
X117079363Y-56715555D01*
X117072508Y-56714391D01*
X117031800Y-56705101D01*
X117031796Y-56705100D01*
X117031794Y-56705100D01*
X117031791Y-56705100D01*
X116990036Y-56705100D01*
X116983097Y-56704710D01*
X116954199Y-56701454D01*
X116941602Y-56700035D01*
X116941598Y-56700035D01*
X116929000Y-56701454D01*
X116900102Y-56704710D01*
X116893164Y-56705100D01*
X116851406Y-56705100D01*
X116845488Y-56706450D01*
X116810689Y-56714391D01*
X116803835Y-56715555D01*
X116762344Y-56720232D01*
X116722941Y-56734019D01*
X116716259Y-56735944D01*
X116675539Y-56745239D01*
X116653676Y-56755768D01*
X116584734Y-56767118D01*
X116520601Y-56739393D01*
X116483695Y-56687377D01*
X116473153Y-56659111D01*
X116473150Y-56659106D01*
X116386991Y-56544013D01*
X116365030Y-56527573D01*
X116323160Y-56471638D01*
X116318177Y-56401946D01*
X116319301Y-56397226D01*
X116336396Y-56331200D01*
X115824779Y-56331200D01*
X115757740Y-56311515D01*
X115711985Y-56258711D01*
X115710732Y-56250000D01*
X116775000Y-56250000D01*
X117750000Y-56250000D01*
X117750000Y-55412500D01*
X118250000Y-55412500D01*
X118250000Y-56250000D01*
X119224999Y-56250000D01*
X119525000Y-56250000D01*
X120249999Y-56250000D01*
X120249999Y-55462500D01*
X120750000Y-55462500D01*
X120750000Y-56250000D01*
X122300000Y-56250000D01*
X122300000Y-55550000D01*
X122800000Y-55550000D01*
X122800000Y-56250000D01*
X123700000Y-56250000D01*
X123700000Y-56002172D01*
X123699999Y-56002155D01*
X123693598Y-55942627D01*
X123693596Y-55942620D01*
X123643354Y-55807913D01*
X123643350Y-55807906D01*
X123557190Y-55692812D01*
X123557187Y-55692809D01*
X123442093Y-55606649D01*
X123442086Y-55606645D01*
X123307379Y-55556403D01*
X123307372Y-55556401D01*
X123247844Y-55550000D01*
X122800000Y-55550000D01*
X122300000Y-55550000D01*
X121852155Y-55550000D01*
X121792627Y-55556401D01*
X121792620Y-55556403D01*
X121657913Y-55606645D01*
X121657906Y-55606649D01*
X121542812Y-55692809D01*
X121513064Y-55732547D01*
X121457129Y-55774418D01*
X121387437Y-55779401D01*
X121326115Y-55745914D01*
X121323835Y-55743352D01*
X121198038Y-55617555D01*
X121198034Y-55617552D01*
X121051311Y-55527051D01*
X121051300Y-55527046D01*
X120887652Y-55472819D01*
X120786654Y-55462500D01*
X120750000Y-55462500D01*
X120249999Y-55462500D01*
X120213361Y-55462500D01*
X120213343Y-55462501D01*
X120112347Y-55472819D01*
X119948699Y-55527046D01*
X119948688Y-55527051D01*
X119801965Y-55617552D01*
X119801961Y-55617555D01*
X119680055Y-55739461D01*
X119680052Y-55739465D01*
X119589551Y-55886188D01*
X119589546Y-55886199D01*
X119535319Y-56049847D01*
X119525000Y-56150845D01*
X119525000Y-56250000D01*
X119224999Y-56250000D01*
X119224999Y-56112528D01*
X119224998Y-56112513D01*
X119214505Y-56009802D01*
X119159358Y-55843380D01*
X119159356Y-55843375D01*
X119067315Y-55694154D01*
X118943345Y-55570184D01*
X118794124Y-55478143D01*
X118794119Y-55478141D01*
X118627697Y-55422994D01*
X118627690Y-55422993D01*
X118524986Y-55412500D01*
X118250000Y-55412500D01*
X117750000Y-55412500D01*
X117475029Y-55412500D01*
X117475012Y-55412501D01*
X117372302Y-55422994D01*
X117205880Y-55478141D01*
X117205875Y-55478143D01*
X117056654Y-55570184D01*
X116932684Y-55694154D01*
X116840643Y-55843375D01*
X116840641Y-55843380D01*
X116785494Y-56009802D01*
X116785493Y-56009809D01*
X116775000Y-56112513D01*
X116775000Y-56250000D01*
X115710732Y-56250000D01*
X115702041Y-56189553D01*
X115705513Y-56173266D01*
X115722195Y-56114631D01*
X115723695Y-56109360D01*
X115713346Y-55997679D01*
X115713344Y-55997675D01*
X115710915Y-55989137D01*
X115711501Y-55919270D01*
X115749766Y-55860810D01*
X115813563Y-55832319D01*
X115830181Y-55831200D01*
X116340271Y-55831200D01*
X116277114Y-55660672D01*
X116277112Y-55660668D01*
X116174907Y-55496696D01*
X116041797Y-55356665D01*
X116041796Y-55356664D01*
X115883213Y-55246286D01*
X115705662Y-55170093D01*
X115516406Y-55131200D01*
X115119800Y-55131200D01*
X115119800Y-55657200D01*
X115100115Y-55724239D01*
X115047311Y-55769994D01*
X114995800Y-55781200D01*
X114743800Y-55781200D01*
X114676761Y-55761515D01*
X114631006Y-55708711D01*
X114619800Y-55657200D01*
X114619800Y-55131200D01*
X114271624Y-55131200D01*
X114127578Y-55145847D01*
X113943238Y-55203684D01*
X113943228Y-55203689D01*
X113774301Y-55297451D01*
X113774294Y-55297456D01*
X113627694Y-55423307D01*
X113509431Y-55576090D01*
X113509429Y-55576094D01*
X113424342Y-55749556D01*
X113403204Y-55831200D01*
X113914821Y-55831200D01*
X113981860Y-55850885D01*
X114027615Y-55903689D01*
X114037559Y-55972847D01*
X114034087Y-55989134D01*
X114015905Y-56053037D01*
X114015904Y-56053037D01*
X114026253Y-56164717D01*
X114028685Y-56173263D01*
X114028099Y-56243130D01*
X113989834Y-56301590D01*
X113926037Y-56330081D01*
X113909419Y-56331200D01*
X113399329Y-56331200D01*
X113462485Y-56501727D01*
X113462487Y-56501731D01*
X113564692Y-56665703D01*
X113697802Y-56805734D01*
X113697803Y-56805735D01*
X113856386Y-56916113D01*
X114031577Y-56991293D01*
X114085421Y-57035820D01*
X114106644Y-57102388D01*
X114088509Y-57169863D01*
X114067019Y-57196142D01*
X114033606Y-57227144D01*
X114033604Y-57227146D01*
X113965704Y-57344755D01*
X113965703Y-57344757D01*
X113935485Y-57477154D01*
X113935484Y-57477154D01*
X113945633Y-57612575D01*
X113995247Y-57738994D01*
X114031383Y-57784306D01*
X114076769Y-57841218D01*
X114079922Y-57845171D01*
X114079923Y-57845172D01*
X114192124Y-57921670D01*
X114192127Y-57921672D01*
X114281852Y-57949347D01*
X114340107Y-57987915D01*
X114368266Y-58051859D01*
X114369300Y-58067837D01*
X114369300Y-58349068D01*
X114369301Y-58349078D01*
X114373479Y-58387945D01*
X114373479Y-58414450D01*
X114369300Y-58453322D01*
X114369300Y-58849069D01*
X114369301Y-58849078D01*
X114373479Y-58887945D01*
X114373479Y-58914450D01*
X114369300Y-58953322D01*
X114369300Y-59349069D01*
X114369301Y-59349078D01*
X114373479Y-59387945D01*
X114373479Y-59414450D01*
X114369300Y-59453322D01*
X114369300Y-59849069D01*
X114369301Y-59849078D01*
X114373479Y-59887945D01*
X114373479Y-59914450D01*
X114369300Y-59953322D01*
X114369300Y-60349069D01*
X114369301Y-60349078D01*
X114373479Y-60387945D01*
X114373479Y-60414450D01*
X114369300Y-60453322D01*
X114369300Y-60849069D01*
X114369301Y-60849078D01*
X114373479Y-60887945D01*
X114373479Y-60914450D01*
X114369300Y-60953322D01*
X114369300Y-61349069D01*
X114369301Y-61349078D01*
X114373479Y-61387945D01*
X114373479Y-61414450D01*
X114369300Y-61453322D01*
X114369300Y-61849069D01*
X114369301Y-61849078D01*
X114373479Y-61887945D01*
X114373479Y-61914450D01*
X114369300Y-61953322D01*
X114369300Y-62349069D01*
X114369301Y-62349078D01*
X114373479Y-62387945D01*
X114373479Y-62414450D01*
X114369300Y-62453322D01*
X114369300Y-62731990D01*
X114349615Y-62799029D01*
X114296811Y-62844784D01*
X114263787Y-62854604D01*
X114255517Y-62855850D01*
X114255513Y-62855852D01*
X114133158Y-62914774D01*
X114033606Y-63007145D01*
X114033604Y-63007146D01*
X113965704Y-63124755D01*
X113965703Y-63124757D01*
X113935485Y-63257154D01*
X113935484Y-63257154D01*
X113945633Y-63392575D01*
X113995247Y-63518994D01*
X114079139Y-63624190D01*
X114105547Y-63688877D01*
X114092792Y-63757572D01*
X114044921Y-63808466D01*
X114019313Y-63819816D01*
X113943238Y-63843684D01*
X113943228Y-63843689D01*
X113774301Y-63937451D01*
X113774294Y-63937456D01*
X113627694Y-64063307D01*
X113509431Y-64216090D01*
X113509429Y-64216094D01*
X113424342Y-64389556D01*
X113403204Y-64471200D01*
X113914821Y-64471200D01*
X113981860Y-64490885D01*
X114027615Y-64543689D01*
X114037559Y-64612847D01*
X114034087Y-64629134D01*
X114015905Y-64693037D01*
X114015904Y-64693037D01*
X114026253Y-64804717D01*
X114028685Y-64813263D01*
X114028099Y-64883130D01*
X113989834Y-64941590D01*
X113926037Y-64970081D01*
X113909419Y-64971200D01*
X113399329Y-64971200D01*
X113412749Y-65007434D01*
X113417573Y-65077137D01*
X113383947Y-65138383D01*
X113322547Y-65171727D01*
X113296468Y-65174500D01*
X112123953Y-65174500D01*
X112056914Y-65154815D01*
X112011159Y-65102011D01*
X112001215Y-65032853D01*
X112003911Y-65019419D01*
X112016396Y-64971200D01*
X111504779Y-64971200D01*
X111437740Y-64951515D01*
X111391985Y-64898711D01*
X111382041Y-64829553D01*
X111385513Y-64813266D01*
X111402540Y-64753418D01*
X111403695Y-64749360D01*
X111393346Y-64637679D01*
X111393344Y-64637675D01*
X111390915Y-64629137D01*
X111391501Y-64559270D01*
X111429766Y-64500810D01*
X111493563Y-64472319D01*
X111510181Y-64471200D01*
X112020271Y-64471200D01*
X111957114Y-64300672D01*
X111957112Y-64300668D01*
X111854907Y-64136696D01*
X111721797Y-63996665D01*
X111721796Y-63996664D01*
X111563213Y-63886286D01*
X111385662Y-63810093D01*
X111196406Y-63771200D01*
X110949800Y-63771200D01*
X110949800Y-64297200D01*
X110930115Y-64364239D01*
X110877311Y-64409994D01*
X110825800Y-64421200D01*
X110573800Y-64421200D01*
X110506761Y-64401515D01*
X110461006Y-64348711D01*
X110449800Y-64297200D01*
X110449800Y-63771200D01*
X110251624Y-63771200D01*
X110107578Y-63785847D01*
X109923238Y-63843684D01*
X109923228Y-63843689D01*
X109754301Y-63937451D01*
X109754294Y-63937456D01*
X109607694Y-64063307D01*
X109489431Y-64216090D01*
X109489429Y-64216094D01*
X109404342Y-64389556D01*
X109383204Y-64471200D01*
X109894821Y-64471200D01*
X109961860Y-64490885D01*
X110007615Y-64543689D01*
X110017559Y-64612847D01*
X110014087Y-64629134D01*
X109995905Y-64693037D01*
X109995904Y-64693037D01*
X110006253Y-64804717D01*
X110008685Y-64813263D01*
X110008099Y-64883130D01*
X109969834Y-64941590D01*
X109906037Y-64970081D01*
X109889419Y-64971200D01*
X109379329Y-64971200D01*
X109442485Y-65141727D01*
X109442487Y-65141731D01*
X109544688Y-65305698D01*
X109590546Y-65353939D01*
X109622467Y-65416091D01*
X109615719Y-65485634D01*
X109588353Y-65527053D01*
X108916207Y-66199200D01*
X108903951Y-66209020D01*
X108904134Y-66209241D01*
X108898123Y-66214213D01*
X108850772Y-66264636D01*
X108829878Y-66285530D01*
X108825627Y-66291010D01*
X108821838Y-66295446D01*
X108817007Y-66300590D01*
X108765620Y-66333413D01*
X108748486Y-66339090D01*
X108748483Y-66339092D01*
X108689596Y-66375414D01*
X108622204Y-66393854D01*
X108555540Y-66372931D01*
X108510771Y-66319289D01*
X108500500Y-66269875D01*
X108500500Y-61136851D01*
X108500500Y-56331200D01*
X109379329Y-56331200D01*
X109442485Y-56501727D01*
X109442487Y-56501731D01*
X109544692Y-56665703D01*
X109677802Y-56805734D01*
X109677803Y-56805735D01*
X109836386Y-56916113D01*
X110013937Y-56992306D01*
X110203194Y-57031200D01*
X110449800Y-57031200D01*
X110449800Y-56505200D01*
X110469485Y-56438161D01*
X110522289Y-56392406D01*
X110573800Y-56381200D01*
X110825800Y-56381200D01*
X110892839Y-56400885D01*
X110938594Y-56453689D01*
X110949800Y-56505200D01*
X110949800Y-57031200D01*
X111147976Y-57031200D01*
X111292021Y-57016552D01*
X111476361Y-56958715D01*
X111476371Y-56958710D01*
X111645298Y-56864948D01*
X111645305Y-56864943D01*
X111791905Y-56739092D01*
X111910168Y-56586309D01*
X111910170Y-56586305D01*
X111995257Y-56412843D01*
X112016396Y-56331200D01*
X111504779Y-56331200D01*
X111437740Y-56311515D01*
X111391985Y-56258711D01*
X111382041Y-56189553D01*
X111385513Y-56173266D01*
X111402195Y-56114631D01*
X111403695Y-56109360D01*
X111393346Y-55997679D01*
X111393344Y-55997675D01*
X111390915Y-55989137D01*
X111391501Y-55919270D01*
X111429766Y-55860810D01*
X111493563Y-55832319D01*
X111510181Y-55831200D01*
X112020271Y-55831200D01*
X111957114Y-55660672D01*
X111957112Y-55660668D01*
X111854907Y-55496696D01*
X111721797Y-55356665D01*
X111721796Y-55356664D01*
X111563213Y-55246286D01*
X111385662Y-55170093D01*
X111196406Y-55131200D01*
X110949800Y-55131200D01*
X110949800Y-55657200D01*
X110930115Y-55724239D01*
X110877311Y-55769994D01*
X110825800Y-55781200D01*
X110573800Y-55781200D01*
X110506761Y-55761515D01*
X110461006Y-55708711D01*
X110449800Y-55657200D01*
X110449800Y-55131200D01*
X110251624Y-55131200D01*
X110107578Y-55145847D01*
X109923238Y-55203684D01*
X109923228Y-55203689D01*
X109754301Y-55297451D01*
X109754294Y-55297456D01*
X109607694Y-55423307D01*
X109489431Y-55576090D01*
X109489429Y-55576094D01*
X109404342Y-55749556D01*
X109383204Y-55831200D01*
X109894821Y-55831200D01*
X109961860Y-55850885D01*
X110007615Y-55903689D01*
X110017559Y-55972847D01*
X110014087Y-55989134D01*
X109995905Y-56053037D01*
X109995904Y-56053037D01*
X110006253Y-56164717D01*
X110008685Y-56173263D01*
X110008099Y-56243130D01*
X109969834Y-56301590D01*
X109906037Y-56330081D01*
X109889419Y-56331200D01*
X109379329Y-56331200D01*
X108500500Y-56331200D01*
X108500500Y-56001842D01*
X108500611Y-55998163D01*
X108518497Y-55702458D01*
X108519401Y-55695026D01*
X108572456Y-55405516D01*
X108574246Y-55398250D01*
X108661816Y-55117230D01*
X108664465Y-55110248D01*
X108711166Y-55006482D01*
X108785268Y-54841834D01*
X108788745Y-54835211D01*
X108791584Y-54830516D01*
X108941012Y-54583330D01*
X108945252Y-54577186D01*
X109126793Y-54345465D01*
X109131737Y-54339884D01*
X109339884Y-54131737D01*
X109345465Y-54126793D01*
X109577186Y-53945252D01*
X109583334Y-53941010D01*
X109835215Y-53788742D01*
X109841834Y-53785268D01*
X110110246Y-53664465D01*
X110117230Y-53661816D01*
X110398250Y-53574246D01*
X110405516Y-53572456D01*
X110695026Y-53519401D01*
X110702458Y-53518497D01*
X110927572Y-53504880D01*
X110998134Y-53500613D01*
X111001878Y-53500500D01*
X111065892Y-53500500D01*
X148775479Y-53500500D01*
X148842518Y-53520185D01*
G37*
%TD.AperFunction*%
%TA.AperFunction,Conductor*%
G36*
X139281058Y-64145185D02*
G01*
X139319558Y-64184404D01*
X139328159Y-64198348D01*
X139328160Y-64198350D01*
X139431482Y-64301672D01*
X139464967Y-64362995D01*
X139459983Y-64432687D01*
X139431483Y-64477034D01*
X139328552Y-64579965D01*
X139238051Y-64726688D01*
X139238046Y-64726699D01*
X139183819Y-64890347D01*
X139173500Y-64991345D01*
X139173500Y-65028000D01*
X140287000Y-65028000D01*
X140354039Y-65047685D01*
X140399794Y-65100489D01*
X140411000Y-65152000D01*
X140411000Y-65404000D01*
X140391315Y-65471039D01*
X140338511Y-65516794D01*
X140287000Y-65528000D01*
X139173501Y-65528000D01*
X139173501Y-65564654D01*
X139183819Y-65665652D01*
X139238046Y-65829300D01*
X139238051Y-65829311D01*
X139328552Y-65976034D01*
X139328555Y-65976038D01*
X139396336Y-66043819D01*
X139429821Y-66105142D01*
X139424837Y-66174834D01*
X139382965Y-66230767D01*
X139317501Y-66255184D01*
X139308655Y-66255500D01*
X138916035Y-66255500D01*
X138848996Y-66235815D01*
X138803241Y-66183011D01*
X138792677Y-66118897D01*
X138793347Y-66112347D01*
X138799000Y-66057009D01*
X138798999Y-65006992D01*
X138797398Y-64991323D01*
X138788499Y-64904203D01*
X138788498Y-64904200D01*
X138786679Y-64898711D01*
X138733314Y-64737666D01*
X138641212Y-64588344D01*
X138521408Y-64468540D01*
X138487924Y-64407218D01*
X138492908Y-64337526D01*
X138521404Y-64293184D01*
X138652772Y-64161816D01*
X138714095Y-64128334D01*
X138740452Y-64125500D01*
X139214019Y-64125500D01*
X139281058Y-64145185D01*
G37*
%TD.AperFunction*%
%TA.AperFunction,Conductor*%
G36*
X114821927Y-63601700D02*
G01*
X115401802Y-63601699D01*
X115401822Y-63601700D01*
X115575800Y-63601700D01*
X115642839Y-63621385D01*
X115688594Y-63674189D01*
X115699800Y-63725700D01*
X115699800Y-63727200D01*
X115680115Y-63794239D01*
X115627311Y-63839994D01*
X115575800Y-63851200D01*
X114764542Y-63851200D01*
X114697503Y-63831515D01*
X114651748Y-63778711D01*
X114641804Y-63709553D01*
X114670829Y-63645997D01*
X114680189Y-63636312D01*
X114680893Y-63635659D01*
X114686909Y-63630076D01*
X114749435Y-63598902D01*
X114784510Y-63597677D01*
X114821927Y-63601700D01*
G37*
%TD.AperFunction*%
%TA.AperFunction,Conductor*%
G36*
X144256587Y-58645185D02*
G01*
X144277229Y-58661819D01*
X144285530Y-58670120D01*
X144291004Y-58674366D01*
X144295442Y-58678156D01*
X144329418Y-58710062D01*
X144329422Y-58710064D01*
X144346973Y-58719713D01*
X144363231Y-58730392D01*
X144379064Y-58742674D01*
X144397099Y-58750478D01*
X144421837Y-58761183D01*
X144427081Y-58763752D01*
X144467908Y-58786197D01*
X144487312Y-58791179D01*
X144505710Y-58797478D01*
X144524105Y-58805438D01*
X144570129Y-58812726D01*
X144575832Y-58813907D01*
X144620981Y-58825500D01*
X144641016Y-58825500D01*
X144660413Y-58827026D01*
X144680196Y-58830160D01*
X144726583Y-58825775D01*
X144732422Y-58825500D01*
X145181535Y-58825500D01*
X145248574Y-58845185D01*
X145280785Y-58875167D01*
X145281473Y-58876086D01*
X145305903Y-58941545D01*
X145291065Y-59009821D01*
X145281488Y-59024726D01*
X145256649Y-59057906D01*
X145256645Y-59057913D01*
X145206403Y-59192620D01*
X145206401Y-59192627D01*
X145200000Y-59252155D01*
X145200000Y-60147844D01*
X145206401Y-60207372D01*
X145206403Y-60207379D01*
X145256645Y-60342086D01*
X145256649Y-60342093D01*
X145342809Y-60457187D01*
X145342812Y-60457190D01*
X145457906Y-60543350D01*
X145457913Y-60543354D01*
X145592620Y-60593596D01*
X145592627Y-60593598D01*
X145652155Y-60599999D01*
X145652172Y-60600000D01*
X145795980Y-60600000D01*
X145863019Y-60619685D01*
X145908774Y-60672489D01*
X145918718Y-60741647D01*
X145889693Y-60805203D01*
X145861077Y-60829538D01*
X145854172Y-60833798D01*
X145744148Y-60901661D01*
X145729825Y-60915984D01*
X145668501Y-60949468D01*
X145598809Y-60944482D01*
X145554465Y-60915982D01*
X145540538Y-60902055D01*
X145540534Y-60902052D01*
X145393811Y-60811551D01*
X145393800Y-60811546D01*
X145230152Y-60757319D01*
X145129154Y-60747000D01*
X145030000Y-60747000D01*
X145030000Y-61848000D01*
X145010315Y-61915039D01*
X144957511Y-61960794D01*
X144906000Y-61972000D01*
X143742501Y-61972000D01*
X143742501Y-62008654D01*
X143752819Y-62109652D01*
X143807046Y-62273300D01*
X143807051Y-62273311D01*
X143897552Y-62420034D01*
X143897555Y-62420038D01*
X144024569Y-62547052D01*
X144022502Y-62549118D01*
X144055201Y-62595312D01*
X144058329Y-62665112D01*
X144025589Y-62723219D01*
X143947160Y-62801649D01*
X143947159Y-62801651D01*
X143938558Y-62815596D01*
X143886610Y-62862321D01*
X143833019Y-62874500D01*
X143580847Y-62874500D01*
X143557615Y-62872304D01*
X143549588Y-62870773D01*
X143549586Y-62870773D01*
X143540633Y-62871336D01*
X143492275Y-62874378D01*
X143488403Y-62874500D01*
X142932981Y-62874500D01*
X142865942Y-62854815D01*
X142827442Y-62815596D01*
X142826408Y-62813920D01*
X142818840Y-62801650D01*
X142696850Y-62679660D01*
X142568108Y-62600251D01*
X142550018Y-62589093D01*
X142550013Y-62589091D01*
X142548569Y-62588612D01*
X142386253Y-62534826D01*
X142386251Y-62534825D01*
X142285178Y-62524500D01*
X141686830Y-62524500D01*
X141686812Y-62524501D01*
X141585747Y-62534825D01*
X141421984Y-62589092D01*
X141421981Y-62589093D01*
X141275148Y-62679661D01*
X141161181Y-62793629D01*
X141099858Y-62827114D01*
X141030166Y-62822130D01*
X140985819Y-62793629D01*
X140871851Y-62679661D01*
X140871851Y-62679660D01*
X140871850Y-62679660D01*
X140743108Y-62600251D01*
X140725018Y-62589093D01*
X140725017Y-62589092D01*
X140725016Y-62589092D01*
X140617337Y-62553410D01*
X140559894Y-62513638D01*
X140533071Y-62449122D01*
X140545386Y-62380346D01*
X140592930Y-62329146D01*
X140640806Y-62312682D01*
X140656792Y-62310664D01*
X140700122Y-62293507D01*
X140705646Y-62291617D01*
X140709396Y-62290527D01*
X140750390Y-62278618D01*
X140767629Y-62268422D01*
X140785103Y-62259862D01*
X140803727Y-62252488D01*
X140803727Y-62252487D01*
X140803732Y-62252486D01*
X140841449Y-62225082D01*
X140846305Y-62221892D01*
X140886420Y-62198170D01*
X140900589Y-62183999D01*
X140915379Y-62171368D01*
X140931587Y-62159594D01*
X140961299Y-62123676D01*
X140965212Y-62119376D01*
X141707770Y-61376819D01*
X141769094Y-61343334D01*
X141795452Y-61340500D01*
X143508696Y-61340500D01*
X143527131Y-61339049D01*
X143545569Y-61337598D01*
X143583905Y-61326460D01*
X143653773Y-61326659D01*
X143712443Y-61364600D01*
X143741287Y-61428238D01*
X143742500Y-61445536D01*
X143742500Y-61472000D01*
X144530000Y-61472000D01*
X144530000Y-60746999D01*
X144430860Y-60747000D01*
X144430844Y-60747001D01*
X144329846Y-60757319D01*
X144256503Y-60781622D01*
X144186674Y-60784023D01*
X144126633Y-60748291D01*
X144095441Y-60685770D01*
X144093500Y-60663916D01*
X144093500Y-60324304D01*
X144090598Y-60287432D01*
X144090597Y-60287426D01*
X144044745Y-60129606D01*
X144044744Y-60129603D01*
X144044744Y-60129602D01*
X143961081Y-59988135D01*
X143961078Y-59988132D01*
X143956298Y-59981969D01*
X143958750Y-59980066D01*
X143932155Y-59931421D01*
X143937104Y-59861726D01*
X143957940Y-59829304D01*
X143956298Y-59828031D01*
X143961075Y-59821870D01*
X143961081Y-59821865D01*
X144044744Y-59680398D01*
X144090598Y-59522569D01*
X144093500Y-59485694D01*
X144093500Y-59054306D01*
X144090598Y-59017431D01*
X144086807Y-59004383D01*
X144046747Y-58866497D01*
X144044744Y-58859602D01*
X144016958Y-58812619D01*
X143999778Y-58744896D01*
X144021938Y-58678634D01*
X144076404Y-58634871D01*
X144123692Y-58625500D01*
X144189548Y-58625500D01*
X144256587Y-58645185D01*
G37*
%TD.AperFunction*%
%TA.AperFunction,Conductor*%
G36*
X147043334Y-59405627D02*
G01*
X147087681Y-59434128D01*
X147963181Y-60309628D01*
X147996666Y-60370951D01*
X147999500Y-60397309D01*
X147999500Y-60842668D01*
X147979815Y-60909707D01*
X147927011Y-60955462D01*
X147857853Y-60965406D01*
X147846948Y-60962743D01*
X147846847Y-60963189D01*
X147799345Y-60952345D01*
X147792662Y-60950420D01*
X147753259Y-60936632D01*
X147711763Y-60931955D01*
X147704908Y-60930791D01*
X147664200Y-60921501D01*
X147664196Y-60921500D01*
X147664194Y-60921500D01*
X147664191Y-60921500D01*
X147333182Y-60921500D01*
X147268085Y-60903039D01*
X147265851Y-60901661D01*
X147265850Y-60901660D01*
X147148922Y-60829538D01*
X147102199Y-60777591D01*
X147090977Y-60708628D01*
X147118820Y-60644546D01*
X147176889Y-60605690D01*
X147214020Y-60600000D01*
X147546446Y-60600000D01*
X146734127Y-59787681D01*
X146700642Y-59726358D01*
X146705626Y-59656666D01*
X146734127Y-59612319D01*
X146912319Y-59434128D01*
X146973642Y-59400643D01*
X147043334Y-59405627D01*
G37*
%TD.AperFunction*%
%TA.AperFunction,Conductor*%
G36*
X148993994Y-56137179D02*
G01*
X148997615Y-56139790D01*
X149021664Y-56157793D01*
X149021671Y-56157797D01*
X149063138Y-56173263D01*
X149156517Y-56208091D01*
X149216127Y-56214500D01*
X149348952Y-56214499D01*
X149415989Y-56234183D01*
X149461744Y-56286987D01*
X149471688Y-56356145D01*
X149442664Y-56419701D01*
X149436632Y-56426180D01*
X149329886Y-56532926D01*
X149194400Y-56726420D01*
X149194399Y-56726422D01*
X149094570Y-56940507D01*
X149094567Y-56940514D01*
X149043775Y-57130073D01*
X149032808Y-57148063D01*
X149037364Y-57154000D01*
X149754653Y-57154000D01*
X149821692Y-57173685D01*
X149867447Y-57226489D01*
X149877391Y-57295647D01*
X149873631Y-57312933D01*
X149868000Y-57332111D01*
X149868000Y-57475889D01*
X149871856Y-57489022D01*
X149873631Y-57495067D01*
X149873630Y-57564936D01*
X149835855Y-57623714D01*
X149772299Y-57652738D01*
X149754653Y-57654000D01*
X149037363Y-57654000D01*
X149000303Y-57702297D01*
X148943875Y-57743499D01*
X148874129Y-57747654D01*
X148813209Y-57713441D01*
X148785746Y-57670143D01*
X148752688Y-57581511D01*
X148743796Y-57557669D01*
X148718509Y-57523891D01*
X148694094Y-57458430D01*
X148708945Y-57390157D01*
X148718512Y-57375271D01*
X148743351Y-57342090D01*
X148793596Y-57207378D01*
X148795478Y-57189881D01*
X148814098Y-57144925D01*
X148800035Y-57100930D01*
X148800000Y-57097979D01*
X148800000Y-56252172D01*
X148799822Y-56248847D01*
X148800656Y-56248802D01*
X148812404Y-56183584D01*
X148859999Y-56132433D01*
X148927693Y-56115134D01*
X148993994Y-56137179D01*
G37*
%TD.AperFunction*%
%TA.AperFunction,Conductor*%
G36*
X115642839Y-56380885D02*
G01*
X115688594Y-56433689D01*
X115699800Y-56485200D01*
X115699800Y-57076700D01*
X115680115Y-57143739D01*
X115627311Y-57189494D01*
X115575800Y-57200700D01*
X114821929Y-57200700D01*
X114821923Y-57200701D01*
X114791217Y-57204002D01*
X114722457Y-57191595D01*
X114707974Y-57181553D01*
X114707354Y-57182463D01*
X114700298Y-57177652D01*
X114697599Y-57174360D01*
X114693593Y-57171583D01*
X114692838Y-57170882D01*
X114693851Y-57169789D01*
X114655998Y-57123621D01*
X114647941Y-57054218D01*
X114678686Y-56991476D01*
X114738470Y-56955316D01*
X114770153Y-56951200D01*
X115199800Y-56951200D01*
X115199800Y-56505200D01*
X115219485Y-56438161D01*
X115272289Y-56392406D01*
X115323800Y-56381200D01*
X115447599Y-56381200D01*
X115447602Y-56381200D01*
X115530050Y-56365788D01*
X115530051Y-56365786D01*
X115541344Y-56363676D01*
X115541698Y-56365569D01*
X115565071Y-56361200D01*
X115575800Y-56361200D01*
X115642839Y-56380885D01*
G37*
%TD.AperFunction*%
%TD*%
M02*
